<?xml version="1.0" encoding="utf-8"?>
<!-- Generator: Adobe Illustrator 24.0.0, SVG Export Plug-In . SVG Version: 6.00 Build 0)  -->
<svg version="1.1" id="Layer_1" xmlns="http://www.w3.org/2000/svg" xmlns:xlink="http://www.w3.org/1999/xlink" x="0px" y="0px"
	 viewBox="0 0 1343.88 537.64" style="enable-background:new 0 0 1343.88 537.64;" xml:space="preserve">
<style type="text/css">
	.st0{fill:url(#SVGID_1_);}
	.st1{fill:url(#SVGID_2_);}
	.st2{fill:url(#SVGID_3_);}
	.st3{fill:url(#SVGID_4_);}
	.st4{fill:url(#SVGID_5_);}
	.st5{fill:url(#SVGID_6_);}
	.st6{fill:url(#SVGID_7_);}
	.st7{fill:url(#SVGID_8_);}
	.st8{fill:url(#SVGID_9_);}
	.st9{fill:#662D91;}
</style>
<g>
	<g>
		<path d="M701.54,355.79c32.77-15.08,43.73-58.27,22.07-87.12c-11.91-15.87-27.94-23.93-47.73-24.07
			c-25.93-0.19-51.87-0.04-77.81-0.05c-0.36,0-0.73,0.03-1.09,0c-1.23-0.13-1.55,0.5-1.52,1.62c0.02,1.02,0.04,1.87,1.4,1.67
			c1.35-0.2,1.91,0.81,2.59,1.64c29.08,35.06,58.17,70.13,87.23,105.21c0.54,0.64,1.35,1.16,1.39,2.16
			c-4.39,1.26-8.85,1.27-13.3,1.27c-25.57,0-51.14,0.02-76.71-0.04c-1.96-0.01-2.64,0.37-2.63,2.51c0.1,14.92,0.05,29.84,0.05,44.77
			c0,1.22-0.39,2.51,1.76,2.46c2.13-0.05,1.47-1.41,1.47-2.41c0.03-13.74,0.08-27.49-0.03-41.22c-0.02-2.28,0.61-2.82,2.86-2.82
			c24.3,0.09,48.59,0.05,72.89,0.06c4.92,0,9.84-0.11,14.61-1.36c1.56-0.41,2.26,0.14,3.13,1.2c12.29,14.86,24.64,29.65,36.84,44.58
			c1.67,2.04,3.31,2.18,5.69,1.64c-13.52-16.3-26.86-32.39-40.36-48.68C696.88,357.75,699.25,356.84,701.54,355.79z M688.56,351.8
			c-27.8-33.54-55.6-67.07-83.4-100.6c-0.8-0.97-1.59-1.94-2.71-3.3c25.59,0,50.6-0.04,75.6,0.03c4.64,0.02,9.21,0.88,13.68,2.11
			c20.38,5.59,36.46,24.08,39.18,45.02c3.34,25.72-9.77,48.87-33.36,58.92C692.22,356.27,692.24,356.25,688.56,351.8z"/>
		<path d="M1131.48,407.73c-40.15,0.25-74.28-28-81.27-66.33c-8.06-44.18,19.57-85.96,63.6-95.02c27.42-5.64,51.75,1.67,72.52,20.53
			c0.68,0.61,2.28,1.05,0.8,2.7c-1.56,1.75-2.22,0.43-3.18-0.46c-17.67-16.21-38.55-23.27-62.3-20.76
			c-34.79,3.69-62.54,30.16-68.59,64.73c-7.42,42.35,22.06,83.73,64.44,90.28c25.39,3.93,47.57-2.99,66.6-20.2
			c0.58-0.52,1.02-1.85,2.13-1.09c1.04,0.72,2.29,1.42,0.56,3.04c-12.1,11.38-26.25,18.6-42.62,21.45
			C1139.6,407.41,1135,407.9,1131.48,407.73z"/>
		<path d="M502.56,244.55c22.29,0,44.59-0.01,66.88,0.03c1.06,0,2.74-0.78,2.73,1.49c0,1.17-0.13,1.97-1.58,1.79
			c-0.63-0.08-1.27-0.01-1.91-0.01c-43.22,0-86.45,0.02-129.67-0.05c-2.32,0-3.04,0.42-3.02,2.93c0.11,23.57,0.11,47.14,0.01,70.7
			c-0.01,2.53,0.45,3.32,3.19,3.31c27.66-0.12,55.33-0.08,82.99-0.04c1.02,0,2.75-0.85,2.67,1.5c-0.04,1.25-0.36,1.81-1.71,1.76
			c-2.27-0.09-4.55-0.02-6.82-0.02c-26.84,0-53.69-0.03-80.53,0.05c-2.3,0.01-3.06-0.39-3.05-2.92c0.11-25.84,0.1-51.69,0.01-77.53
			c-0.01-2.33,0.45-3.05,2.94-3.04C457.97,244.59,480.27,244.55,502.56,244.55z"/>
		<path d="M990.71,244.55c22.29,0,44.59-0.01,66.88,0.03c1.07,0,2.72-0.75,2.71,1.51c-0.01,1.2-0.18,1.95-1.61,1.76
			c-0.63-0.08-1.27-0.01-1.91-0.01c-43.22,0-86.45,0.02-129.67-0.06c-2.37,0-3.01,0.5-3,2.95c0.11,23.66,0.1,47.32,0.01,70.98
			c-0.01,2.33,0.44,3.02,2.93,3.01c27.75-0.11,55.51-0.08,83.26-0.02c0.86,0,2.34-0.88,2.61,0.96c0.21,1.48-0.08,2.38-1.97,2.3
			c-3.63-0.14-7.28-0.04-10.92-0.04c-25.39,0-50.78-0.03-76.16,0.06c-2.35,0.01-3.03-0.47-3.02-2.95
			c0.11-25.84,0.1-51.69,0.01-77.53c-0.01-2.37,0.51-3.03,2.97-3.01C946.12,244.59,968.42,244.55,990.71,244.55z"/>
		<path d="M804.25,324.65c14.46,0,28.93-0.01,43.39,0.03c1.06,0,2.65-0.75,2.63,1.56c-0.01,2.18-1.43,1.67-2.6,1.67
			c-27.74,0.01-55.49,0.05-83.23-0.06c-2.6-0.01-3.03,0.79-3.02,3.15c0.08,24.74,0.06,49.48,0,74.22c0,0.82,0.95,2.28-0.98,2.54
			c-1.77,0.23-2.29-0.38-2.27-2.2c0.08-12.92,0.04-25.83,0.04-38.75c0-13.19,0.06-26.38-0.06-39.57c-0.02-2.21,0.64-2.65,2.71-2.64
			C775.32,324.69,789.79,324.65,804.25,324.65z"/>
		<path d="M828.04,247.84c-22.47,0-44.94,0-67.41-0.01c-1.18,0-2.66,0.47-2.47-1.73c0.1-1.17,0.44-1.68,1.61-1.56
			c0.36,0.04,0.73,0.01,1.09,0.01c44.67,0,89.34,0,134.01,0.03c0.91,0,2.31-0.76,2.68,0.95c0.43,1.99-0.53,2.35-2.37,2.35
			C872.8,247.82,850.42,247.84,828.04,247.84z"/>
		<path d="M1269.47,244.55c22.38,0,44.76-0.01,67.14,0.02c1.08,0,2.72-0.74,2.7,1.53c-0.01,1.21-0.2,1.95-1.62,1.75
			c-0.45-0.06-0.91-0.01-1.36-0.01c-44.49,0-88.98,0.01-133.46-0.05c-0.96,0-2.51,0.94-2.92-0.9c-0.43-1.94,0.52-2.39,2.39-2.39
			C1224.71,244.57,1247.09,244.55,1269.47,244.55z"/>
		<path d="M502.34,407.75c-22.38,0-44.76,0-67.15,0c-1.2,0-2.63,0.44-2.45-1.74c0.1-1.2,0.48-1.65,1.63-1.53
			c0.36,0.04,0.73,0,1.09,0c44.67,0,89.35-0.01,134.02,0.04c0.9,0,2.29-0.8,2.65,0.95c0.42,2.03-0.57,2.32-2.38,2.32
			C547.29,407.73,524.81,407.75,502.34,407.75z"/>
		<path d="M990.37,407.75c-22.29,0-44.58,0-66.87-0.01c-1.25,0-2.88,0.54-2.62-1.83c0.11-1.03,0.38-1.51,1.44-1.43
			c0.54,0.04,1.09,0,1.64,0c44.49,0,88.98-0.01,133.48,0.04c0.92,0,2.36-0.82,2.78,0.78c0.45,1.71-0.05,2.51-2.16,2.5
			c-20.74-0.09-41.49-0.05-62.23-0.05C994.01,407.75,992.19,407.75,990.37,407.75z"/>
		<path d="M1268.07,366.83c0-12.81,0-25.63,0.01-38.44c0-1.09-0.46-2.36,1.57-2.34c1.9,0.02,1.69,1.1,1.69,2.31
			c-0.01,25.72-0.01,51.44,0,77.16c0,1.15,0.32,2.27-1.64,2.3c-2.02,0.03-1.62-1.17-1.62-2.27
			C1268.06,392.64,1268.07,379.74,1268.07,366.83z"/>
	</g>
</g>
<g>
	<linearGradient id="SVGID_1_" gradientUnits="userSpaceOnUse" x1="-0.2312" y1="489.1732" x2="490.4525" y2="489.1732">
		<stop  offset="0" style="stop-color:#DE8A9D"/>
		<stop  offset="5.586590e-03" style="stop-color:#DE8A9D"/>
		<stop  offset="0.0846" style="stop-color:#D8889F"/>
		<stop  offset="0.2026" style="stop-color:#C883A4"/>
		<stop  offset="0.3442" style="stop-color:#AD7BAD"/>
		<stop  offset="0.3855" style="stop-color:#A378B0"/>
		<stop  offset="1" style="stop-color:#5F60AB"/>
	</linearGradient>
	<path class="st0" d="M14,495.43c0,13.93,0,26.91,0,40.44c-4.75,0-9.13,0-14.23,0c0-30.84,0-61.93,0-93.41c4.61,0,8.98,0,14.22,0
		c0,13.21,0,26.08,0,39.38c154.2,0,307.52,0,461.7,0c0-13.18,0-26.05,0-39.34c5.26,0,9.68,0,14.76,0c0,30.82,0,61.73,0,93.29
		c-4.36,0-8.94,0-14.55,0c0-13.22,0-26.6,0-40.37C321.58,495.43,168.26,495.43,14,495.43z"/>
	<linearGradient id="SVGID_2_" gradientUnits="userSpaceOnUse" x1="911.6801" y1="489.2853" x2="987.7891" y2="489.2853">
		<stop  offset="0" style="stop-color:#DE8A9D"/>
		<stop  offset="5.586590e-03" style="stop-color:#DE8A9D"/>
		<stop  offset="0.0846" style="stop-color:#D8889F"/>
		<stop  offset="0.2026" style="stop-color:#C883A4"/>
		<stop  offset="0.3442" style="stop-color:#AD7BAD"/>
		<stop  offset="0.3855" style="stop-color:#A378B0"/>
		<stop  offset="1" style="stop-color:#5F60AB"/>
	</linearGradient>
	<path class="st1" d="M911.68,442.62c9.95-2.52,16.41,0.06,21.82,9.17c10.55,17.75,22.52,34.66,33.93,51.9
		c1.39,2.09,2.94,4.07,5.8,8c0-24.59,0-46.94,0-69.47c5.31,0,9.73,0,14.56,0c0,31.31,0,62.25,0,93.15
		c-13.21,2.76-13.89,2.51-20.83-8.02c-12.96-19.65-25.89-39.32-39.97-60.7c0,24.12,0,46.42,0,69.25c-5.54,0-10.16,0-15.31,0
		C911.68,505.01,911.68,474.09,911.68,442.62z"/>
	<linearGradient id="SVGID_3_" gradientUnits="userSpaceOnUse" x1="506.4307" y1="488.8863" x2="602.8642" y2="488.8863">
		<stop  offset="0" style="stop-color:#DE8A9D"/>
		<stop  offset="5.586590e-03" style="stop-color:#DE8A9D"/>
		<stop  offset="0.0846" style="stop-color:#D8889F"/>
		<stop  offset="0.2026" style="stop-color:#C883A4"/>
		<stop  offset="0.3442" style="stop-color:#AD7BAD"/>
		<stop  offset="0.3855" style="stop-color:#A378B0"/>
		<stop  offset="1" style="stop-color:#5F60AB"/>
	</linearGradient>
	<path class="st2" d="M554.76,440.86c-27.67,0-48.3,20.58-48.33,48.03c-0.05,29.09,23.8,49.89,48.25,47.85
		c22.92,2.23,48.2-16.93,48.18-47.77C602.86,461.12,582.62,440.86,554.76,440.86z M553.05,523.75
		c-18.47-0.53-31.35-15.8-30.67-36.34c0.67-19.94,14.63-33.95,33.09-33.2c19.49,0.8,32.02,15.05,31.32,35.59
		C586.06,511.17,573.01,524.3,553.05,523.75z"/>
	<linearGradient id="SVGID_4_" gradientUnits="userSpaceOnUse" x1="801.1823" y1="488.754" x2="897.5388" y2="488.754">
		<stop  offset="0" style="stop-color:#DE8A9D"/>
		<stop  offset="5.586590e-03" style="stop-color:#DE8A9D"/>
		<stop  offset="0.0846" style="stop-color:#D8889F"/>
		<stop  offset="0.2026" style="stop-color:#C883A4"/>
		<stop  offset="0.3442" style="stop-color:#AD7BAD"/>
		<stop  offset="0.3855" style="stop-color:#A378B0"/>
		<stop  offset="1" style="stop-color:#5F60AB"/>
	</linearGradient>
	<path class="st3" d="M851.1,440.65c-26.01-1-49.89,19.54-49.92,48.26c-0.03,27.4,22.55,49.86,48.26,47.8
		c23.64,2.25,48.39-18.03,48.09-47.77C897.25,461.57,877.58,441.67,851.1,440.65z M849.77,523.75
		c-19.27,0.08-32.42-13.8-32.56-34.38c-0.16-20.61,12.7-34.78,31.89-35.13c19.21-0.35,32.29,13.58,32.34,34.43
		C881.49,509.67,868.85,523.67,849.77,523.75z"/>
	<linearGradient id="SVGID_5_" gradientUnits="userSpaceOnUse" x1="618.6282" y1="489.6245" x2="685.6854" y2="489.6245">
		<stop  offset="0" style="stop-color:#DE8A9D"/>
		<stop  offset="5.586590e-03" style="stop-color:#DE8A9D"/>
		<stop  offset="0.0846" style="stop-color:#D8889F"/>
		<stop  offset="0.2026" style="stop-color:#C883A4"/>
		<stop  offset="0.3442" style="stop-color:#AD7BAD"/>
		<stop  offset="0.3855" style="stop-color:#A378B0"/>
		<stop  offset="1" style="stop-color:#5F60AB"/>
	</linearGradient>
	<path class="st4" d="M662.73,497.62c1.56-0.65,2.74-1.13,3.89-1.64c11.89-5.24,18.59-15.67,17.64-27.46
		c-1.02-12.93-8.32-23.24-21.66-24.91c-14.47-1.83-29.34-0.41-43.98-0.41v92.78h15.29v-36.58c7.78-2.58,12.48-0.59,15.91,6.38
		c4.45,9.01,9.69,17.64,14.94,26.22c1.2,1.94,3.68,3.95,5.8,4.26c4.54,0.64,9.24,0.19,15.13,0.19
		C677.59,522.74,670.22,510.29,662.73,497.62z M634.31,485.51v-30.4c7.52,0,14.65-0.46,21.69,0.13c7.78,0.65,12.26,6.69,12.18,14.98
		c-0.06,8.35-4.53,14.47-12.15,15.16C649.01,486,641.87,485.51,634.31,485.51z"/>
	<linearGradient id="SVGID_6_" gradientUnits="userSpaceOnUse" x1="730.345" y1="489.3035" x2="795.1283" y2="489.3035">
		<stop  offset="0" style="stop-color:#DE8A9D"/>
		<stop  offset="5.586590e-03" style="stop-color:#DE8A9D"/>
		<stop  offset="0.0846" style="stop-color:#D8889F"/>
		<stop  offset="0.2026" style="stop-color:#C883A4"/>
		<stop  offset="0.3442" style="stop-color:#AD7BAD"/>
		<stop  offset="0.3855" style="stop-color:#A378B0"/>
		<stop  offset="1" style="stop-color:#5F60AB"/>
	</linearGradient>
	<path class="st5" d="M750.24,522.82c15.27,0,28.97,0,43.14,0c0,4.59,0,8.47,0,13c-20.19,0-40.43,0-63.04,0
		c1.78-6.12,2.31-12.26,5.16-17.01c11.46-19.07,23.64-37.71,35.53-56.52c1.23-1.95,2.34-3.98,4.15-7.07c-15,0-28.88,0-43.12,0
		c0-4.46,0-8.07,0-12.43c20.25,0,40.51,0,63.07,0c-1.75,6.04-2.28,12.44-5.26,17.36C777.4,480.74,764.2,500.89,750.24,522.82z"/>
	<linearGradient id="SVGID_7_" gradientUnits="userSpaceOnUse" x1="701.3972" y1="489.3501" x2="716.1295" y2="489.3501">
		<stop  offset="0" style="stop-color:#DE8A9D"/>
		<stop  offset="5.586590e-03" style="stop-color:#DE8A9D"/>
		<stop  offset="0.0846" style="stop-color:#D8889F"/>
		<stop  offset="0.2026" style="stop-color:#C883A4"/>
		<stop  offset="0.3442" style="stop-color:#AD7BAD"/>
		<stop  offset="0.3855" style="stop-color:#A378B0"/>
		<stop  offset="1" style="stop-color:#5F60AB"/>
	</linearGradient>
	<path class="st6" d="M716.13,536.09c-4.96,0-9.61,0-14.73,0c0-31.2,0-62.08,0-93.49c4.82,0,9.48,0,14.73,0
		C716.13,473.57,716.13,504.66,716.13,536.09z"/>
</g>
<g>
	<linearGradient id="SVGID_8_" gradientUnits="userSpaceOnUse" x1="-0.0291" y1="222.3975" x2="412.4188" y2="222.3975">
		<stop  offset="0" style="stop-color:#DE8A9D"/>
		<stop  offset="5.586590e-03" style="stop-color:#DE8A9D"/>
		<stop  offset="0.0846" style="stop-color:#D8889F"/>
		<stop  offset="0.2026" style="stop-color:#C883A4"/>
		<stop  offset="0.3442" style="stop-color:#AD7BAD"/>
		<stop  offset="0.3855" style="stop-color:#A378B0"/>
		<stop  offset="1" style="stop-color:#5F60AB"/>
	</linearGradient>
	<path class="st7" d="M374.07,252.59c-32.31,36.93-75.68,56.94-125.44,57.88c-29.25,0.56-58.75,0.76-88.15,0.8
		c-5.35,0.03-10.71,0.03-16.06,0.03l-1.29,0.49c-0.08-0.17-0.16-0.32-0.24-0.49h-6.97c-20.81-0.02-41.5-0.09-61.95-0.16l-28.2-0.08
		h-31.5v1.73l0.03,11.17c0.05,4.72,0.08,9.42,0.1,14.13c0.14,24.92,0.06,79.73-0.05,104.38H0.12c0.08-8.85,0.05-47.19,0.01-55.86
		c-0.01-4.88-0.03-9.75-0.03-14.63c0-5.85,0.02-11.71,0.03-17.56c0.04-13.65,0.05-27.69-0.08-41.6c-0.03-2.06-0.04-4.12-0.08-6.17
		c-0.01-0.74,0.02-1.44,0.08-2.08c0.04-0.24,0.07-0.46,0.1-0.69v-5.63h32.29c23.13,0.07,46.64,0.06,69.37,0.04
		c8.8-0.01,17.6-0.01,26.38-0.01v-0.2h2.39c1.96,0,3.92,0,5.9,0.01c5.8,0.02,11.64,0.06,17.41,0.12c2.34,0.01,4.67,0.04,6.98,0.05
		c1.88,0.02,3.74,0.05,5.61,0.06c26.09,0.27,53.09,0.56,79.52-0.52c59.92-2.45,105.98-28.66,133.22-75.8
		c20.23-35.02,23.86-74.11,10.2-110.08c-13.9-36.61-44.13-66.32-85.15-83.63c-20.3-8.57-43.45-12.75-70.75-12.78
		c-23.8-0.02-50.31-0.04-77.64-0.04v-0.01H90.7c-6.94,0-13.85-0.01-20.69-0.02c-23.23-0.01-45.68-0.02-66.1-0.05H1.52V2.6h2.39
		c15.86,0.01,34.13,0.01,53.26,0h12.84c4.52-0.01,9.08-0.01,13.66-0.01h108.29c1.59-0.02,3.17-0.05,4.74-0.07
		c19.38-0.27,39.42-0.56,59.15,1.28c55.52,5.22,98.57,28.73,127.95,69.84C425.14,131.5,421.51,198.4,374.07,252.59z"/>
	<linearGradient id="SVGID_9_" gradientUnits="userSpaceOnUse" x1="83.6728" y1="2.5871" x2="99.8728" y2="2.5871">
		<stop  offset="0" style="stop-color:#DE8A9D"/>
		<stop  offset="5.586590e-03" style="stop-color:#DE8A9D"/>
		<stop  offset="0.0846" style="stop-color:#D8889F"/>
		<stop  offset="0.2026" style="stop-color:#C883A4"/>
		<stop  offset="0.3442" style="stop-color:#AD7BAD"/>
		<stop  offset="0.3855" style="stop-color:#A378B0"/>
		<stop  offset="1" style="stop-color:#5F60AB"/>
	</linearGradient>
	<path class="st8" d="M99.87,2.58c-0.01,0-0.01,0.01-0.02,0.01H83.67C89.05,2.58,94.47,2.58,99.87,2.58z"/>
</g>
<path class="st9" d="M2578.26-1581.49c-4.58,0-9.14,0-13.66,0.01v-0.01H2578.26z"/>
<path class="st9" d="M2585.29-1568.62h-20.69v-0.02C2571.44-1568.63,2578.35-1568.62,2585.29-1568.62z"/>
</svg>
