<?xml version="1.0" encoding="utf-8"?>
<!-- Generator: Adobe Illustrator 23.0.5, SVG Export Plug-In . SVG Version: 6.00 Build 0)  -->
<svg version="1.1" id="Layer_1" xmlns="http://www.w3.org/2000/svg" xmlns:xlink="http://www.w3.org/1999/xlink" x="0px" y="0px"
	 viewBox="0 0 174.8 47.7" style="enable-background:new 0 0 174.8 47.7;" xml:space="preserve">
<style type="text/css">
	.st0{fill:#E2E2E2;}
	.st1{fill:url(#SVGID_1_);}
	.st2{fill:url(#SVGID_2_);}
	.st3{fill:url(#SVGID_3_);}
	.st4{fill:url(#SVGID_4_);}
	.st5{fill:url(#SVGID_5_);}
	.st6{fill:url(#SVGID_6_);}
	.st7{fill:url(#SVGID_7_);}
	.st8{fill:url(#SVGID_8_);}
</style>
<g>
	<g>
		<path class="st0" d="M15.6,1.7c0.7,0.9,1,2.3,1,4.2V5.8c0,1.8-0.3,3.2-1,4.2c-0.7,1-1.8,1.4-3.4,1.4l-7.9,0v7
			c0,0.4-0.1,0.6-0.3,0.7c-0.2,0.1-0.3,0.1-0.4,0.1H1.6c-0.1,0-0.2,0-0.4-0.1C1.1,19,1,18.8,1,18.4V8.8c0-0.4,0.1-0.6,0.3-0.7
			C1.4,8,1.5,8,1.6,8h10c0.6,0,1-0.2,1.2-0.5c0.2-0.3,0.4-0.9,0.4-1.7s-0.1-1.3-0.4-1.7c-0.2-0.3-0.6-0.5-1.2-0.5h-10
			c-0.1,0-0.2,0-0.4-0.1C1.1,3.5,1,3.2,1,2.9V1.1c0-0.4,0.1-0.6,0.3-0.7c0.2-0.1,0.3-0.1,0.4-0.1h10.6C13.8,0.3,14.9,0.8,15.6,1.7z"
			/>
		<path class="st0" d="M35.8,0.2c0.1,0,0.2,0,0.4,0.1c0.2,0.1,0.3,0.3,0.3,0.7v1.8c0,0.3-0.1,0.6-0.3,0.7c-0.2,0.1-0.3,0.1-0.4,0.1
			l-13.2,0c-0.1,0-0.2,0-0.4-0.1s-0.2-0.3-0.2-0.7V1c0-0.4,0.1-0.6,0.2-0.7c0.2-0.1,0.3-0.1,0.4-0.1H35.8z M35.7,15.1
			c0.1,0,0.2,0,0.4,0.1c0.2,0.1,0.3,0.3,0.3,0.7v2.5c0,0.4-0.1,0.6-0.3,0.7c-0.2,0.1-0.3,0.1-0.4,0.1h-8.2c-1,0-1.9-0.1-2.6-0.4
			c-0.7-0.3-1.3-0.7-1.8-1.3c-0.5-0.6-0.8-1.4-1-2.3c-0.1-0.4-0.1-0.8-0.2-1.3s-0.1-1-0.1-1.5v-0.1l0-2.9c0-0.2,0.1-0.4,0.3-0.6
			c0.3-0.6,0.9-0.9,1.6-1l11.9,0c0.1,0,0.2,0,0.4,0.1c0.2,0.1,0.3,0.3,0.3,0.7v1.8c0,0.4-0.1,0.6-0.3,0.7s-0.3,0.1-0.4,0.1H25.4
			c0,0,0,0.1,0,0.3s0,0.4,0,0.6c0,0.2,0,0.5,0,0.8c0,0.1,0,0.1,0,0.2s0,0.1,0,0.2c0.1,0.4,0.2,0.8,0.4,1c0.2,0.2,0.4,0.4,0.7,0.5
			c0.2,0,0.3,0.1,0.5,0.1c0.2,0,0.4,0,0.7,0H35.7z"/>
		<path class="st0" d="M57.8,18.2c0.1,0.1,0.1,0.3,0.1,0.6c0,0.3-0.2,0.5-0.5,0.5h-2.5c-0.2,0-0.4,0-0.5-0.1c0,0-0.1-0.1-0.1-0.1
			s-0.1-0.1-0.1-0.2L50,11.4h-4.9v7c0,0.4-0.1,0.6-0.2,0.7c-0.2,0.1-0.3,0.1-0.4,0.1h-2.1c-0.1,0-0.2,0-0.4-0.1
			c-0.2-0.1-0.3-0.3-0.3-0.7V8.8c0-0.4,0.1-0.6,0.3-0.7C42.1,8,42.3,8,42.4,8h10c0.6,0,1-0.2,1.2-0.5C53.8,7.1,54,6.6,54,5.8
			s-0.1-1.3-0.4-1.7c-0.2-0.3-0.6-0.5-1.2-0.5h-10c-0.1,0-0.2,0-0.4-0.1c-0.2-0.1-0.3-0.3-0.3-0.7V1.1c0-0.4,0.1-0.6,0.3-0.7
			c0.2-0.1,0.3-0.1,0.4-0.1H53c1.6,0,2.7,0.5,3.4,1.5c0.7,1,1,2.3,1,4.1c0,1.8-0.4,3.1-1,4.1c-0.6,0.8-1.4,1.3-2.6,1.4L57.8,18.2z
			 M57.4,5.9L57.4,5.9V5.8V5.9z"/>
		<path class="st0" d="M77.1,0.3c0.1,0,0.2,0,0.4,0.1c0.2,0.1,0.3,0.3,0.3,0.7v1.8c0,0.4-0.1,0.6-0.3,0.7c-0.2,0.1-0.3,0.1-0.4,0.1
			H63.8c-0.1,0-0.2,0-0.4-0.1s-0.2-0.3-0.2-0.7V1.1c0-0.4,0.1-0.6,0.2-0.7s0.3-0.1,0.4-0.1H77.1z M76.9,7.9c0.1,0,0.2,0,0.4,0.1
			s0.3,0.3,0.3,0.7v1.8c0,0.4-0.1,0.6-0.3,0.7s-0.3,0.1-0.4,0.1H66.7c0,0.4,0,0.8,0,1.1c0,0.3,0,0.7,0,1.1s0,0.9,0,1.3
			c0,1,0,2.2,0,3.5c0,0.4-0.1,0.6-0.3,0.7c-0.2,0.1-0.3,0.1-0.4,0.1h-2.1c-0.1,0-0.2,0-0.4-0.1c-0.2-0.1-0.3-0.3-0.3-0.7l0-8.9
			c0-0.1,0.1-0.2,0.1-0.3c0-0.1,0.1-0.2,0.1-0.3c0.2-0.3,0.4-0.5,0.7-0.7S64.7,8,65.1,8L76.9,7.9z"/>
		<path class="st0" d="M96.8,0.2c0.1,0,0.2,0,0.4,0.1c0.2,0.1,0.3,0.3,0.3,0.7v1.8c0,0.3-0.1,0.6-0.3,0.7c-0.2,0.1-0.3,0.1-0.4,0.1
			l-13.2,0c-0.1,0-0.2,0-0.4-0.1S83,3.2,83,2.8V1c0-0.4,0.1-0.6,0.2-0.7c0.2-0.1,0.3-0.1,0.4-0.1H96.8z M96.8,15.1
			c0.1,0,0.2,0,0.4,0.1c0.2,0.1,0.3,0.3,0.3,0.7v2.5c0,0.4-0.1,0.6-0.3,0.7c-0.2,0.1-0.3,0.1-0.4,0.1h-8.2c-1,0-1.9-0.1-2.6-0.4
			c-0.7-0.3-1.3-0.7-1.8-1.3c-0.5-0.6-0.8-1.4-1-2.3c-0.1-0.4-0.1-0.8-0.2-1.3S83,13,83,12.5v-0.1l0-2.9c0-0.2,0.1-0.4,0.3-0.6
			c0.3-0.6,0.9-0.9,1.6-1l11.9,0c0.1,0,0.2,0,0.4,0.1c0.2,0.1,0.3,0.3,0.3,0.7v1.8c0,0.4-0.1,0.6-0.3,0.7s-0.3,0.1-0.4,0.1H86.4
			c0,0,0,0.1,0,0.3s0,0.4,0,0.6c0,0.2,0,0.5,0,0.8c0,0.1,0,0.1,0,0.2s0,0.1,0,0.2c0.1,0.4,0.2,0.8,0.4,1c0.2,0.2,0.4,0.4,0.7,0.5
			c0.2,0,0.3,0.1,0.5,0.1c0.2,0,0.4,0,0.7,0H96.8z"/>
		<path class="st0" d="M117.2,0.4c0.2,0.1,0.3,0.3,0.3,0.7v1.8c0,0.4-0.1,0.6-0.3,0.7c-0.2,0.1-0.3,0.1-0.4,0.1h-8.3
			c-0.5,0-0.9,0.1-1.2,0.2c-0.3,0.1-0.5,0.3-0.7,0.5c-0.2,0.2-0.3,0.6-0.4,1c0,0.2-0.1,0.5-0.1,0.7c0,0.3,0,0.6,0,1v5.4
			c0,0.4,0,0.7,0,1c0,0.3,0,0.5,0.1,0.8c0.1,0.5,0.2,0.8,0.4,1c0.2,0.2,0.4,0.4,0.7,0.5c0.3,0.1,0.7,0.2,1.2,0.2h8.3
			c0.1,0,0.2,0,0.4,0.1c0.2,0.1,0.3,0.3,0.3,0.7v1.8c0,0.4-0.1,0.6-0.3,0.7c-0.2,0.1-0.3,0.1-0.4,0.1h-8.4c-1,0-1.9-0.1-2.6-0.4
			c-0.7-0.2-1.3-0.7-1.8-1.3c-0.5-0.6-0.8-1.4-1-2.3c-0.2-0.9-0.3-2-0.3-3.3V7.5c0-0.6,0-1.2,0.1-1.8s0.1-1,0.2-1.5
			c0.2-0.9,0.5-1.7,1-2.3c0.4-0.6,1-1,1.8-1.3c0.7-0.3,1.6-0.4,2.6-0.4h8.4C116.9,0.3,117,0.3,117.2,0.4z"/>
		<path class="st0" d="M139,0.4c0.2,0.1,0.3,0.3,0.3,0.7v1.8c0,0.2,0,0.3-0.1,0.4c-0.1,0.1-0.1,0.2-0.2,0.3
			c-0.1,0.1-0.1,0.1-0.2,0.1c-0.1,0-0.1,0-0.2,0h-5.9v14.8c0,0.4-0.1,0.6-0.2,0.7c-0.2,0.1-0.3,0.1-0.4,0.1H130
			c-0.1,0-0.2,0-0.4-0.1c-0.2-0.1-0.3-0.3-0.3-0.7V3.7h-5.9c0,0-0.1,0-0.2,0c-0.1,0-0.1,0-0.2-0.1s-0.1-0.1-0.2-0.3
			c-0.1-0.1-0.1-0.3-0.1-0.4V1c0-0.4,0.1-0.6,0.3-0.7c0.2-0.1,0.3-0.1,0.4-0.1h15.2C138.7,0.3,138.9,0.3,139,0.4z"/>
	</g>
	<g>
		<path class="st0" d="M57,28c0.2,0.1,0.3,0.3,0.3,0.7V46c0,0.4-0.1,0.6-0.3,0.7c-0.2,0.1-0.3,0.1-0.4,0.1h-2.1
			c-0.1,0-0.2,0-0.4-0.1c-0.2-0.1-0.2-0.3-0.2-0.7v-7.1h-8.7V46c0,0.4-0.1,0.6-0.2,0.7c-0.2,0.1-0.3,0.1-0.4,0.1h-2.1
			c-0.1,0-0.2,0-0.4-0.1c-0.2-0.1-0.3-0.3-0.3-0.7V28.7c0-0.4,0.1-0.6,0.3-0.7c0.2-0.1,0.3-0.1,0.4-0.1h2.1c0.1,0,0.2,0,0.4,0.1
			c0.2,0.1,0.2,0.3,0.2,0.7v6.9h8.7v-6.9c0-0.4,0.1-0.6,0.2-0.7c0.2-0.1,0.3-0.1,0.4-0.1h2.1C56.7,27.9,56.8,27.9,57,28z"/>
		<path class="st0" d="M78.2,29.5c0.4,0.6,0.8,1.3,1,2.3c0.1,0.4,0.2,0.9,0.2,1.5c0.1,0.5,0.1,1.1,0.1,1.8v4.6c0,0.6,0,1.2-0.1,1.8
			c-0.1,0.6-0.1,1-0.2,1.5c-0.2,0.9-0.5,1.7-1,2.3c-0.5,0.6-1.1,1-1.8,1.3c-0.7,0.3-1.6,0.4-2.6,0.4h-5.6c-1,0-1.9-0.1-2.6-0.4
			c-0.7-0.2-1.3-0.7-1.8-1.3c-0.5-0.6-0.8-1.3-1-2.3c-0.1-0.4-0.2-0.9-0.2-1.5s-0.1-1.1-0.1-1.8V35c0-1.3,0.1-2.4,0.3-3.3
			c0.2-0.9,0.5-1.7,1-2.3c0.5-0.6,1.1-1,1.8-1.3c0.7-0.3,1.6-0.4,2.6-0.4h5.6c1,0,1.9,0.1,2.6,0.4C77.1,28.5,77.7,28.9,78.2,29.5z
			 M76.1,34.7c0-0.3,0-0.6,0-0.9c0-0.3,0-0.5-0.1-0.8c-0.1-0.4-0.2-0.8-0.4-1c-0.2-0.2-0.4-0.4-0.7-0.5c-0.2,0-0.3-0.1-0.5-0.1
			c-0.2,0-0.4,0-0.7,0h-5.4c-0.2,0-0.5,0-0.7,0c-0.2,0-0.4,0.1-0.5,0.1c-0.3,0.1-0.5,0.3-0.7,0.5c-0.2,0.2-0.3,0.6-0.4,1
			c0,0.2-0.1,0.5-0.1,0.8c0,0.3,0,0.6,0,0.9V40c0,0.3,0,0.6,0,0.9c0,0.3,0,0.5,0.1,0.8c0,0.2,0.1,0.4,0.2,0.6
			c0.1,0.2,0.1,0.3,0.2,0.4c0.2,0.2,0.4,0.4,0.7,0.5c0.3,0.1,0.7,0.2,1.2,0.2h5.4c0.5,0,0.9-0.1,1.2-0.2c0.3-0.1,0.5-0.3,0.7-0.5
			c0.2-0.2,0.3-0.6,0.4-1c0-0.2,0.1-0.5,0.1-0.8c0-0.3,0-0.6,0-0.9V34.7z"/>
		<path class="st0" d="M100.9,45.8c0.1,0.1,0.1,0.3,0.1,0.6c0,0.3-0.2,0.5-0.5,0.5h-2.5c-0.2,0-0.4,0-0.5-0.1c0,0-0.1-0.1-0.1-0.1
			s-0.1-0.1-0.1-0.2L93,39h-4.9v7c0,0.4-0.1,0.6-0.2,0.7c-0.2,0.1-0.3,0.1-0.4,0.1h-2.1c-0.1,0-0.2,0-0.4-0.1
			c-0.2-0.1-0.3-0.3-0.3-0.7v-9.7c0-0.4,0.1-0.6,0.3-0.7c0.2-0.1,0.3-0.1,0.4-0.1h10c0.6,0,1-0.2,1.2-0.5c0.2-0.3,0.4-0.9,0.4-1.7
			s-0.1-1.3-0.4-1.7c-0.2-0.3-0.6-0.5-1.2-0.5h-10c-0.1,0-0.2,0-0.4-0.1c-0.2-0.1-0.3-0.3-0.3-0.7v-1.8c0-0.4,0.1-0.6,0.3-0.7
			c0.2-0.1,0.3-0.1,0.4-0.1H96c1.6,0,2.7,0.5,3.4,1.5c0.7,1,1,2.3,1,4.1c0,1.8-0.4,3.1-1,4.1c-0.6,0.8-1.4,1.3-2.6,1.4L100.9,45.8z
			 M100.4,33.5L100.4,33.5v-0.1V33.5z"/>
		<path class="st0" d="M109.4,28c0.2,0.1,0.3,0.3,0.3,0.7V46c0,0.4-0.1,0.6-0.3,0.7c-0.2,0.1-0.3,0.1-0.4,0.1h-2.1
			c-0.1,0-0.2,0-0.4-0.1c-0.2-0.1-0.3-0.3-0.3-0.7V28.7c0-0.4,0.1-0.6,0.3-0.7c0.2-0.1,0.3-0.1,0.4-0.1h2.1
			C109.1,27.9,109.3,27.9,109.4,28z"/>
		<path class="st0" d="M129,27.9c0.2,0.1,0.4,0.2,0.6,0.3c0.2,0.2,0.3,0.4,0.4,0.7c0.1,0.3,0.2,0.7,0.2,1.1v2.6c0,0.2,0,0.3,0,0.4
			c0,0.1,0,0.2,0,0.3c0,0.1,0,0.2-0.1,0.3c0,0.1-0.1,0.2-0.1,0.3c-0.1,0.2-0.2,0.4-0.3,0.5c-0.2,0.2-0.3,0.3-0.5,0.4l-10.6,7.7
			c0,0,0,0,0,0v0.8c0,0,0,0.1,0.1,0.1h10.9c0.1,0,0.2,0,0.4,0.1c0.2,0.1,0.3,0.3,0.3,0.7V46c0,0.4-0.1,0.6-0.3,0.7
			c-0.2,0.1-0.3,0.1-0.4,0.1h-12.6c-0.6,0-1.1-0.2-1.4-0.6c-0.3-0.4-0.4-0.9-0.4-1.6v-2.5c0-0.2,0-0.3,0-0.4c0-0.1,0-0.2,0-0.3
			c0-0.3,0.1-0.5,0.2-0.6c0.1-0.2,0.2-0.4,0.3-0.5c0.1-0.1,0.3-0.3,0.5-0.4l10.7-7.7c0,0,0,0,0,0v-0.7c0,0,0-0.1-0.1-0.1h-10.9
			c-0.1,0-0.2,0-0.4-0.1c-0.2-0.1-0.3-0.3-0.3-0.7v-1.8c0-0.4,0.1-0.6,0.3-0.7c0.2-0.1,0.3-0.1,0.4-0.1h12.6
			C128.6,27.9,128.8,27.9,129,27.9z"/>
		<path class="st0" d="M151,29.5c0.4,0.6,0.8,1.3,1,2.3c0.1,0.4,0.2,0.9,0.2,1.5c0.1,0.5,0.1,1.1,0.1,1.8v4.6c0,0.6,0,1.2-0.1,1.8
			c-0.1,0.6-0.1,1-0.2,1.5c-0.2,0.9-0.5,1.7-1,2.3c-0.5,0.6-1.1,1-1.8,1.3c-0.7,0.3-1.6,0.4-2.6,0.4H141c-1,0-1.9-0.1-2.6-0.4
			c-0.7-0.2-1.3-0.7-1.8-1.3c-0.5-0.6-0.8-1.3-1-2.3c-0.1-0.4-0.2-0.9-0.2-1.5s-0.1-1.1-0.1-1.8V35c0-1.3,0.1-2.4,0.3-3.3
			c0.2-0.9,0.5-1.7,1-2.3c0.5-0.6,1.1-1,1.8-1.3c0.7-0.3,1.6-0.4,2.6-0.4h5.6c1,0,1.9,0.1,2.6,0.4C150,28.5,150.6,28.9,151,29.5z
			 M148.9,34.7c0-0.3,0-0.6,0-0.9c0-0.3,0-0.5-0.1-0.8c-0.1-0.4-0.2-0.8-0.4-1c-0.2-0.2-0.4-0.4-0.7-0.5c-0.2,0-0.3-0.1-0.5-0.1
			c-0.2,0-0.4,0-0.7,0h-5.4c-0.2,0-0.5,0-0.7,0c-0.2,0-0.4,0.1-0.5,0.1c-0.3,0.1-0.5,0.3-0.7,0.5c-0.2,0.2-0.3,0.6-0.4,1
			c0,0.2-0.1,0.5-0.1,0.8c0,0.3,0,0.6,0,0.9V40c0,0.3,0,0.6,0,0.9c0,0.3,0,0.5,0.1,0.8c0,0.2,0.1,0.4,0.2,0.6
			c0.1,0.2,0.1,0.3,0.2,0.4c0.2,0.2,0.4,0.4,0.7,0.5c0.3,0.1,0.7,0.2,1.2,0.2h5.4c0.5,0,0.9-0.1,1.2-0.2c0.3-0.1,0.5-0.3,0.7-0.5
			c0.2-0.2,0.3-0.6,0.4-1c0-0.2,0.1-0.5,0.1-0.8c0-0.3,0-0.6,0-0.9V34.7z"/>
		<path class="st0" d="M174.3,28c0.2,0.1,0.3,0.3,0.3,0.7v15.2c0,1.1-0.2,1.9-0.5,2.3c-0.3,0.4-0.8,0.7-1.5,0.7h-1.7
			c-0.3,0-0.6,0-0.8-0.1c-0.3,0-0.5-0.1-0.6-0.3c-0.2-0.1-0.4-0.3-0.5-0.5c-0.1-0.1-0.2-0.2-0.3-0.4c-0.1-0.1-0.2-0.3-0.3-0.5
			l-7.3-12.9c0,0,0,0,0,0c0,0,0,0,0,0h0H161v0V46c0,0.4-0.1,0.6-0.2,0.7c-0.2,0.1-0.3,0.1-0.4,0.1h-2c-0.1,0-0.2,0-0.4-0.1
			c-0.2-0.1-0.3-0.3-0.3-0.7V30.8c0-1.1,0.2-1.9,0.5-2.3c0.3-0.4,0.8-0.6,1.5-0.6h1.7c0.2,0,0.3,0,0.4,0c0.1,0,0.3,0,0.4,0
			c0.2,0,0.5,0.1,0.6,0.3c0.2,0.1,0.3,0.3,0.5,0.5c0.1,0.1,0.2,0.2,0.2,0.4c0.1,0.1,0.2,0.3,0.3,0.5l7.3,12.9c0,0,0,0.1,0.1,0.1h0.1
			v0V28.7c0-0.4,0.1-0.6,0.2-0.7c0.2-0.1,0.3-0.1,0.4-0.1h2C174,27.9,174.1,27.9,174.3,28z"/>
	</g>
	<g>
		<g>
			
				<linearGradient id="SVGID_1_" gradientUnits="userSpaceOnUse" x1="1091.9232" y1="12.059" x2="1086.3805" y2="8.1528" gradientTransform="matrix(0.7071 -0.7071 -0.7071 -0.7071 -603.5351 796.889)">
				<stop  offset="0" style="stop-color:#791256"/>
				<stop  offset="7.626313e-02" style="stop-color:#831358"/>
				<stop  offset="1" style="stop-color:#FF246D"/>
			</linearGradient>
			<path class="st1" d="M162.1,21.7c-0.1,0.2-0.3,0.3-0.4,0.5c-0.1,0.1-0.1,0.1-0.2,0.2c-1.9,1.9-5.2,0.5-5.2-2.2v-3.1
				c0,0,0.2,0,2.3,0c2.1,0,6.1,0.8,3.8,4.2c0,0,0,0,0,0L162.1,21.7z"/>
			
				<linearGradient id="SVGID_2_" gradientUnits="userSpaceOnUse" x1="1090.0095" y1="15.1038" x2="1083.8948" y2="21.2649" gradientTransform="matrix(0.7071 -0.7071 -0.7071 -0.7071 -603.5351 796.889)">
				<stop  offset="0" style="stop-color:#FF246D"/>
				<stop  offset="0.9237" style="stop-color:#831358"/>
				<stop  offset="1" style="stop-color:#791256"/>
			</linearGradient>
			<path class="st2" d="M162.4,21.3c2.3-3.5-1.7-4.2-3.8-4.2c-2.1,0-2.3,0-2.3,0h-3.1c-2.7,0-4.1-3.3-2.2-5.2c0,0,0,0,0,0
				c2.9-2.9,7.7-2.9,10.5,0.1C164.1,14.5,164.4,18.4,162.4,21.3z"/>
			
				<linearGradient id="SVGID_3_" gradientUnits="userSpaceOnUse" x1="1088.0978" y1="21.4784" x2="1096.3854" y2="12.4518" gradientTransform="matrix(0.7071 -0.7071 -0.7071 -0.7071 -603.5351 796.889)">
				<stop  offset="0" style="stop-color:#791256"/>
				<stop  offset="7.626313e-02" style="stop-color:#831358"/>
				<stop  offset="1" style="stop-color:#FF246D"/>
			</linearGradient>
			<path class="st3" d="M163.5,15.2C163.5,15.2,163.5,15.2,163.5,15.2c-3.3-3.5-11-2.6-13,0c-0.4-1.1-0.3-2.3,0.6-3.3c0,0,0,0,0,0
				c2.9-2.9,7.7-2.9,10.5,0.1C162.5,12.9,163.1,14,163.5,15.2z"/>
		</g>
		<g>
			
				<linearGradient id="SVGID_4_" gradientUnits="userSpaceOnUse" x1="178.0996" y1="173.8551" x2="167.6686" y2="163.0752" gradientTransform="matrix(0.7071 -0.7071 0.7071 0.7071 -83.724 15.3824)">
				<stop  offset="0" style="stop-color:#791256"/>
				<stop  offset="1" style="stop-color:#BF1B62"/>
			</linearGradient>
			<path class="st4" d="M171.2,24.9c1.7,0,3-1.4,3-3V6.1V0.1l-6.1,0l-15.8,0c-1.7,0-3,1.4-3,3l0,0c0,1.7,1.4,3,3,3l7.7,0
				c4.5,0,8.1,3.6,8.1,8.1v7.7C168.1,23.6,169.5,24.9,171.2,24.9L171.2,24.9z"/>
			
				<linearGradient id="SVGID_5_" gradientUnits="userSpaceOnUse" x1="176.275" y1="173.1158" x2="165.0216" y2="184.4545" gradientTransform="matrix(0.7071 -0.7071 0.7071 0.7071 -83.724 15.3824)">
				<stop  offset="0" style="stop-color:#FF246D"/>
				<stop  offset="0.9237" style="stop-color:#831358"/>
				<stop  offset="1" style="stop-color:#791256"/>
			</linearGradient>
			<path class="st5" d="M168.1,13.2c0,0.1,0,0.2,0,0.2c0,0.1,0,0.1,0,0.2c0,0.2,0,0.4,0,0.6v7.7c0,1.7,1.4,3,3,3s3-1.4,3-3l0-15.8
				V0.1l-6.1,0l-15.8,0C158.3,0.1,168.1,4.3,168.1,13.2z"/>
		</g>
	</g>
	<linearGradient id="SVGID_6_" gradientUnits="userSpaceOnUse" x1="0.2018" y1="38.1115" x2="37.2018" y2="38.1115">
		<stop  offset="0" style="stop-color:#FF246D"/>
		<stop  offset="0.9237" style="stop-color:#831358"/>
		<stop  offset="1" style="stop-color:#791256"/>
	</linearGradient>
	<rect x="0.2" y="35.6" class="st6" width="37" height="5"/>
	<linearGradient id="SVGID_7_" gradientUnits="userSpaceOnUse" x1="0.2018" y1="31.1115" x2="37.2018" y2="31.1115">
		<stop  offset="0" style="stop-color:#FF246D"/>
		<stop  offset="0.9237" style="stop-color:#831358"/>
		<stop  offset="1" style="stop-color:#791256"/>
	</linearGradient>
	<rect x="0.2" y="28.6" class="st7" width="37" height="5"/>
	<linearGradient id="SVGID_8_" gradientUnits="userSpaceOnUse" x1="0.2018" y1="45.1115" x2="37.2018" y2="45.1115">
		<stop  offset="0" style="stop-color:#FF246D"/>
		<stop  offset="0.9237" style="stop-color:#831358"/>
		<stop  offset="1" style="stop-color:#791256"/>
	</linearGradient>
	<rect x="0.2" y="42.6" class="st8" width="37" height="5"/>
</g>
</svg>
