<svg width="60" height="60" viewBox="0 0 60 60" fill="none" xmlns="http://www.w3.org/2000/svg">
<path d="M36.5625 28.125H32.8125V30H36.5625V28.125Z" fill="url(#paint0_linear_1_16)"/>
<path d="M39.375 24.375H32.8125V26.25H39.375V24.375Z" fill="url(#paint1_linear_1_16)"/>
<path d="M23.4375 31.875H29.0625C29.8084 31.875 30.5238 32.1713 31.0512 32.6988C31.5787 33.2262 31.875 33.9416 31.875 34.6875V36.5625H30V34.6875C30 34.4389 29.9012 34.2004 29.7254 34.0246C29.5496 33.8488 29.3111 33.75 29.0625 33.75H23.4375C23.1889 33.75 22.9504 33.8488 22.7746 34.0246C22.5988 34.2004 22.5 34.4389 22.5 34.6875V36.5625H20.625V34.6875C20.625 33.9416 20.9213 33.2262 21.4488 32.6988C21.9762 32.1713 22.6916 31.875 23.4375 31.875Z" fill="url(#paint2_linear_1_16)"/>
<path d="M30 27.1875C30 26.4458 29.7801 25.7208 29.368 25.1041C28.956 24.4874 28.3703 24.0068 27.6851 23.723C26.9998 23.4391 26.2458 23.3649 25.5184 23.5096C24.791 23.6542 24.1228 24.0114 23.5983 24.5358C23.0739 25.0603 22.7167 25.7285 22.5721 26.4559C22.4274 27.1833 22.5016 27.9373 22.7855 28.6226C23.0693 29.3078 23.5499 29.8935 24.1666 30.3055C24.7833 30.7176 25.5083 30.9375 26.25 30.9375C27.2446 30.9375 28.1984 30.5424 28.9017 29.8392C29.6049 29.1359 30 28.1821 30 27.1875ZM28.125 27.1875C28.125 27.5583 28.015 27.9209 27.809 28.2292C27.603 28.5375 27.3101 28.7779 26.9675 28.9198C26.6249 29.0617 26.2479 29.0988 25.8842 29.0265C25.5205 28.9541 25.1864 28.7755 24.9242 28.5133C24.662 28.2511 24.4834 27.917 24.411 27.5533C24.3387 27.1896 24.3758 26.8126 24.5177 26.47C24.6596 26.1274 24.9 25.8345 25.2083 25.6285C25.5166 25.4225 25.8792 25.3125 26.25 25.3125C26.7473 25.3125 27.2242 25.51 27.5758 25.8617C27.9275 26.2133 28.125 26.6902 28.125 27.1875Z" fill="url(#paint3_linear_1_16)"/>
<path d="M31.875 39.375H18.75V20.625H41.25V30H43.125V20.625C43.125 20.1277 42.9275 19.6508 42.5758 19.2992C42.2242 18.9475 41.7473 18.75 41.25 18.75H18.75C18.2527 18.75 17.7758 18.9475 17.4242 19.2992C17.0725 19.6508 16.875 20.1277 16.875 20.625V39.375C16.875 39.8723 17.0725 40.3492 17.4242 40.7008C17.7758 41.0525 18.2527 41.25 18.75 41.25H31.875V39.375Z" fill="url(#paint4_linear_1_16)"/>
<path d="M33.75 36.5625L35.0756 37.8881L37.5 35.4637V43.125H39.375V35.4637L41.7994 37.8881L43.125 36.5625L38.4375 31.875L33.75 36.5625Z" fill="url(#paint5_linear_1_16)"/>
<rect x="0.5" y="0.5" width="59" height="59" rx="7.5" stroke="url(#paint6_linear_1_16)"/>
<defs>
<linearGradient id="paint0_linear_1_16" x1="16.875" y1="30.9375" x2="43.125" y2="30.9375" gradientUnits="userSpaceOnUse">
<stop stop-color="#EB9191"/>
<stop offset="1" stop-color="#5A5AE1"/>
</linearGradient>
<linearGradient id="paint1_linear_1_16" x1="16.875" y1="30.9375" x2="43.125" y2="30.9375" gradientUnits="userSpaceOnUse">
<stop stop-color="#EB9191"/>
<stop offset="1" stop-color="#5A5AE1"/>
</linearGradient>
<linearGradient id="paint2_linear_1_16" x1="16.875" y1="30.9375" x2="43.125" y2="30.9375" gradientUnits="userSpaceOnUse">
<stop stop-color="#EB9191"/>
<stop offset="1" stop-color="#5A5AE1"/>
</linearGradient>
<linearGradient id="paint3_linear_1_16" x1="16.875" y1="30.9375" x2="43.125" y2="30.9375" gradientUnits="userSpaceOnUse">
<stop stop-color="#EB9191"/>
<stop offset="1" stop-color="#5A5AE1"/>
</linearGradient>
<linearGradient id="paint4_linear_1_16" x1="16.875" y1="30.9375" x2="43.125" y2="30.9375" gradientUnits="userSpaceOnUse">
<stop stop-color="#EB9191"/>
<stop offset="1" stop-color="#5A5AE1"/>
</linearGradient>
<linearGradient id="paint5_linear_1_16" x1="16.875" y1="30.9375" x2="43.125" y2="30.9375" gradientUnits="userSpaceOnUse">
<stop stop-color="#EB9191"/>
<stop offset="1" stop-color="#5A5AE1"/>
</linearGradient>
<linearGradient id="paint6_linear_1_16" x1="0" y1="30" x2="60" y2="30" gradientUnits="userSpaceOnUse">
<stop stop-color="#EB9191"/>
<stop offset="1" stop-color="#5A5AE1"/>
</linearGradient>
</defs>
</svg>
