<svg width="60" height="60" viewBox="0 0 60 60" fill="none" xmlns="http://www.w3.org/2000/svg">
<path d="M30 31.875H20.625C20.1277 31.875 19.6508 31.6775 19.2992 31.3258C18.9475 30.9742 18.75 30.4973 18.75 30V20.625C18.75 20.1277 18.9475 19.6508 19.2992 19.2992C19.6508 18.9475 20.1277 18.75 20.625 18.75H30C30.4973 18.75 30.9742 18.9475 31.3258 19.2992C31.6775 19.6508 31.875 20.1277 31.875 20.625V30C31.875 30.4973 31.6775 30.9742 31.3258 31.3258C30.9742 31.6775 30.4973 31.875 30 31.875ZM20.625 20.625V30H30V20.625H20.625Z" fill="url(#paint0_linear_1_24)"/>
<path d="M39.375 26.25V30H35.625V26.25H39.375ZM39.375 24.375H35.625C35.1277 24.375 34.6508 24.5725 34.2992 24.9242C33.9475 25.2758 33.75 25.7527 33.75 26.25V30C33.75 30.4973 33.9475 30.9742 34.2992 31.3258C34.6508 31.6775 35.1277 31.875 35.625 31.875H39.375C39.8723 31.875 40.3492 31.6775 40.7008 31.3258C41.0525 30.9742 41.25 30.4973 41.25 30V26.25C41.25 25.7527 41.0525 25.2758 40.7008 24.9242C40.3492 24.5725 39.8723 24.375 39.375 24.375Z" fill="url(#paint1_linear_1_24)"/>
<path d="M39.375 35.625V39.375H35.625V35.625H39.375ZM39.375 33.75H35.625C35.1277 33.75 34.6508 33.9475 34.2992 34.2992C33.9475 34.6508 33.75 35.1277 33.75 35.625V39.375C33.75 39.8723 33.9475 40.3492 34.2992 40.7008C34.6508 41.0525 35.1277 41.25 35.625 41.25H39.375C39.8723 41.25 40.3492 41.0525 40.7008 40.7008C41.0525 40.3492 41.25 39.8723 41.25 39.375V35.625C41.25 35.1277 41.0525 34.6508 40.7008 34.2992C40.3492 33.9475 39.8723 33.75 39.375 33.75Z" fill="url(#paint2_linear_1_24)"/>
<path d="M30 35.625V39.375H26.25V35.625H30ZM30 33.75H26.25C25.7527 33.75 25.2758 33.9475 24.9242 34.2992C24.5725 34.6508 24.375 35.1277 24.375 35.625V39.375C24.375 39.8723 24.5725 40.3492 24.9242 40.7008C25.2758 41.0525 25.7527 41.25 26.25 41.25H30C30.4973 41.25 30.9742 41.0525 31.3258 40.7008C31.6775 40.3492 31.875 39.8723 31.875 39.375V35.625C31.875 35.1277 31.6775 34.6508 31.3258 34.2992C30.9742 33.9475 30.4973 33.75 30 33.75Z" fill="url(#paint3_linear_1_24)"/>
<rect x="0.5" y="0.5" width="59" height="59" rx="7.5" stroke="url(#paint4_linear_1_24)"/>
<defs>
<linearGradient id="paint0_linear_1_24" x1="18.75" y1="30" x2="41.25" y2="30" gradientUnits="userSpaceOnUse">
<stop stop-color="#EB9191"/>
<stop offset="1" stop-color="#5A5AE1"/>
</linearGradient>
<linearGradient id="paint1_linear_1_24" x1="18.75" y1="30" x2="41.25" y2="30" gradientUnits="userSpaceOnUse">
<stop stop-color="#EB9191"/>
<stop offset="1" stop-color="#5A5AE1"/>
</linearGradient>
<linearGradient id="paint2_linear_1_24" x1="18.75" y1="30" x2="41.25" y2="30" gradientUnits="userSpaceOnUse">
<stop stop-color="#EB9191"/>
<stop offset="1" stop-color="#5A5AE1"/>
</linearGradient>
<linearGradient id="paint3_linear_1_24" x1="18.75" y1="30" x2="41.25" y2="30" gradientUnits="userSpaceOnUse">
<stop stop-color="#EB9191"/>
<stop offset="1" stop-color="#5A5AE1"/>
</linearGradient>
<linearGradient id="paint4_linear_1_24" x1="0" y1="30" x2="60" y2="30" gradientUnits="userSpaceOnUse">
<stop stop-color="#EB9191"/>
<stop offset="1" stop-color="#5A5AE1"/>
</linearGradient>
</defs>
</svg>
