<svg width="60" height="60" viewBox="0 0 60 60" fill="none" xmlns="http://www.w3.org/2000/svg">
<path d="M39.375 28.125H37.5V30H39.375C40.1207 30.0008 40.8356 30.2974 41.3628 30.8247C41.8901 31.3519 42.1867 32.0668 42.1875 32.8125V36.5625H44.0625V32.8125C44.0611 31.5697 43.5667 30.3783 42.688 29.4995C41.8092 28.6208 40.6178 28.1264 39.375 28.125Z" fill="url(#paint0_linear_1_20)"/>
<path d="M37.5 18.75C38.0563 18.75 38.6 18.915 39.0625 19.224C39.5251 19.533 39.8855 19.9723 40.0984 20.4862C40.3113 21.0001 40.367 21.5656 40.2585 22.1112C40.1499 22.6568 39.8821 23.1579 39.4887 23.5512C39.0954 23.9446 38.5943 24.2124 38.0487 24.321C37.5031 24.4295 36.9376 24.3738 36.4237 24.1609C35.9098 23.948 35.4705 23.5876 35.1615 23.125C34.8524 22.6625 34.6875 22.1188 34.6875 21.5625C34.6875 20.8166 34.9838 20.1012 35.5113 19.5738C36.0387 19.0463 36.7541 18.75 37.5 18.75ZM37.5 16.875C36.5729 16.875 35.6666 17.1499 34.8958 17.665C34.1249 18.1801 33.5241 18.9121 33.1693 19.7687C32.8145 20.6252 32.7217 21.5677 32.9026 22.477C33.0834 23.3863 33.5299 24.2215 34.1854 24.8771C34.841 25.5326 35.6762 25.9791 36.5855 26.1599C37.4948 26.3408 38.4373 26.248 39.2938 25.8932C40.1504 25.5384 40.8824 24.9376 41.3975 24.1667C41.9126 23.3959 42.1875 22.4896 42.1875 21.5625C42.1875 20.3193 41.6936 19.127 40.8146 18.2479C39.9355 17.3689 38.7432 16.875 37.5 16.875Z" fill="url(#paint1_linear_1_20)"/>
<path d="M36.5625 43.125H34.6875V41.25C34.6867 40.5043 34.3901 39.7894 33.8628 39.2622C33.3356 38.7349 32.6207 38.4383 31.875 38.4375H28.125C27.3793 38.4383 26.6644 38.7349 26.1372 39.2622C25.6099 39.7894 25.3133 40.5043 25.3125 41.25V43.125H23.4375V41.25C23.439 40.0072 23.9333 38.8158 24.8121 37.9371C25.6908 37.0583 26.8822 36.564 28.125 36.5625H31.875C33.1178 36.564 34.3092 37.0583 35.1879 37.9371C36.0667 38.8158 36.561 40.0072 36.5625 41.25V43.125Z" fill="url(#paint2_linear_1_20)"/>
<path d="M30 27.1875C30.5563 27.1875 31.1 27.3525 31.5625 27.6615C32.0251 27.9705 32.3855 28.4098 32.5984 28.9237C32.8113 29.4376 32.867 30.0031 32.7585 30.5487C32.6499 31.0943 32.3821 31.5954 31.9887 31.9887C31.5954 32.3821 31.0943 32.6499 30.5487 32.7585C30.0031 32.867 29.4376 32.8113 28.9237 32.5984C28.4098 32.3855 27.9705 32.0251 27.6615 31.5625C27.3525 31.1 27.1875 30.5563 27.1875 30C27.1875 29.2541 27.4838 28.5387 28.0113 28.0113C28.5387 27.4838 29.2541 27.1875 30 27.1875ZM30 25.3125C29.0729 25.3125 28.1666 25.5874 27.3958 26.1025C26.6249 26.6176 26.0241 27.3496 25.6693 28.2062C25.3145 29.0627 25.2217 30.0052 25.4026 30.9145C25.5834 31.8238 26.0299 32.659 26.6854 33.3146C27.341 33.9701 28.1762 34.4166 29.0855 34.5974C29.9948 34.7783 30.9373 34.6855 31.7938 34.3307C32.6504 33.9759 33.3824 33.3751 33.8975 32.6042C34.4126 31.8334 34.6875 30.9271 34.6875 30C34.6875 28.7568 34.1936 27.5645 33.3146 26.6854C32.4355 25.8064 31.2432 25.3125 30 25.3125Z" fill="url(#paint3_linear_1_20)"/>
<path d="M22.5 28.125H20.625C19.3822 28.1265 18.1908 28.6208 17.3121 29.4996C16.4333 30.3783 15.939 31.5697 15.9375 32.8125V36.5625H17.8125V32.8125C17.8133 32.0668 18.1099 31.3519 18.6372 30.8247C19.1644 30.2974 19.8793 30.0008 20.625 30H22.5V28.125Z" fill="url(#paint4_linear_1_20)"/>
<path d="M22.5 18.75C23.0563 18.75 23.6 18.915 24.0625 19.224C24.5251 19.533 24.8855 19.9723 25.0984 20.4862C25.3113 21.0001 25.367 21.5656 25.2585 22.1112C25.1499 22.6568 24.8821 23.1579 24.4887 23.5512C24.0954 23.9446 23.5943 24.2124 23.0487 24.321C22.5031 24.4295 21.9376 24.3738 21.4237 24.1609C20.9098 23.948 20.4705 23.5876 20.1615 23.125C19.8525 22.6625 19.6875 22.1188 19.6875 21.5625C19.6875 20.8166 19.9838 20.1012 20.5113 19.5738C21.0387 19.0463 21.7541 18.75 22.5 18.75ZM22.5 16.875C21.5729 16.875 20.6666 17.1499 19.8958 17.665C19.1249 18.1801 18.5241 18.9121 18.1693 19.7687C17.8145 20.6252 17.7217 21.5677 17.9026 22.477C18.0834 23.3863 18.5299 24.2215 19.1854 24.8771C19.841 25.5326 20.6762 25.9791 21.5855 26.1599C22.4948 26.3408 23.4373 26.248 24.2938 25.8932C25.1504 25.5384 25.8824 24.9376 26.3975 24.1667C26.9126 23.3959 27.1875 22.4896 27.1875 21.5625C27.1875 20.3193 26.6936 19.127 25.8146 18.2479C24.9355 17.3689 23.7432 16.875 22.5 16.875Z" fill="url(#paint5_linear_1_20)"/>
<rect x="0.5" y="0.5" width="59" height="59" rx="7.5" stroke="url(#paint6_linear_1_20)"/>
<defs>
<linearGradient id="paint0_linear_1_20" x1="15.9375" y1="30" x2="44.0625" y2="30" gradientUnits="userSpaceOnUse">
<stop stop-color="#EB9191"/>
<stop offset="1" stop-color="#5A5AE1"/>
</linearGradient>
<linearGradient id="paint1_linear_1_20" x1="15.9375" y1="30" x2="44.0625" y2="30" gradientUnits="userSpaceOnUse">
<stop stop-color="#EB9191"/>
<stop offset="1" stop-color="#5A5AE1"/>
</linearGradient>
<linearGradient id="paint2_linear_1_20" x1="15.9375" y1="30" x2="44.0625" y2="30" gradientUnits="userSpaceOnUse">
<stop stop-color="#EB9191"/>
<stop offset="1" stop-color="#5A5AE1"/>
</linearGradient>
<linearGradient id="paint3_linear_1_20" x1="15.9375" y1="30" x2="44.0625" y2="30" gradientUnits="userSpaceOnUse">
<stop stop-color="#EB9191"/>
<stop offset="1" stop-color="#5A5AE1"/>
</linearGradient>
<linearGradient id="paint4_linear_1_20" x1="15.9375" y1="30" x2="44.0625" y2="30" gradientUnits="userSpaceOnUse">
<stop stop-color="#EB9191"/>
<stop offset="1" stop-color="#5A5AE1"/>
</linearGradient>
<linearGradient id="paint5_linear_1_20" x1="15.9375" y1="30" x2="44.0625" y2="30" gradientUnits="userSpaceOnUse">
<stop stop-color="#EB9191"/>
<stop offset="1" stop-color="#5A5AE1"/>
</linearGradient>
<linearGradient id="paint6_linear_1_20" x1="0" y1="30" x2="60" y2="30" gradientUnits="userSpaceOnUse">
<stop stop-color="#EB9191"/>
<stop offset="1" stop-color="#5A5AE1"/>
</linearGradient>
</defs>
</svg>
