<svg width="60" height="60" viewBox="0 0 60 60" fill="none" xmlns="http://www.w3.org/2000/svg">
<path d="M36.5625 16.875L38.0559 19.6875L41.25 20.0756L38.9062 22.1878L39.375 25.3125L36.5625 23.5547L33.75 25.3125L34.2187 22.1878L31.875 20.0756L35.1562 19.6875L36.5625 16.875Z" fill="url(#paint0_linear_1_26)"/>
<path d="M36.297 27.4209L34.4806 26.9541C34.155 28.2087 33.4648 29.3387 32.4973 30.2013C31.5297 31.0639 30.3282 31.6203 29.0446 31.8004C27.761 31.9804 26.4527 31.776 25.2852 31.2129C24.1177 30.6498 23.1433 29.7533 22.4851 28.6367C21.8268 27.52 21.5143 26.2333 21.587 24.9392C21.6597 23.645 22.1144 22.4014 22.8935 21.3655C23.6726 20.3296 24.7413 19.5478 25.9646 19.119C27.1878 18.6902 28.5107 18.6336 29.7661 18.9562L30.2339 17.1408C28.4042 16.6655 26.4679 16.8192 24.7361 17.5771C23.0043 18.335 21.5776 19.6531 20.6852 21.3196C19.7928 22.9861 19.4866 24.9042 19.8157 26.7657C20.1448 28.6272 21.0902 30.324 22.5 31.5834V43.125L28.125 39.375L33.75 43.125V31.6011C34.995 30.4913 35.8816 29.0362 36.297 27.4209ZM31.875 39.6213L28.125 37.1214L24.375 39.6213V32.8594C25.5384 33.4439 26.8223 33.7488 28.1243 33.7498C29.4263 33.7508 30.7106 33.4479 31.875 32.8652V39.6213Z" fill="url(#paint1_linear_1_26)"/>
<rect x="0.5" y="0.5" width="59" height="59" rx="7.5" stroke="url(#paint2_linear_1_26)"/>
<defs>
<linearGradient id="paint0_linear_1_26" x1="19.687" y1="29.9976" x2="41.25" y2="29.9976" gradientUnits="userSpaceOnUse">
<stop stop-color="#EB9191"/>
<stop offset="1" stop-color="#5A5AE1"/>
</linearGradient>
<linearGradient id="paint1_linear_1_26" x1="19.687" y1="29.9976" x2="41.25" y2="29.9976" gradientUnits="userSpaceOnUse">
<stop stop-color="#EB9191"/>
<stop offset="1" stop-color="#5A5AE1"/>
</linearGradient>
<linearGradient id="paint2_linear_1_26" x1="0" y1="30" x2="60" y2="30" gradientUnits="userSpaceOnUse">
<stop stop-color="#EB9191"/>
<stop offset="1" stop-color="#5A5AE1"/>
</linearGradient>
</defs>
</svg>
