<svg width="60" height="60" viewBox="0 0 60 60" fill="none" xmlns="http://www.w3.org/2000/svg">
<path d="M24.375 43.125H22.5V40.3125H18.75V43.125H16.875V40.3125C16.8756 39.8154 17.0733 39.3388 17.4248 38.9873C17.7763 38.6358 18.2529 38.4381 18.75 38.4375H22.5C22.9971 38.4381 23.4737 38.6358 23.8252 38.9873C24.1767 39.3388 24.3744 39.8154 24.375 40.3125V43.125Z" fill="url(#paint0_linear_1_22)"/>
<path d="M43.125 43.125H41.25V40.3125H37.5V43.125H35.625V40.3125C35.6256 39.8154 35.8233 39.3388 36.1748 38.9873C36.5263 38.6358 37.0029 38.4381 37.5 38.4375H41.25C41.7471 38.4381 42.2237 38.6358 42.5752 38.9873C42.9267 39.3388 43.1244 39.8154 43.125 40.3125V43.125Z" fill="url(#paint1_linear_1_22)"/>
<path d="M33.75 43.125H31.875V40.3125H28.125V43.125H26.25V40.3125C26.2506 39.8154 26.4483 39.3388 26.7998 38.9873C27.1513 38.6358 27.6279 38.4381 28.125 38.4375H31.875C32.3721 38.4381 32.8487 38.6358 33.2002 38.9873C33.5517 39.3388 33.7494 39.8154 33.75 40.3125V43.125Z" fill="url(#paint2_linear_1_22)"/>
<path d="M30 37.5C31.0355 37.5 31.875 36.6605 31.875 35.625C31.875 34.5895 31.0355 33.75 30 33.75C28.9645 33.75 28.125 34.5895 28.125 35.625C28.125 36.6605 28.9645 37.5 30 37.5Z" fill="url(#paint3_linear_1_22)"/>
<path d="M20.625 37.5C21.6605 37.5 22.5 36.6605 22.5 35.625C22.5 34.5895 21.6605 33.75 20.625 33.75C19.5895 33.75 18.75 34.5895 18.75 35.625C18.75 36.6605 19.5895 37.5 20.625 37.5Z" fill="url(#paint4_linear_1_22)"/>
<path d="M39.375 37.5C40.4105 37.5 41.25 36.6605 41.25 35.625C41.25 34.5895 40.4105 33.75 39.375 33.75C38.3395 33.75 37.5 34.5895 37.5 35.625C37.5 36.6605 38.3395 37.5 39.375 37.5Z" fill="url(#paint5_linear_1_22)"/>
<path d="M34.6875 33.75C35.723 33.75 36.5625 32.9105 36.5625 31.875C36.5625 30.8395 35.723 30 34.6875 30C33.652 30 32.8125 30.8395 32.8125 31.875C32.8125 32.9105 33.652 33.75 34.6875 33.75Z" fill="url(#paint6_linear_1_22)"/>
<path d="M25.3125 33.75C26.348 33.75 27.1875 32.9105 27.1875 31.875C27.1875 30.8395 26.348 30 25.3125 30C24.277 30 23.4375 30.8395 23.4375 31.875C23.4375 32.9105 24.277 33.75 25.3125 33.75Z" fill="url(#paint7_linear_1_22)"/>
<path d="M39.375 28.125H20.625C20.1279 28.1244 19.6513 27.9267 19.2998 27.5752C18.9483 27.2237 18.7506 26.7471 18.75 26.25V18.75C18.7506 18.2529 18.9483 17.7763 19.2998 17.4248C19.6513 17.0733 20.1279 16.8756 20.625 16.875H39.375C39.8721 16.8756 40.3487 17.0733 40.7002 17.4248C41.0517 17.7763 41.2494 18.2529 41.25 18.75V26.25C41.2494 26.7471 41.0517 27.2237 40.7002 27.5752C40.3487 27.9267 39.8721 28.1244 39.375 28.125ZM20.625 18.75V26.25H39.375V18.75H20.625Z" fill="url(#paint8_linear_1_22)"/>
<rect x="0.5" y="0.5" width="59" height="59" rx="7.5" stroke="url(#paint9_linear_1_22)"/>
<defs>
<linearGradient id="paint0_linear_1_22" x1="16.875" y1="30" x2="43.125" y2="30" gradientUnits="userSpaceOnUse">
<stop stop-color="#EB9191"/>
<stop offset="1" stop-color="#5A5AE1"/>
</linearGradient>
<linearGradient id="paint1_linear_1_22" x1="16.875" y1="30" x2="43.125" y2="30" gradientUnits="userSpaceOnUse">
<stop stop-color="#EB9191"/>
<stop offset="1" stop-color="#5A5AE1"/>
</linearGradient>
<linearGradient id="paint2_linear_1_22" x1="16.875" y1="30" x2="43.125" y2="30" gradientUnits="userSpaceOnUse">
<stop stop-color="#EB9191"/>
<stop offset="1" stop-color="#5A5AE1"/>
</linearGradient>
<linearGradient id="paint3_linear_1_22" x1="16.875" y1="30" x2="43.125" y2="30" gradientUnits="userSpaceOnUse">
<stop stop-color="#EB9191"/>
<stop offset="1" stop-color="#5A5AE1"/>
</linearGradient>
<linearGradient id="paint4_linear_1_22" x1="16.875" y1="30" x2="43.125" y2="30" gradientUnits="userSpaceOnUse">
<stop stop-color="#EB9191"/>
<stop offset="1" stop-color="#5A5AE1"/>
</linearGradient>
<linearGradient id="paint5_linear_1_22" x1="16.875" y1="30" x2="43.125" y2="30" gradientUnits="userSpaceOnUse">
<stop stop-color="#EB9191"/>
<stop offset="1" stop-color="#5A5AE1"/>
</linearGradient>
<linearGradient id="paint6_linear_1_22" x1="16.875" y1="30" x2="43.125" y2="30" gradientUnits="userSpaceOnUse">
<stop stop-color="#EB9191"/>
<stop offset="1" stop-color="#5A5AE1"/>
</linearGradient>
<linearGradient id="paint7_linear_1_22" x1="16.875" y1="30" x2="43.125" y2="30" gradientUnits="userSpaceOnUse">
<stop stop-color="#EB9191"/>
<stop offset="1" stop-color="#5A5AE1"/>
</linearGradient>
<linearGradient id="paint8_linear_1_22" x1="16.875" y1="30" x2="43.125" y2="30" gradientUnits="userSpaceOnUse">
<stop stop-color="#EB9191"/>
<stop offset="1" stop-color="#5A5AE1"/>
</linearGradient>
<linearGradient id="paint9_linear_1_22" x1="0" y1="30" x2="60" y2="30" gradientUnits="userSpaceOnUse">
<stop stop-color="#EB9191"/>
<stop offset="1" stop-color="#5A5AE1"/>
</linearGradient>
</defs>
</svg>
