<svg width="24" height="24" viewBox="0 0 24 24" fill="none" xmlns="http://www.w3.org/2000/svg">
<path d="M15.75 17.25C16.5784 17.25 17.25 16.5784 17.25 15.75C17.25 14.9216 16.5784 14.25 15.75 14.25C14.9216 14.25 14.25 14.9216 14.25 15.75C14.25 16.5784 14.9216 17.25 15.75 17.25Z" fill="url(#paint0_linear_2_582)"/>
<path d="M5.25 6.75002C6.07843 6.75002 6.75 6.07845 6.75 5.25002C6.75 4.42159 6.07843 3.75002 5.25 3.75002C4.42157 3.75002 3.75 4.42159 3.75 5.25002C3.75 6.07845 4.42157 6.75002 5.25 6.75002Z" fill="url(#paint1_linear_2_582)"/>
<path d="M20.25 23.25C19.6567 23.25 19.0766 23.0741 18.5833 22.7444C18.0899 22.4148 17.7054 21.9462 17.4784 21.3981C17.2513 20.8499 17.1919 20.2467 17.3076 19.6647C17.4234 19.0828 17.7091 18.5483 18.1287 18.1287C18.5482 17.7091 19.0828 17.4234 19.6647 17.3077C20.2467 17.1919 20.8499 17.2513 21.398 17.4784C21.9462 17.7054 22.4148 18.09 22.7444 18.5833C23.0741 19.0767 23.25 19.6567 23.25 20.25C23.2477 21.045 22.9308 21.8067 22.3687 22.3688C21.8066 22.9309 21.0449 23.2477 20.25 23.25ZM20.25 18.75C19.9533 18.75 19.6633 18.838 19.4166 19.0028C19.17 19.1676 18.9777 19.4019 18.8642 19.676C18.7506 19.9501 18.7209 20.2517 18.7788 20.5427C18.8367 20.8336 18.9796 21.1009 19.1893 21.3107C19.3991 21.5205 19.6664 21.6633 19.9574 21.7212C20.2483 21.7791 20.5499 21.7494 20.824 21.6358C21.0981 21.5223 21.3324 21.3301 21.4972 21.0834C21.662 20.8367 21.75 20.5467 21.75 20.25C21.7488 19.8526 21.5904 19.4717 21.3094 19.1906C21.0283 18.9096 20.6475 18.7512 20.25 18.75Z" fill="url(#paint2_linear_2_582)"/>
<path d="M22.5 12C22.4918 9.21775 21.383 6.55177 19.4156 4.5844C17.4482 2.61704 14.7823 1.50817 12 1.50002C10.2084 1.47445 8.44428 1.94143 6.9 2.85002L7.725 4.12502C8.31126 3.84324 8.91211 3.59289 9.525 3.37502C8.28517 5.82146 7.59409 8.50897 7.5 11.25H3C3.08403 10.0117 3.44271 8.80753 4.05 7.72502L2.925 6.75002C1.99178 8.34224 1.49989 10.1545 1.5 12C1.49983 13.3789 1.77131 14.7444 2.29892 16.0184C2.82654 17.2924 3.59996 18.45 4.57501 19.425C5.55005 20.4001 6.70763 21.1735 7.98163 21.7011C9.25562 22.2287 10.6211 22.5002 12 22.5C13.337 22.5126 14.663 22.2576 15.9 21.75L15.45 20.325C14.2204 20.8508 12.8848 21.082 11.55 21C9.95061 18.5401 9.06764 15.6834 9 12.75H22.425C22.487 12.5051 22.5123 12.2524 22.5 12ZM9.6 20.7C8.1086 20.253 6.7457 19.4558 5.625 18.375C4.13691 16.8523 3.21118 14.8686 3 12.75H7.5C7.6032 15.5227 8.32045 18.238 9.6 20.7ZM9 11.25C9.05966 8.32616 9.91534 5.47388 11.475 3.00002H12.525C14.0847 5.47388 14.9403 8.32616 15 11.25H9ZM16.5 11.25C16.4429 8.47062 15.723 5.74503 14.4 3.30002C16.1647 3.80864 17.7333 4.84104 18.8984 6.26062C20.0636 7.68019 20.7702 9.42006 20.925 11.25H16.5Z" fill="url(#paint3_linear_2_582)"/>
<defs>
<linearGradient id="paint0_linear_2_582" x1="1.5" y1="12.3745" x2="23.25" y2="12.3745" gradientUnits="userSpaceOnUse">
<stop stop-color="#EB9191"/>
<stop offset="1" stop-color="#5A5AE1"/>
</linearGradient>
<linearGradient id="paint1_linear_2_582" x1="1.5" y1="12.3745" x2="23.25" y2="12.3745" gradientUnits="userSpaceOnUse">
<stop stop-color="#EB9191"/>
<stop offset="1" stop-color="#5A5AE1"/>
</linearGradient>
<linearGradient id="paint2_linear_2_582" x1="1.5" y1="12.3745" x2="23.25" y2="12.3745" gradientUnits="userSpaceOnUse">
<stop stop-color="#EB9191"/>
<stop offset="1" stop-color="#5A5AE1"/>
</linearGradient>
<linearGradient id="paint3_linear_2_582" x1="1.5" y1="12.3745" x2="23.25" y2="12.3745" gradientUnits="userSpaceOnUse">
<stop stop-color="#EB9191"/>
<stop offset="1" stop-color="#5A5AE1"/>
</linearGradient>
</defs>
</svg>
