<svg width="60" height="60" viewBox="0 0 60 60" fill="none" xmlns="http://www.w3.org/2000/svg">
<path d="M32.8125 30V28.125H39.5353L37.3856 25.9753L38.7112 24.6497L43.125 29.0625L38.7112 33.4753L37.3856 32.1497L39.5353 30H32.8125Z" fill="url(#paint0_linear_1_18)"/>
<path d="M30.9375 26.25H29.0625V20.4638L26.9128 22.6134L25.5872 21.2878L30 16.875L34.4128 21.2878L33.0872 22.6134L30.9375 20.4638V26.25Z" fill="url(#paint1_linear_1_18)"/>
<path d="M30.9375 33.8448V31.875C30.9364 30.8808 30.5409 29.9276 29.8379 29.2246C29.1349 28.5216 28.1817 28.1261 27.1875 28.125H20.4638L22.6135 25.9753L21.2878 24.6497L16.875 29.0625L21.2878 33.4753L22.6135 32.1497L20.4638 30H27.1875C27.6846 30.0006 28.1611 30.1984 28.5126 30.5499C28.8641 30.9014 29.0619 31.3779 29.0625 31.875V33.8448C27.9243 34.0771 26.913 34.7238 26.2245 35.6594C25.536 36.595 25.2195 37.753 25.3362 38.9087C25.453 40.0645 25.9947 41.1357 26.8564 41.9147C27.7181 42.6937 28.8384 43.1251 30 43.1251C31.1616 43.1251 32.2819 42.6937 33.1436 41.9147C34.0053 41.1357 34.547 40.0645 34.6638 38.9087C34.7805 37.753 34.464 36.595 33.7755 35.6594C33.087 34.7238 32.0757 34.0771 30.9375 33.8448ZM30 41.25C29.4437 41.25 28.9 41.085 28.4375 40.776C27.9749 40.467 27.6145 40.0277 27.4016 39.5138C27.1887 38.9999 27.133 38.4344 27.2415 37.8888C27.3501 37.3432 27.6179 36.8421 28.0113 36.4488C28.4046 36.0554 28.9057 35.7876 29.4513 35.679C29.9969 35.5705 30.5624 35.6262 31.0763 35.8391C31.5902 36.052 32.0295 36.4124 32.3385 36.875C32.6476 37.3375 32.8125 37.8812 32.8125 38.4375C32.8117 39.1832 32.5151 39.8981 31.9878 40.4253C31.4606 40.9526 30.7457 41.2492 30 41.25Z" fill="url(#paint2_linear_1_18)"/>
<rect x="0.5" y="0.5" width="59" height="59" rx="7.5" stroke="url(#paint3_linear_1_18)"/>
<defs>
<linearGradient id="paint0_linear_1_18" x1="16.875" y1="30" x2="43.125" y2="30" gradientUnits="userSpaceOnUse">
<stop stop-color="#EB9191"/>
<stop offset="1" stop-color="#5A5AE1"/>
</linearGradient>
<linearGradient id="paint1_linear_1_18" x1="16.875" y1="30" x2="43.125" y2="30" gradientUnits="userSpaceOnUse">
<stop stop-color="#EB9191"/>
<stop offset="1" stop-color="#5A5AE1"/>
</linearGradient>
<linearGradient id="paint2_linear_1_18" x1="16.875" y1="30" x2="43.125" y2="30" gradientUnits="userSpaceOnUse">
<stop stop-color="#EB9191"/>
<stop offset="1" stop-color="#5A5AE1"/>
</linearGradient>
<linearGradient id="paint3_linear_1_18" x1="0" y1="30" x2="60" y2="30" gradientUnits="userSpaceOnUse">
<stop stop-color="#EB9191"/>
<stop offset="1" stop-color="#5A5AE1"/>
</linearGradient>
</defs>
</svg>
