<svg width="24" height="24" viewBox="0 0 24 24" fill="none" xmlns="http://www.w3.org/2000/svg">
<path d="M21 7.5H16.5V4.5C16.5 4.10218 16.342 3.72064 16.0607 3.43934C15.7794 3.15804 15.3978 3 15 3H9C8.60218 3 8.22064 3.15804 7.93934 3.43934C7.65804 3.72064 7.5 4.10218 7.5 4.5V7.5H3C2.60218 7.5 2.22064 7.65804 1.93934 7.93934C1.65804 8.22064 1.5 8.60218 1.5 9V19.5C1.5 19.8978 1.65804 20.2794 1.93934 20.5607C2.22064 20.842 2.60218 21 3 21H21C21.3978 21 21.7794 20.842 22.0607 20.5607C22.342 20.2794 22.5 19.8978 22.5 19.5V9C22.5 8.60218 22.342 8.22064 22.0607 7.93934C21.7794 7.65804 21.3978 7.5 21 7.5ZM9 4.5H15V7.5H9V4.5ZM3 19.5V9H21V19.5H3Z" fill="url(#paint0_linear_2_588)"/>
<defs>
<linearGradient id="paint0_linear_2_588" x1="1.5" y1="12" x2="22.5" y2="12" gradientUnits="userSpaceOnUse">
<stop stop-color="#EB9191"/>
<stop offset="1" stop-color="#5A5AE1"/>
</linearGradient>
</defs>
</svg>
