<svg width="24" height="24" viewBox="0 0 24 24" fill="none" xmlns="http://www.w3.org/2000/svg">
<path d="M16.5 19.5C17.3284 19.5 18 18.8284 18 18C18 17.1716 17.3284 16.5 16.5 16.5C15.6716 16.5 15 17.1716 15 18C15 18.8284 15.6716 19.5 16.5 19.5Z" fill="url(#paint0_linear_17_160)"/>
<path d="M22.3327 17.6089C21.8692 16.4284 21.0695 15.4098 20.0327 14.6794C18.9959 13.9491 17.7676 13.539 16.5 13.5C15.2324 13.539 14.0041 13.9491 12.9673 14.6794C11.9305 15.4098 11.1308 16.4284 10.6673 17.6089L10.5 18L10.6673 18.3911C11.1308 19.5716 11.9305 20.5902 12.9673 21.3206C14.0041 22.0509 15.2324 22.461 16.5 22.5C17.7676 22.461 18.9959 22.0509 20.0327 21.3206C21.0695 20.5902 21.8692 19.5716 22.3327 18.3911L22.5 18L22.3327 17.6089ZM16.5 21C15.9067 21 15.3266 20.8241 14.8333 20.4944C14.3399 20.1648 13.9554 19.6962 13.7284 19.148C13.5013 18.5999 13.4419 17.9967 13.5576 17.4147C13.6734 16.8328 13.9591 16.2982 14.3787 15.8787C14.7982 15.4591 15.3328 15.1734 15.9147 15.0576C16.4967 14.9419 17.0999 15.0013 17.648 15.2284C18.1962 15.4554 18.6648 15.8399 18.9944 16.3333C19.3241 16.8266 19.5 17.4067 19.5 18C19.4991 18.7954 19.1827 19.5579 18.6203 20.1203C18.0579 20.6827 17.2954 20.9991 16.5 21Z" fill="url(#paint1_linear_17_160)"/>
<path d="M9 12.75H5.25V14.25H9V12.75Z" fill="url(#paint2_linear_17_160)"/>
<path d="M14.25 9H5.25V10.5H14.25V9Z" fill="url(#paint3_linear_17_160)"/>
<path d="M14.25 5.25H5.25V6.75H14.25V5.25Z" fill="url(#paint4_linear_17_160)"/>
<path d="M16.5 1.5H3C2.60253 1.50115 2.22166 1.65955 1.94061 1.94061C1.65955 2.22166 1.50115 2.60253 1.5 3V21C1.50115 21.3975 1.65955 21.7783 1.94061 22.0594C2.22166 22.3404 2.60253 22.4989 3 22.5H9V21H3V3H16.5V11.25H18V3C17.9989 2.60253 17.8404 2.22166 17.5594 1.94061C17.2783 1.65955 16.8975 1.50115 16.5 1.5Z" fill="url(#paint5_linear_17_160)"/>
<defs>
<linearGradient id="paint0_linear_17_160" x1="1.5" y1="12" x2="22.5" y2="12" gradientUnits="userSpaceOnUse">
<stop stop-color="#C8EB87"/>
<stop offset="1" stop-color="#E66464"/>
</linearGradient>
<linearGradient id="paint1_linear_17_160" x1="1.5" y1="12" x2="22.5" y2="12" gradientUnits="userSpaceOnUse">
<stop stop-color="#C8EB87"/>
<stop offset="1" stop-color="#E66464"/>
</linearGradient>
<linearGradient id="paint2_linear_17_160" x1="1.5" y1="12" x2="22.5" y2="12" gradientUnits="userSpaceOnUse">
<stop stop-color="#C8EB87"/>
<stop offset="1" stop-color="#E66464"/>
</linearGradient>
<linearGradient id="paint3_linear_17_160" x1="1.5" y1="12" x2="22.5" y2="12" gradientUnits="userSpaceOnUse">
<stop stop-color="#C8EB87"/>
<stop offset="1" stop-color="#E66464"/>
</linearGradient>
<linearGradient id="paint4_linear_17_160" x1="1.5" y1="12" x2="22.5" y2="12" gradientUnits="userSpaceOnUse">
<stop stop-color="#C8EB87"/>
<stop offset="1" stop-color="#E66464"/>
</linearGradient>
<linearGradient id="paint5_linear_17_160" x1="1.5" y1="12" x2="22.5" y2="12" gradientUnits="userSpaceOnUse">
<stop stop-color="#C8EB87"/>
<stop offset="1" stop-color="#E66464"/>
</linearGradient>
</defs>
</svg>
