<svg width="60" height="60" viewBox="0 0 60 60" fill="none" xmlns="http://www.w3.org/2000/svg">
<path d="M30 31.875C31.0355 31.875 31.875 31.0356 31.875 30C31.875 28.9645 31.0355 28.125 30 28.125C28.9645 28.125 28.125 28.9645 28.125 30C28.125 31.0356 28.9645 31.875 30 31.875Z" fill="url(#paint0_linear_13_68)"/>
<path d="M37.2908 29.5111C36.7115 28.0355 35.7119 26.7623 34.4159 25.8493C33.1199 24.9364 31.5845 24.4238 30 24.375C28.4155 24.4238 26.8801 24.9364 25.5841 25.8493C24.2881 26.7623 23.2885 28.0355 22.7092 29.5111L22.5 30L22.7092 30.4889C23.2885 31.9646 24.2881 33.2378 25.5841 34.1507C26.8801 35.0637 28.4155 35.5763 30 35.625C31.5845 35.5763 33.1199 35.0637 34.4159 34.1507C35.7119 33.2378 36.7115 31.9646 37.2908 30.4889L37.5 30L37.2908 29.5111ZM30 33.75C29.2583 33.75 28.5333 33.5301 27.9166 33.118C27.2999 32.706 26.8193 32.1203 26.5355 31.4351C26.2516 30.7499 26.1774 29.9959 26.3221 29.2684C26.4667 28.541 26.8239 27.8728 27.3483 27.3484C27.8728 26.8239 28.541 26.4668 29.2684 26.3221C29.9958 26.1774 30.7498 26.2517 31.4351 26.5355C32.1203 26.8193 32.706 27.3 33.118 27.9166C33.5301 28.5333 33.75 29.2584 33.75 30C33.7489 30.9943 33.3534 31.9474 32.6504 32.6505C31.9474 33.3535 30.9942 33.7489 30 33.75Z" fill="url(#paint1_linear_13_68)"/>
<path d="M41.7224 22.6277L30.4724 16.0652C30.329 15.9816 30.166 15.9375 30 15.9375C29.834 15.9375 29.671 15.9816 29.5276 16.0652L18.2776 22.6277C18.1361 22.7103 18.0186 22.8285 17.937 22.9706C17.8554 23.1127 17.8125 23.2737 17.8125 23.4375V36.5625C17.8125 36.7264 17.8554 36.8874 17.937 37.0295C18.0186 37.1716 18.1361 37.2898 18.2776 37.3723L29.5276 43.9348C29.671 44.0185 29.834 44.0626 30 44.0626C30.166 44.0626 30.329 44.0185 30.4724 43.9348L41.7224 37.3723C41.8639 37.2898 41.9814 37.1716 42.063 37.0295C42.1446 36.8874 42.1875 36.7264 42.1875 36.5625V23.4375C42.1875 23.2737 42.1446 23.1127 42.063 22.9706C41.9814 22.8285 41.8639 22.7103 41.7224 22.6277ZM40.3125 36.0242L30 42.0397L19.6875 36.0242V23.9758L30 17.9604L40.3125 23.9758V36.0242Z" fill="url(#paint2_linear_13_68)"/>
<rect x="0.5" y="0.5" width="59" height="59" rx="7.5" stroke="url(#paint3_linear_13_68)"/>
<defs>
<linearGradient id="paint0_linear_13_68" x1="17.8125" y1="30" x2="42.1875" y2="30" gradientUnits="userSpaceOnUse">
<stop stop-color="#EB9191"/>
<stop offset="1" stop-color="#5A5AE1"/>
</linearGradient>
<linearGradient id="paint1_linear_13_68" x1="17.8125" y1="30" x2="42.1875" y2="30" gradientUnits="userSpaceOnUse">
<stop stop-color="#EB9191"/>
<stop offset="1" stop-color="#5A5AE1"/>
</linearGradient>
<linearGradient id="paint2_linear_13_68" x1="17.8125" y1="30" x2="42.1875" y2="30" gradientUnits="userSpaceOnUse">
<stop stop-color="#EB9191"/>
<stop offset="1" stop-color="#5A5AE1"/>
</linearGradient>
<linearGradient id="paint3_linear_13_68" x1="0" y1="30" x2="60" y2="30" gradientUnits="userSpaceOnUse">
<stop stop-color="#EB9191"/>
<stop offset="1" stop-color="#5A5AE1"/>
</linearGradient>
</defs>
</svg>
