<svg width="24" height="24" viewBox="0 0 24 24" fill="none" xmlns="http://www.w3.org/2000/svg">
<path d="M6.75001 6C7.16422 6 7.50001 5.66421 7.50001 5.25C7.50001 4.83579 7.16422 4.5 6.75001 4.5C6.33579 4.5 6.00001 4.83579 6.00001 5.25C6.00001 5.66421 6.33579 6 6.75001 6Z" fill="url(#paint0_linear_18_182)"/>
<path d="M20.25 16.605V13.5C20.25 13.1022 20.092 12.7206 19.8107 12.4393C19.5294 12.158 19.1478 12 18.75 12H12.75V9H19.5C19.8978 9 20.2794 8.84196 20.5607 8.56066C20.842 8.27936 21 7.89782 21 7.5V3C21 2.60218 20.842 2.22064 20.5607 1.93934C20.2794 1.65804 19.8978 1.5 19.5 1.5H4.50001C4.10218 1.5 3.72065 1.65804 3.43935 1.93934C3.15804 2.22064 3.00001 2.60218 3.00001 3V7.5C3.00001 7.89782 3.15804 8.27936 3.43935 8.56066C3.72065 8.84196 4.10218 9 4.50001 9H11.25V12H5.25001C4.85218 12 4.47065 12.158 4.18935 12.4393C3.90804 12.7206 3.75001 13.1022 3.75001 13.5V16.605C3.04301 16.7875 2.42687 17.2217 2.01706 17.826C1.60725 18.4303 1.43191 19.1634 1.52392 19.8878C1.61592 20.6121 1.96895 21.278 2.51683 21.7607C3.06471 22.2434 3.76983 22.5097 4.50001 22.5097C5.23019 22.5097 5.9353 22.2434 6.48318 21.7607C7.03106 21.278 7.38409 20.6121 7.4761 19.8878C7.5681 19.1634 7.39277 18.4303 6.98296 17.826C6.57315 17.2217 5.957 16.7875 5.25001 16.605V13.5H11.25V16.5H9.00001V22.5H15V16.5H12.75V13.5H18.75V16.605C18.043 16.7875 17.4269 17.2217 17.0171 17.826C16.6072 18.4303 16.4319 19.1634 16.5239 19.8878C16.6159 20.6121 16.969 21.278 17.5168 21.7607C18.0647 22.2434 18.7698 22.5097 19.5 22.5097C20.2302 22.5097 20.9353 22.2434 21.4832 21.7607C22.0311 21.278 22.3841 20.6121 22.4761 19.8878C22.5681 19.1634 22.3928 18.4303 21.983 17.826C21.5732 17.2217 20.957 16.7875 20.25 16.605ZM6.00001 19.5C6.00001 19.7967 5.91203 20.0867 5.74721 20.3334C5.58239 20.58 5.34812 20.7723 5.07403 20.8858C4.79994 20.9994 4.49834 21.0291 4.20737 20.9712C3.9164 20.9133 3.64913 20.7704 3.43935 20.5607C3.22957 20.3509 3.08671 20.0836 3.02883 19.7926C2.97095 19.5017 3.00066 19.2001 3.11419 18.926C3.22772 18.6519 3.41998 18.4176 3.66665 18.2528C3.91333 18.088 4.20334 18 4.50001 18C4.89783 18 5.27936 18.158 5.56067 18.4393C5.84197 18.7206 6.00001 19.1022 6.00001 19.5ZM13.5 18V21H10.5V18H13.5ZM4.50001 7.5V3H19.5V7.5H4.50001ZM19.5 21C19.2033 21 18.9133 20.912 18.6667 20.7472C18.42 20.5824 18.2277 20.3481 18.1142 20.074C18.0007 19.7999 17.971 19.4983 18.0288 19.2074C18.0867 18.9164 18.2296 18.6491 18.4393 18.4393C18.6491 18.2296 18.9164 18.0867 19.2074 18.0288C19.4983 17.9709 19.7999 18.0006 20.074 18.1142C20.3481 18.2277 20.5824 18.42 20.7472 18.6666C20.912 18.9133 21 19.2033 21 19.5C21 19.8978 20.842 20.2794 20.5607 20.5607C20.2794 20.842 19.8978 21 19.5 21Z" fill="url(#paint1_linear_18_182)"/>
<defs>
<linearGradient id="paint0_linear_18_182" x1="1.5" y1="12.0049" x2="18.2866" y2="12.0049" gradientUnits="userSpaceOnUse">
<stop stop-color="#C8EB87"/>
<stop offset="1" stop-color="#5A5AE1"/>
</linearGradient>
<linearGradient id="paint1_linear_18_182" x1="1.5" y1="12.0049" x2="18.2866" y2="12.0049" gradientUnits="userSpaceOnUse">
<stop stop-color="#C8EB87"/>
<stop offset="1" stop-color="#5A5AE1"/>
</linearGradient>
</defs>
</svg>
