<svg width="24" height="24" viewBox="0 0 24 24" fill="none" xmlns="http://www.w3.org/2000/svg">
<path d="M19.5 19.5H13.5V21H19.5V19.5Z" fill="url(#paint0_linear_15_117)"/>
<path d="M22.5 16.5H13.5V18H22.5V16.5Z" fill="url(#paint1_linear_15_117)"/>
<path d="M22.5 13.5H13.5V15H22.5V13.5Z" fill="url(#paint2_linear_15_117)"/>
<path d="M15.4117 8.41275L12 1.5L8.58821 8.41275L0.959961 9.52125L6.47996 14.9025L5.17646 22.5L10.5 19.7017V18.0068L7.16921 19.758L8.09171 14.3782L4.18346 10.5682L9.58421 9.78375L12 4.88925L14.4157 9.78375L20.7862 10.7108L21 9.225L15.4117 8.41275Z" fill="url(#paint3_linear_15_117)"/>
<defs>
<linearGradient id="paint0_linear_15_117" x1="0.959961" y1="12" x2="22.5" y2="12" gradientUnits="userSpaceOnUse">
<stop stop-color="#EB9191"/>
<stop offset="1" stop-color="#5A5AE1"/>
</linearGradient>
<linearGradient id="paint1_linear_15_117" x1="0.959961" y1="12" x2="22.5" y2="12" gradientUnits="userSpaceOnUse">
<stop stop-color="#EB9191"/>
<stop offset="1" stop-color="#5A5AE1"/>
</linearGradient>
<linearGradient id="paint2_linear_15_117" x1="0.959961" y1="12" x2="22.5" y2="12" gradientUnits="userSpaceOnUse">
<stop stop-color="#EB9191"/>
<stop offset="1" stop-color="#5A5AE1"/>
</linearGradient>
<linearGradient id="paint3_linear_15_117" x1="0.959961" y1="12" x2="22.5" y2="12" gradientUnits="userSpaceOnUse">
<stop stop-color="#EB9191"/>
<stop offset="1" stop-color="#5A5AE1"/>
</linearGradient>
</defs>
</svg>
