<svg width="24" height="24" viewBox="0 0 24 24" fill="none" xmlns="http://www.w3.org/2000/svg">
<path d="M19.5 15.75V15C19.5 14.8011 19.579 14.6103 19.7197 14.4697C19.8603 14.329 20.0511 14.25 20.25 14.25C20.4489 14.25 20.6397 14.329 20.7803 14.4697C20.921 14.6103 21 14.8011 21 15V22.5H22.5V15C22.4993 14.4035 22.2621 13.8315 21.8403 13.4097C21.4185 12.9879 20.8465 12.7507 20.25 12.75C19.8623 12.7524 19.4821 12.8562 19.1469 13.051C18.8433 12.5596 18.3598 12.2062 17.7994 12.0661C17.239 11.926 16.646 12.0103 16.1469 12.301C15.9452 11.9799 15.6655 11.7151 15.3338 11.5313C15.0021 11.3475 14.6292 11.2507 14.25 11.25C13.9939 11.2525 13.7401 11.2994 13.5 11.3884V7.5C13.5 6.90326 13.2629 6.33097 12.841 5.90901C12.419 5.48705 11.8467 5.25 11.25 5.25C10.6533 5.25 10.081 5.48705 9.65901 5.90901C9.23705 6.33097 9 6.90326 9 7.5V15.8284L7.32382 14.6814L7.32323 14.6822C6.86515 14.3485 6.29802 14.2001 5.73523 14.2665C5.17245 14.333 4.65549 14.6095 4.28773 15.0406C3.91997 15.4718 3.72851 16.0259 3.75164 16.5921C3.77476 17.1583 4.01077 17.6949 4.41247 18.0946L9.24172 22.5L10.2527 21.3915L5.46863 17.0277C5.39918 16.9585 5.34411 16.8763 5.30658 16.7857C5.26906 16.6951 5.24983 16.598 5.25 16.5C5.25003 16.3607 5.28882 16.2242 5.36203 16.1057C5.43524 15.9872 5.53998 15.8915 5.66453 15.8291C5.78908 15.7668 5.92852 15.7403 6.06724 15.7528C6.20596 15.7652 6.3385 15.8159 6.45 15.8994L10.5 18.6716V7.5C10.5 7.30109 10.579 7.11032 10.7197 6.96967C10.8603 6.82902 11.0511 6.75 11.25 6.75C11.4489 6.75 11.6397 6.82902 11.7803 6.96967C11.921 7.11032 12 7.30109 12 7.5V15.75H13.5V13.5C13.5 13.3011 13.579 13.1103 13.7197 12.9697C13.8603 12.829 14.0511 12.75 14.25 12.75C14.4489 12.75 14.6397 12.829 14.7803 12.9697C14.921 13.1103 15 13.3011 15 13.5V15.75H16.5V14.25C16.5 14.0511 16.579 13.8603 16.7197 13.7197C16.8603 13.579 17.0511 13.5 17.25 13.5C17.4489 13.5 17.6397 13.579 17.7803 13.7197C17.921 13.8603 18 14.0511 18 14.25V15.75H19.5Z" fill="url(#paint0_linear_17_161)"/>
<path d="M21 9H16.5V7.5H21V3H3V7.5H6V9H3C2.6023 8.99958 2.22101 8.84141 1.9398 8.5602C1.65859 8.27899 1.50042 7.8977 1.5 7.5V3C1.50042 2.6023 1.65859 2.22101 1.9398 1.9398C2.22101 1.65859 2.6023 1.50042 3 1.5H21C21.3977 1.50042 21.779 1.65859 22.0602 1.9398C22.3414 2.22101 22.4996 2.6023 22.5 3V7.5C22.4996 7.8977 22.3414 8.27899 22.0602 8.5602C21.779 8.84141 21.3977 8.99958 21 9Z" fill="url(#paint1_linear_17_161)"/>
<defs>
<linearGradient id="paint0_linear_17_161" x1="1.5" y1="12" x2="22.5" y2="12" gradientUnits="userSpaceOnUse">
<stop stop-color="#C8EB87"/>
<stop offset="1" stop-color="#E66464"/>
</linearGradient>
<linearGradient id="paint1_linear_17_161" x1="1.5" y1="12" x2="22.5" y2="12" gradientUnits="userSpaceOnUse">
<stop stop-color="#C8EB87"/>
<stop offset="1" stop-color="#E66464"/>
</linearGradient>
</defs>
</svg>
