<svg width="60" height="60" viewBox="0 0 60 60" fill="none" xmlns="http://www.w3.org/2000/svg">
<path d="M29.3301 29.3387L21.8325 36.8363L23.1584 38.1621L30.6559 30.6646L29.3301 29.3387Z" fill="url(#paint0_linear_13_74)"/>
<path d="M30.9375 43.1251C30.8187 43.1253 30.701 43.1031 30.5906 43.0594C30.437 42.9982 30.3023 42.8974 30.2002 42.7674C30.0982 42.6373 30.0323 42.4825 30.0093 42.3188L29.0718 35.7563L30.9468 35.4938L31.65 40.4344L34.6875 37.9876V30.9376C34.6867 30.8142 34.7104 30.6919 34.757 30.5776C34.8037 30.4634 34.8724 30.3595 34.9593 30.2719L38.775 26.4563C39.5612 25.6754 40.1847 24.7464 40.6096 23.7229C41.0344 22.6995 41.2521 21.6019 41.25 20.4938V18.7501H39.5062C38.3981 18.748 37.3005 18.9656 36.2771 19.3904C35.2536 19.8153 34.3246 20.4388 33.5437 21.2251L29.7281 25.0407C29.6405 25.1276 29.5366 25.1963 29.4224 25.243C29.3081 25.2896 29.1858 25.3133 29.0625 25.3126H22.0125L19.5656 28.3688L24.5062 29.0719L24.2437 30.9469L17.6812 30.0094C17.5175 29.9865 17.3627 29.9206 17.2326 29.8185C17.1026 29.7164 17.0018 29.5818 16.9406 29.4282C16.8786 29.2735 16.8589 29.1051 16.8837 28.9403C16.9084 28.7756 16.9766 28.6204 17.0812 28.4907L20.8312 23.8032C20.9176 23.691 21.0282 23.5998 21.1549 23.5365C21.2815 23.4731 21.4209 23.4393 21.5625 23.4376H28.6781L32.2125 19.8938C33.1679 18.933 34.3046 18.1714 35.5567 17.6532C36.8087 17.135 38.1512 16.8705 39.5062 16.8751H41.25C41.7472 16.8751 42.2242 17.0726 42.5758 17.4242C42.9274 17.7759 43.125 18.2528 43.125 18.7501V20.4938C43.1295 21.8488 42.865 23.1913 42.3468 24.4433C41.8286 25.6954 41.067 26.8321 40.1062 27.7876L36.5625 31.3219V38.4376C36.5618 38.5784 36.5294 38.7172 36.4678 38.8438C36.4061 38.9704 36.3167 39.0815 36.2062 39.1688L31.5187 42.9188C31.3538 43.0511 31.1489 43.1238 30.9375 43.1251Z" fill="url(#paint1_linear_13_74)"/>
<rect x="0.5" y="0.5" width="59" height="59" rx="7.5" stroke="url(#paint2_linear_13_74)"/>
<defs>
<linearGradient id="paint0_linear_13_74" x1="16.8733" y1="30" x2="43.125" y2="30" gradientUnits="userSpaceOnUse">
<stop stop-color="#EB9191"/>
<stop offset="1" stop-color="#5A5AE1"/>
</linearGradient>
<linearGradient id="paint1_linear_13_74" x1="16.8733" y1="30" x2="43.125" y2="30" gradientUnits="userSpaceOnUse">
<stop stop-color="#EB9191"/>
<stop offset="1" stop-color="#5A5AE1"/>
</linearGradient>
<linearGradient id="paint2_linear_13_74" x1="0" y1="30" x2="60" y2="30" gradientUnits="userSpaceOnUse">
<stop stop-color="#EB9191"/>
<stop offset="1" stop-color="#5A5AE1"/>
</linearGradient>
</defs>
</svg>
