<svg width="60" height="60" viewBox="0 0 60 60" fill="none" xmlns="http://www.w3.org/2000/svg">
<path d="M30 43.125C27.4041 43.125 24.8665 42.3552 22.7081 40.913C20.5498 39.4708 18.8675 37.421 17.8741 35.0227C16.8807 32.6244 16.6208 29.9854 17.1272 27.4394C17.6336 24.8934 18.8837 22.5548 20.7192 20.7192C22.5548 18.8837 24.8934 17.6336 27.4394 17.1272C29.9854 16.6208 32.6244 16.8807 35.0227 17.8741C37.421 18.8675 39.4708 20.5498 40.913 22.7081C42.3552 24.8665 43.125 27.4041 43.125 30C43.1211 33.4798 41.737 36.8159 39.2765 39.2765C36.8159 41.737 33.4798 43.1211 30 43.125ZM30 18.75C27.775 18.75 25.5999 19.4098 23.7498 20.646C21.8998 21.8821 20.4578 23.6391 19.6064 25.6948C18.7549 27.7505 18.5321 30.0125 18.9662 32.1948C19.4003 34.3771 20.4717 36.3816 22.0451 37.955C23.6184 39.5283 25.623 40.5998 27.8052 41.0338C29.9875 41.4679 32.2495 41.2451 34.3052 40.3936C36.3609 39.5422 38.1179 38.1002 39.354 36.2502C40.5902 34.4001 41.25 32.225 41.25 30C41.2466 27.0174 40.0602 24.1579 37.9512 22.0488C35.8422 19.9398 32.9826 18.7534 30 18.75Z" fill="url(#paint0_linear_13_50)"/>
<path d="M30.9375 21.5625H29.0625V28.125H30.9375V21.5625Z" fill="url(#paint1_linear_13_50)"/>
<path d="M28.125 29.0625H21.5625V30.9375H28.125V29.0625Z" fill="url(#paint2_linear_13_50)"/>
<path d="M30.9375 31.875H29.0625V38.4375H30.9375V31.875Z" fill="url(#paint3_linear_13_50)"/>
<path d="M38.4375 29.0625H31.875V30.9375H38.4375V29.0625Z" fill="url(#paint4_linear_13_50)"/>
<rect x="0.5" y="0.5" width="59" height="59" rx="7.5" stroke="url(#paint5_linear_13_50)"/>
<defs>
<linearGradient id="paint0_linear_13_50" x1="16.875" y1="30" x2="43.125" y2="30" gradientUnits="userSpaceOnUse">
<stop stop-color="#EB9191"/>
<stop offset="1" stop-color="#5A5AE1"/>
</linearGradient>
<linearGradient id="paint1_linear_13_50" x1="16.875" y1="30" x2="43.125" y2="30" gradientUnits="userSpaceOnUse">
<stop stop-color="#EB9191"/>
<stop offset="1" stop-color="#5A5AE1"/>
</linearGradient>
<linearGradient id="paint2_linear_13_50" x1="16.875" y1="30" x2="43.125" y2="30" gradientUnits="userSpaceOnUse">
<stop stop-color="#EB9191"/>
<stop offset="1" stop-color="#5A5AE1"/>
</linearGradient>
<linearGradient id="paint3_linear_13_50" x1="16.875" y1="30" x2="43.125" y2="30" gradientUnits="userSpaceOnUse">
<stop stop-color="#EB9191"/>
<stop offset="1" stop-color="#5A5AE1"/>
</linearGradient>
<linearGradient id="paint4_linear_13_50" x1="16.875" y1="30" x2="43.125" y2="30" gradientUnits="userSpaceOnUse">
<stop stop-color="#EB9191"/>
<stop offset="1" stop-color="#5A5AE1"/>
</linearGradient>
<linearGradient id="paint5_linear_13_50" x1="0" y1="30" x2="60" y2="30" gradientUnits="userSpaceOnUse">
<stop stop-color="#EB9191"/>
<stop offset="1" stop-color="#5A5AE1"/>
</linearGradient>
</defs>
</svg>
