<svg width="60" height="60" viewBox="0 0 60 60" fill="none" xmlns="http://www.w3.org/2000/svg">
<path d="M29.0625 31.1062L26.6344 28.678L25.3125 29.9999L29.0625 33.7499L35.625 27.1874L34.3031 25.8655L29.0625 31.1062Z" fill="url(#paint0_linear_13_56)"/>
<path d="M43.125 29.0625H41.2024C40.9778 26.4153 39.8242 23.9329 37.9457 22.0543C36.0671 20.1758 33.5847 19.0222 30.9375 18.7976V16.875H29.0625V18.7976C26.4153 19.0222 23.9329 20.1758 22.0543 22.0543C20.1758 23.9329 19.0222 26.4153 18.7976 29.0625H16.875V30.9375H18.7976C19.0222 33.5847 20.1758 36.0671 22.0543 37.9457C23.9329 39.8242 26.4153 40.9778 29.0625 41.2024V43.125H30.9375V41.2024C33.5847 40.9778 36.0671 39.8242 37.9457 37.9457C39.8242 36.0671 40.9778 33.5847 41.2024 30.9375H43.125V29.0625ZM30.9375 39.3274V36.5625H29.0625V39.3274C26.9121 39.1082 24.9031 38.1538 23.3746 36.6254C21.8462 35.0969 20.8918 33.0879 20.6726 30.9375H23.4375V29.0625H20.6726C20.8918 26.9121 21.8462 24.9031 23.3746 23.3746C24.9031 21.8462 26.9121 20.8918 29.0625 20.6726V23.4375H30.9375V20.6726C33.0879 20.8918 35.0969 21.8462 36.6254 23.3746C38.1538 24.9031 39.1082 26.9121 39.3274 29.0625H36.5625V30.9375H39.3272C39.108 33.0879 38.1537 35.0969 36.6253 36.6253C35.0968 38.1538 33.0879 39.1082 30.9375 39.3274Z" fill="url(#paint1_linear_13_56)"/>
<rect x="0.5" y="0.5" width="59" height="59" rx="7.5" stroke="url(#paint2_linear_13_56)"/>
<defs>
<linearGradient id="paint0_linear_13_56" x1="16.875" y1="30" x2="43.125" y2="30" gradientUnits="userSpaceOnUse">
<stop stop-color="#EB9191"/>
<stop offset="1" stop-color="#5A5AE1"/>
</linearGradient>
<linearGradient id="paint1_linear_13_56" x1="16.875" y1="30" x2="43.125" y2="30" gradientUnits="userSpaceOnUse">
<stop stop-color="#EB9191"/>
<stop offset="1" stop-color="#5A5AE1"/>
</linearGradient>
<linearGradient id="paint2_linear_13_56" x1="0" y1="30" x2="60" y2="30" gradientUnits="userSpaceOnUse">
<stop stop-color="#EB9191"/>
<stop offset="1" stop-color="#5A5AE1"/>
</linearGradient>
</defs>
</svg>
