<svg width="60" height="60" viewBox="0 0 60 60" fill="none" xmlns="http://www.w3.org/2000/svg">
<path d="M30 22.5C29.0729 22.5 28.1666 22.7749 27.3958 23.29C26.6249 23.8051 26.0241 24.5371 25.6693 25.3937C25.3145 26.2502 25.2217 27.1927 25.4026 28.102C25.5834 29.0113 26.0299 29.8465 26.6854 30.5021C27.341 31.1576 28.1762 31.6041 29.0855 31.7849C29.9948 31.9658 30.9373 31.873 31.7938 31.5182C32.6504 31.1634 33.3824 30.5626 33.8975 29.7917C34.4126 29.0209 34.6875 28.1146 34.6875 27.1875C34.6875 25.9443 34.1936 24.752 33.3146 23.8729C32.4355 22.9939 31.2432 22.5 30 22.5ZM30 30C29.4437 30 28.9 29.835 28.4375 29.526C27.975 29.217 27.6145 28.7777 27.4016 28.2638C27.1887 27.7499 27.133 27.1844 27.2415 26.6388C27.3501 26.0932 27.6179 25.5921 28.0113 25.1988C28.4046 24.8054 28.9057 24.5376 29.4513 24.429C29.9969 24.3205 30.5624 24.3762 31.0763 24.5891C31.5902 24.802 32.0295 25.1624 32.3385 25.625C32.6476 26.0875 32.8125 26.6312 32.8125 27.1875C32.8117 27.9332 32.5151 28.648 31.9878 29.1753C31.4605 29.7026 30.7457 29.9992 30 30Z" fill="url(#paint0_linear_13_62)"/>
<path d="M30 16.875C27.4041 16.875 24.8665 17.6448 22.7081 19.087C20.5498 20.5292 18.8675 22.579 17.8741 24.9773C16.8807 27.3756 16.6208 30.0146 17.1272 32.5606C17.6336 35.1066 18.8837 37.4452 20.7192 39.2808C22.5548 41.1163 24.8934 42.3664 27.4394 42.8728C29.9854 43.3792 32.6244 43.1193 35.0227 42.1259C37.421 41.1325 39.4708 39.4503 40.913 37.2919C42.3552 35.1335 43.125 32.5959 43.125 30C43.1211 26.5202 41.737 23.1841 39.2765 20.7236C36.8159 18.263 33.4798 16.8789 30 16.875ZM24.375 39.728V38.4375C24.3758 37.6918 24.6724 36.9769 25.1997 36.4497C25.7269 35.9224 26.4418 35.6258 27.1875 35.625H32.8125C33.5582 35.6258 34.2731 35.9224 34.8003 36.4497C35.3276 36.9769 35.6242 37.6918 35.625 38.4375V39.728C33.918 40.7247 31.9767 41.25 30 41.25C28.0233 41.25 26.082 40.7247 24.375 39.728ZM37.493 38.3679C37.4743 37.1382 36.9733 35.965 36.0978 35.1011C35.2223 34.2373 34.0424 33.7521 32.8125 33.75H27.1875C25.9576 33.7521 24.7778 34.2373 23.9022 35.1011C23.0267 35.965 22.5257 37.1382 22.507 38.3679C20.8069 36.8499 19.608 34.8513 19.0691 32.6367C18.5301 30.4221 18.6765 28.0961 19.4889 25.9666C20.3013 23.837 21.7413 22.0045 23.6183 20.7116C25.4953 19.4187 27.7208 18.7264 30 18.7264C32.2792 18.7264 34.5047 19.4187 36.3817 20.7116C38.2587 22.0045 39.6987 23.837 40.5111 25.9666C41.3235 28.0961 41.4699 30.4221 40.9309 32.6367C40.392 34.8513 39.1931 36.8499 37.493 38.3679Z" fill="url(#paint1_linear_13_62)"/>
<rect x="0.5" y="0.5" width="59" height="59" rx="7.5" stroke="url(#paint2_linear_13_62)"/>
<defs>
<linearGradient id="paint0_linear_13_62" x1="16.875" y1="30" x2="43.125" y2="30" gradientUnits="userSpaceOnUse">
<stop stop-color="#EB9191"/>
<stop offset="1" stop-color="#5A5AE1"/>
</linearGradient>
<linearGradient id="paint1_linear_13_62" x1="16.875" y1="30" x2="43.125" y2="30" gradientUnits="userSpaceOnUse">
<stop stop-color="#EB9191"/>
<stop offset="1" stop-color="#5A5AE1"/>
</linearGradient>
<linearGradient id="paint2_linear_13_62" x1="0" y1="30" x2="60" y2="30" gradientUnits="userSpaceOnUse">
<stop stop-color="#EB9191"/>
<stop offset="1" stop-color="#5A5AE1"/>
</linearGradient>
</defs>
</svg>
