<svg width="24" height="24" viewBox="0 0 24 24" fill="none" xmlns="http://www.w3.org/2000/svg">
<path d="M12 15.75C12.8284 15.75 13.5 15.0784 13.5 14.25C13.5 13.4216 12.8284 12.75 12 12.75C11.1716 12.75 10.5 13.4216 10.5 14.25C10.5 15.0784 11.1716 15.75 12 15.75Z" fill="url(#paint0_linear_15_127)"/>
<path d="M17.8327 13.8589C17.3692 12.6784 16.5695 11.6598 15.5327 10.9294C14.4959 10.1991 13.2676 9.78897 12 9.75C10.7324 9.78897 9.50405 10.1991 8.46726 10.9294C7.43047 11.6598 6.63079 12.6784 6.16732 13.8589L6 14.25L6.16732 14.6411C6.63079 15.8216 7.43047 16.8402 8.46726 17.5706C9.50405 18.3009 10.7324 18.711 12 18.75C13.2676 18.711 14.4959 18.3009 15.5327 17.5706C16.5695 16.8402 17.3692 15.8216 17.8327 14.6411L18 14.25L17.8327 13.8589ZM12 17.25C11.4067 17.25 10.8266 17.0741 10.3333 16.7444C9.83994 16.4148 9.45542 15.9462 9.22836 15.398C9.0013 14.8499 8.94189 14.2467 9.05764 13.6647C9.1734 13.0828 9.45912 12.5482 9.87868 12.1287C10.2982 11.7091 10.8328 11.4234 11.4147 11.3076C11.9967 11.1919 12.5999 11.2513 13.148 11.4784C13.6962 11.7054 14.1648 12.0899 14.4944 12.5833C14.8241 13.0766 15 13.6567 15 14.25C14.9991 15.0454 14.6827 15.8079 14.1203 16.3703C13.5579 16.9327 12.7954 17.2491 12 17.25Z" fill="url(#paint1_linear_15_127)"/>
<path d="M20.25 2.25H3.75C3.35218 2.25 2.97064 2.40804 2.68934 2.68934C2.40804 2.97064 2.25 3.35218 2.25 3.75V20.25C2.25 20.6478 2.40804 21.0294 2.68934 21.3107C2.97064 21.592 3.35218 21.75 3.75 21.75H20.25C20.6478 21.75 21.0294 21.592 21.3107 21.3107C21.592 21.0294 21.75 20.6478 21.75 20.25V3.75C21.75 3.35218 21.592 2.97064 21.3107 2.68934C21.0294 2.40804 20.6478 2.25 20.25 2.25ZM3.75 3.75H20.25V6.75H3.75V3.75ZM3.75 20.25V8.25H20.25V20.25H3.75Z" fill="url(#paint2_linear_15_127)"/>
<defs>
<linearGradient id="paint0_linear_15_127" x1="2.25" y1="12" x2="21.75" y2="12" gradientUnits="userSpaceOnUse">
<stop stop-color="#EB9191"/>
<stop offset="1" stop-color="#5A5AE1"/>
</linearGradient>
<linearGradient id="paint1_linear_15_127" x1="2.25" y1="12" x2="21.75" y2="12" gradientUnits="userSpaceOnUse">
<stop stop-color="#EB9191"/>
<stop offset="1" stop-color="#5A5AE1"/>
</linearGradient>
<linearGradient id="paint2_linear_15_127" x1="2.25" y1="12" x2="21.75" y2="12" gradientUnits="userSpaceOnUse">
<stop stop-color="#EB9191"/>
<stop offset="1" stop-color="#5A5AE1"/>
</linearGradient>
</defs>
</svg>
