<svg width="24" height="24" viewBox="0 0 24 24" fill="none" xmlns="http://www.w3.org/2000/svg">
<path d="M17.25 22.5003L15.646 21.7407C15.0052 21.4354 14.4638 20.9552 14.0841 20.3554C13.7044 19.7557 13.5019 19.0609 13.5 18.3511V13.5003H21V18.3511C20.9981 19.061 20.7957 19.7559 20.416 20.3557C20.0363 20.9554 19.4948 21.4357 18.854 21.7411L17.25 22.5003ZM15 15.0003V18.3511C15.0012 18.7769 15.1227 19.1937 15.3505 19.5534C15.5783 19.9132 15.9032 20.2012 16.2876 20.3843L17.25 20.8398L18.2124 20.3843C18.5968 20.2012 18.9217 19.9132 19.1495 19.5534C19.3773 19.1937 19.4988 18.7769 19.5 18.3511V15.0003H15Z" fill="url(#paint0_linear_18_181)"/>
<path d="M12 21.0003H4.5V3.00026H10.5V7.50026C10.5011 7.89773 10.6596 8.27859 10.9406 8.55965C11.2217 8.84071 11.6025 8.99911 12 9.00026H16.5V11.2503H18V7.50026C18.0027 7.40168 17.984 7.3037 17.9451 7.21306C17.9063 7.12243 17.8482 7.04129 17.775 6.97526L12.525 1.72526C12.459 1.652 12.3778 1.59395 12.2872 1.5551C12.1966 1.51626 12.0986 1.49755 12 1.50026H4.5C4.10253 1.50141 3.72166 1.65981 3.44061 1.94087C3.15955 2.22192 3.00115 2.60279 3 3.00026V21.0003C3.00115 21.3977 3.15955 21.7786 3.44061 22.0596C3.72166 22.3407 4.10253 22.4991 4.5 22.5003H12V21.0003ZM12 3.30026L16.2 7.50026H12V3.30026Z" fill="url(#paint1_linear_18_181)"/>
<defs>
<linearGradient id="paint0_linear_18_181" x1="3" y1="12.0001" x2="17.3885" y2="12.0001" gradientUnits="userSpaceOnUse">
<stop stop-color="#C8EB87"/>
<stop offset="1" stop-color="#5A5AE1"/>
</linearGradient>
<linearGradient id="paint1_linear_18_181" x1="3" y1="12.0001" x2="17.3885" y2="12.0001" gradientUnits="userSpaceOnUse">
<stop stop-color="#C8EB87"/>
<stop offset="1" stop-color="#5A5AE1"/>
</linearGradient>
</defs>
</svg>
