<svg width="24" height="24" viewBox="0 0 24 24" fill="none" xmlns="http://www.w3.org/2000/svg">
<path d="M15 6V7.5H19.9394L13.5 13.9394L10.2802 10.7198C10.2106 10.6501 10.128 10.5948 10.037 10.5571C9.94601 10.5194 9.84849 10.5 9.75 10.5C9.65151 10.5 9.55399 10.5194 9.463 10.5571C9.37202 10.5948 9.28936 10.6501 9.21975 10.7198L1.5 18.4394L2.56057 19.5L9.75 12.3106L12.9697 15.5303C13.0394 15.5999 13.122 15.6552 13.213 15.6929C13.304 15.7306 13.4015 15.75 13.5 15.75C13.5985 15.75 13.696 15.7306 13.787 15.6929C13.878 15.6552 13.9606 15.5999 14.0303 15.5303L21 8.56057V13.5H22.5V6H15Z" fill="url(#paint0_linear_17_162)"/>
<defs>
<linearGradient id="paint0_linear_17_162" x1="1.5" y1="12.75" x2="22.5" y2="12.75" gradientUnits="userSpaceOnUse">
<stop stop-color="#C8EB87"/>
<stop offset="1" stop-color="#E66464"/>
</linearGradient>
</defs>
</svg>
