<svg width="50" height="50" viewBox="0 0 50 50" fill="none" xmlns="http://www.w3.org/2000/svg">
<path d="M24.9998 4.16699C26.4873 4.16699 27.9561 4.32324 29.3873 4.62949C29.662 4.68829 29.9156 4.82002 30.1217 5.01082C30.3278 5.20162 30.4786 5.44443 30.5584 5.71371C30.6381 5.98299 30.6438 6.26879 30.5748 6.54103C30.5059 6.81327 30.3648 7.06189 30.1665 7.26074C29.5113 7.91863 29.0437 8.73967 28.8123 9.63889C28.5809 10.5381 28.5939 11.4828 28.8501 12.3753C29.1063 13.2678 29.5964 14.0756 30.2696 14.7151C30.9427 15.3547 31.7746 15.8027 32.679 16.0128C33.0513 16.0988 33.3792 16.3181 33.6007 16.6295C33.8222 16.9408 33.922 17.3225 33.8811 17.7024C33.7701 18.799 34.0098 19.9025 34.5657 20.8542C35.1217 21.8058 35.9652 22.5566 36.9749 22.9985C37.9846 23.4403 39.1084 23.5505 40.1847 23.3131C41.261 23.0757 42.2343 22.503 42.9644 21.6774C43.1642 21.4513 43.4251 21.2878 43.7157 21.2067C44.0063 21.1257 44.3142 21.1305 44.6021 21.2206C44.8901 21.3107 45.1458 21.4823 45.3384 21.7145C45.5309 21.9468 45.6521 22.2298 45.6873 22.5295C45.7853 23.342 45.8332 24.1691 45.8332 25.0003C45.8332 36.5066 36.5061 45.8337 24.9998 45.8337C13.4936 45.8337 4.1665 36.5066 4.1665 25.0003C4.1665 13.4941 13.4936 4.16699 24.9998 4.16699ZM31.2498 33.3337C30.6973 33.3337 30.1674 33.5532 29.7767 33.9438C29.386 34.3346 29.1665 34.8645 29.1665 35.417C29.1665 35.9695 29.386 36.4994 29.7767 36.8901C30.1674 37.2808 30.6973 37.5003 31.2498 37.5003C31.8024 37.5003 32.3323 37.2808 32.723 36.8901C33.1137 36.4994 33.3332 35.9695 33.3332 35.417C33.3332 34.8645 33.1137 34.3346 32.723 33.9438C32.3323 33.5532 31.8024 33.3337 31.2498 33.3337ZM16.6665 31.2503C16.114 31.2503 15.5841 31.4698 15.1934 31.8605C14.8027 32.2512 14.5832 32.7811 14.5832 33.3337C14.5832 33.8862 14.8027 34.4161 15.1934 34.8068C15.5841 35.1975 16.114 35.417 16.6665 35.417C17.219 35.417 17.7489 35.1975 18.1396 34.8068C18.5303 34.4161 18.7498 33.8862 18.7498 33.3337C18.7498 32.7811 18.5303 32.2512 18.1396 31.8605C17.7489 31.4698 17.219 31.2503 16.6665 31.2503ZM24.9998 22.917C24.4473 22.917 23.9174 23.1365 23.5267 23.5272C23.136 23.9179 22.9165 24.4478 22.9165 25.0003C22.9165 25.5529 23.136 26.0828 23.5267 26.4735C23.9174 26.8642 24.4473 27.0837 24.9998 27.0837C25.5524 27.0837 26.0823 26.8642 26.473 26.4735C26.8637 26.0828 27.0832 25.5529 27.0832 25.0003C27.0832 24.4478 26.8637 23.9179 26.473 23.5272C26.0823 23.1365 25.5524 22.917 24.9998 22.917ZM14.5832 16.667C14.0306 16.667 13.5007 16.8865 13.11 17.2772C12.7193 17.6679 12.4998 18.1978 12.4998 18.7503C12.4998 19.3029 12.7193 19.8328 13.11 20.2235C13.5007 20.6142 14.0306 20.8337 14.5832 20.8337C15.1357 20.8337 15.6656 20.6142 16.0563 20.2235C16.447 19.8328 16.6665 19.3029 16.6665 18.7503C16.6665 18.1978 16.447 17.6679 16.0563 17.2772C15.6656 16.8865 15.1357 16.667 14.5832 16.667Z" fill="url(#paint0_linear_2223_2719)"/>
<defs>
<linearGradient id="paint0_linear_2223_2719" x1="4.1665" y1="25.0003" x2="45.8332" y2="25.0003" gradientUnits="userSpaceOnUse">
<stop stop-color="#EB9191"/>
<stop offset="1" stop-color="#5A5AE1"/>
</linearGradient>
</defs>
</svg>
