<svg width="118" height="30" viewBox="0 0 118 30" fill="none" xmlns="http://www.w3.org/2000/svg">
<g opacity="0.8" clip-path="url(#clip0_61_695)">
<path d="M6.89865 6.64944H0V0.0410156H21.37V6.64944H14.4632L14.4664 26.0157H6.90354L6.89865 6.64944Z" fill="white"/>
<path d="M27.663 17.5286C26.8323 17.9586 25.8971 18.2069 24.9668 18.4193C23.4441 18.7739 22.6477 19.1662 22.6428 20.4337C22.6379 21.3056 23.5306 22.1792 24.7726 22.1878C26.3263 22.1963 27.5389 21.2268 27.6548 19.2689L27.663 17.5286ZM34.2009 21.8109C34.1911 23.2241 34.2515 24.8188 35.0039 26.0195L28.0302 25.9767C27.8604 25.468 27.7609 24.7057 27.8001 24.2004H27.7299C26.2708 25.9305 24.1622 26.4238 21.9508 26.4118C18.499 26.3895 15.643 24.6338 15.6642 20.6838C15.6985 14.74 22.3278 14.9986 25.8171 14.3323C26.7507 14.1559 27.6842 13.8715 27.6891 12.6759C27.6972 11.4067 26.5613 10.927 25.4564 10.9219C23.3511 10.9116 22.9284 12.0302 22.8909 12.8267L16.5373 12.789C16.7723 7.4995 21.5412 6.65846 25.7894 6.68415C34.3511 6.73725 34.2629 10.4697 34.2401 14.0925L34.2009 21.8109Z" fill="white"/>
<path d="M44.7382 12.0178C42.2868 12.0024 41.7221 14.4279 41.7091 16.6358C41.696 18.8815 42.2362 21.3155 44.6859 21.3309C47.1389 21.3446 47.7036 18.9209 47.7166 16.6718C47.7297 14.4639 47.1895 12.0298 44.7382 12.0178ZM35.207 0H42.042L41.9931 9.31997H42.0616C43.1061 7.7321 44.9405 6.80027 46.979 6.81226C52.9849 6.84995 54.5778 12.2217 54.5533 16.6444C54.5272 21.3549 52.0465 26.593 46.9724 26.5639C43.6235 26.5416 42.5953 25.1953 41.7385 23.9928H41.6699L41.6569 26.0158H35.207V0Z" fill="white"/>
<path d="M64.149 5.263C61.5589 5.24587 61.1982 7.89061 61.1868 9.88273C61.177 11.8749 61.5067 14.5607 64.0951 14.5761C66.6835 14.5915 67.0458 11.9125 67.0573 9.91699C67.0687 7.92487 66.7374 5.27841 64.149 5.263ZM64.0674 19.7937C57.3335 19.7525 54.3208 15.0592 54.3518 9.84162C54.3812 4.62237 57.4429 0.0043476 64.1767 0.0471705C70.9105 0.0865675 73.9233 4.74227 73.8939 9.96152C73.8629 15.1774 70.8012 19.8348 64.0674 19.7937Z" fill="white"/>
<path d="M81.1122 5.26273C78.5237 5.24561 78.1631 7.89035 78.1533 9.88418C78.1402 11.8763 78.4715 14.5604 81.0616 14.5759C83.6484 14.593 84.0107 11.9123 84.0221 9.91844C84.0319 7.92632 83.7006 5.27815 81.1122 5.26273ZM81.0306 19.7951C74.2984 19.7523 71.2856 15.0589 71.3166 9.84136C71.3444 4.62382 74.4077 0.00408421 81.1399 0.0451942C87.8721 0.0863041 90.8848 4.74201 90.8571 9.95955C90.8277 15.1805 87.7644 19.8345 81.0306 19.7951Z" fill="white"/>
<path d="M91.5938 0.046875H98.2851V26.0164H91.5938V0.046875Z" fill="white"/>
<path d="M110.747 17.466C109.917 17.8943 108.981 18.1426 108.051 18.3533C106.527 18.7079 105.734 19.1019 105.725 20.3694C105.721 21.2396 106.613 22.1132 107.855 22.1217C109.411 22.1303 110.623 21.1608 110.737 19.2029L110.747 17.466ZM117.328 21.7432C117.321 23.1563 117.246 24.8144 118 26.0152H111.129C110.961 25.5065 110.845 24.6397 110.884 24.1344L110.814 24.1327C109.355 25.8627 107.248 26.3578 105.037 26.3441C101.583 26.3201 98.7273 24.5644 98.7501 20.6144C98.7844 14.6706 105.411 14.9309 108.901 14.2646C109.835 14.0882 110.769 13.8038 110.775 12.6082C110.783 11.3389 109.647 10.861 108.541 10.8542C106.434 10.8422 106.014 11.9624 105.977 12.7589L99.62 12.723C99.8567 7.43349 104.627 6.59073 108.874 6.61985C117.435 6.66953 117.347 10.4037 117.326 14.0265V21.7432H117.328Z" fill="white"/>
<path d="M56.9148 19.7969C61.7685 22.0733 66.805 23.084 72.2936 23.1165C78.0596 23.1525 82.4318 22.01 87.9661 19.7969L87.9334 26.0661C82.9802 28.6441 77.6075 30.035 72.2544 30.0024C66.4198 29.9665 62.2157 28.7092 56.8789 26.0661L56.9148 19.7969Z" fill="white"/>
</g>
<defs>
<clipPath id="clip0_61_695">
<rect width="118" height="30" fill="white"/>
</clipPath>
</defs>
</svg>
