<svg width="146" height="26" viewBox="0 0 146 26" fill="none" xmlns="http://www.w3.org/2000/svg">
<g opacity="0.8">
<path d="M14.161 17.1464C14.161 18.641 14.4838 19.7886 14.9058 20.4828C15.4591 21.3921 16.2844 21.7774 17.1257 21.7774C18.2108 21.7774 19.2035 21.5038 21.1165 18.8153C22.6491 16.6604 24.455 13.6357 25.67 11.7395L27.7278 8.52691C29.1572 6.29581 30.8117 3.8156 32.7086 2.13445C34.2573 0.762304 35.9278 0 37.6091 0C40.4318 0 43.1205 1.66209 45.1782 4.77937C47.4302 8.1934 48.5233 12.4936 48.5233 16.9313C48.5233 19.5694 48.0116 21.5079 47.1408 23.0393C46.2995 24.5203 44.6597 26 41.9014 26V21.7774C44.2632 21.7774 44.8527 19.5721 44.8527 17.0484C44.8527 13.4519 44.0274 9.46073 42.2095 6.6089C40.9194 4.58607 39.2475 3.35005 37.4081 3.35005C35.4188 3.35005 33.8179 4.87466 32.0187 7.59309C31.0622 9.03738 30.0802 10.7975 28.9777 12.7836L27.7639 14.9684C25.3257 19.3612 24.7082 20.3617 23.4891 22.0129C21.3523 24.9042 19.5277 26 17.1257 26C14.2762 26 12.4744 24.7463 11.3584 22.8569C10.4474 21.3173 10 19.2972 10 16.9953L14.161 17.1464Z" fill="white"/>
<path d="M13.2808 5.07749C15.1885 2.08953 17.9415 0 21.0991 0C22.9277 0 24.7457 0.549948 26.644 2.12492C28.7204 3.84691 30.9336 6.68241 33.6946 11.3556L34.6846 13.0327C37.0746 17.0783 38.4343 19.1597 39.2301 20.1412C40.2536 21.4017 40.9703 21.7774 41.9014 21.7774C44.2632 21.7774 44.8527 19.5721 44.8527 17.0484L48.5233 16.9313C48.5233 19.5694 48.0116 21.5079 47.1408 23.0393C46.2995 24.5203 44.6597 26 41.9014 26C40.1866 26 38.6674 25.6216 36.9875 24.0112C35.6961 22.7752 34.1863 20.5795 33.0248 18.6057L29.5698 12.7414C27.8363 9.79832 26.2461 7.60398 25.3257 6.61026C24.3357 5.54168 23.0631 4.2512 21.0321 4.2512C19.3884 4.2512 17.9924 5.42325 16.8242 7.21602L13.2808 5.07749Z" fill="white"/>
<path d="M21.0321 4.2512C19.3884 4.2512 17.9924 5.42325 16.8242 7.21602C15.1724 9.74932 14.161 13.5227 14.161 17.1464C14.161 18.641 14.4838 19.7886 14.9058 20.4828L11.3584 22.8569C10.4474 21.3173 10 19.2972 10 16.9953C10 12.8094 11.1307 8.4466 13.2808 5.07749C15.1885 2.08953 17.9415 0 21.0991 0L21.0321 4.2512Z" fill="white"/>
<path d="M56.6122 0.822184H61.4256L69.6096 15.8668L77.795 0.822184H82.5039V25.5426H78.5773V6.59663L71.3994 19.7164H67.7153L60.5388 6.59663V25.5426H56.6122V0.822184ZM94.8073 10.0393C91.9914 10.0393 90.2954 12.1928 89.8894 14.8595H99.4466C99.2497 12.1124 97.6903 10.0393 94.8073 10.0393ZM85.9964 16.3786C85.9964 10.7675 89.5652 6.68376 94.8757 6.68376C100.099 6.68376 103.218 10.7158 103.218 16.6781V17.7739H89.8894C90.3623 20.6748 92.2566 22.6295 95.3111 22.6295C97.7479 22.6295 99.2711 21.874 100.715 20.4923L102.801 23.0883C100.836 24.9246 98.336 25.9837 95.1717 25.9837C89.4232 25.9837 85.9964 21.7243 85.9964 16.3786ZM107.979 10.3932H104.364V7.12616H107.979V1.72334H111.767V7.12616H117.259V10.3932H111.767V18.6737C111.767 21.501 112.657 22.5056 114.843 22.5056C115.841 22.5056 116.413 22.4185 117.259 22.2756V25.5072C116.206 25.8094 115.201 25.9483 114.113 25.9483C110.023 25.9483 107.979 23.6777 107.979 19.1324V10.3932ZM133.211 13.5704C132.45 11.6183 130.753 10.1808 128.259 10.1808C125.017 10.1808 122.942 12.5181 122.942 16.3255C122.942 20.0377 124.852 22.4879 128.103 22.4879C130.659 22.4879 132.484 20.977 133.211 19.0971V13.5704ZM137 25.5426H133.281V22.9644C132.242 24.4822 130.35 25.9837 127.286 25.9837C122.359 25.9837 119.066 21.7923 119.066 16.3255C119.066 10.807 122.438 6.68376 127.495 6.68376C129.995 6.68376 131.956 7.69925 133.281 9.49203V7.12616H137V25.5426Z" fill="white"/>
</g>
</svg>
