<svg width="103" height="44" viewBox="0 0 103 44" fill="none" xmlns="http://www.w3.org/2000/svg">
<g opacity="0.8">
<path d="M43.967 23.5125C43.967 28.3921 40.1712 31.9878 35.5128 31.9878C30.8544 31.9878 27.0586 28.3921 27.0586 23.5125C27.0586 18.5984 30.8544 15.0371 35.5128 15.0371C40.1712 15.0371 43.967 18.5984 43.967 23.5125ZM40.2662 23.5125C40.2662 20.4632 38.0662 18.3768 35.5128 18.3768C32.9595 18.3768 30.7595 20.4632 30.7595 23.5125C30.7595 26.5312 32.9595 28.6481 35.5128 28.6481C38.0662 28.6481 40.2662 26.5274 40.2662 23.5125Z" fill="white"/>
<path d="M62.2092 23.5125C62.2092 28.3921 58.4134 31.9878 53.755 31.9878C49.0966 31.9878 45.3008 28.3921 45.3008 23.5125C45.3008 18.6023 49.0966 15.0371 53.755 15.0371C58.4134 15.0371 62.2092 18.5984 62.2092 23.5125ZM58.5084 23.5125C58.5084 20.4632 56.3084 18.3768 53.755 18.3768C51.2016 18.3768 49.0016 20.4632 49.0016 23.5125C49.0016 26.5312 51.2016 28.6481 53.755 28.6481C56.3084 28.6481 58.5084 26.5274 58.5084 23.5125Z" fill="white"/>
<path d="M79.6874 15.5491V30.765C79.6874 37.0241 76.0169 39.5805 71.6777 39.5805C67.5931 39.5805 65.1347 36.8331 64.2076 34.5862L67.4297 33.2373C68.0034 34.6168 69.4093 36.2446 71.6739 36.2446C74.4514 36.2446 76.1727 34.5212 76.1727 31.2771V30.0581H76.0435C75.2152 31.086 73.6193 31.984 71.6055 31.984C67.3917 31.984 63.5312 28.2927 63.5312 23.543C63.5312 18.7589 67.3917 15.0371 71.6055 15.0371C73.6155 15.0371 75.2114 15.9351 76.0435 16.9324H76.1727V15.553H79.6874V15.5491ZM76.4349 23.543C76.4349 20.5587 74.4552 18.3768 71.9361 18.3768C69.3827 18.3768 67.2435 20.5587 67.2435 23.543C67.2435 26.4968 69.3827 28.6481 71.9361 28.6481C74.4552 28.6481 76.4349 26.4968 76.4349 23.543Z" fill="white"/>
<path d="M85.4808 6.63086V31.4685H81.8711V6.63086H85.4808Z" fill="white"/>
<path d="M99.5474 26.3018L102.42 28.2277C101.493 29.6071 99.2586 31.9839 95.3982 31.9839C90.6106 31.9839 87.0352 28.2621 87.0352 23.5086C87.0352 18.4684 90.641 15.0332 94.984 15.0332C99.3574 15.0332 101.497 18.5334 102.196 20.4249L102.58 21.3878L91.3136 26.0802C92.1761 27.7806 93.5174 28.648 95.3982 28.648C97.2828 28.648 98.5899 27.7157 99.5474 26.3018ZM90.7056 23.2525L98.2365 20.1077C97.8224 19.0493 96.5761 18.3118 95.1094 18.3118C93.2286 18.3118 90.6106 19.9816 90.7056 23.2525V23.2525Z" fill="white"/>
<path d="M13.3972 21.3079V17.7122H25.4459C25.5637 18.3389 25.6244 19.0802 25.6244 19.8826C25.6244 22.5804 24.8911 25.9163 22.5277 28.293C20.2289 30.7004 17.2918 31.9843 13.401 31.9843C6.18924 31.9843 0.125 26.0767 0.125 18.8242C0.125 11.5716 6.18924 5.66406 13.401 5.66406C17.3906 5.66406 20.2327 7.23838 22.3681 9.29035L19.8452 11.8276C18.3139 10.3832 16.2393 9.25978 13.3972 9.25978C8.13086 9.25978 4.01204 13.528 4.01204 18.8242C4.01204 24.1203 8.13086 28.3886 13.3972 28.3886C16.8131 28.3886 18.7585 27.0091 20.0048 25.7558C21.0155 24.7393 21.6804 23.2873 21.9426 21.3041L13.3972 21.3079V21.3079Z" fill="white"/>
</g>
</svg>
