<svg width="146" height="34" viewBox="0 0 146 34" fill="none" xmlns="http://www.w3.org/2000/svg">
<g opacity="0.8">
<path d="M11.782 13.3897V12.0648C11.3196 11.9919 10.8525 11.952 10.3844 11.9453C5.85235 11.9358 1.83989 14.8568 0.47895 19.1565C-0.881946 23.4561 0.724451 28.1365 4.4447 30.7109C1.65794 27.7446 0.884128 23.4263 2.46894 19.6851C4.05375 15.9438 7.70121 13.4782 11.782 13.3897Z" fill="white" fill-opacity="0.5"/>
<path d="M12.0324 28.3981C14.5664 28.3948 16.6493 26.4092 16.7602 23.8914V1.42263H20.8875C20.8032 0.953143 20.763 0.476886 20.7674 0L15.1224 0V22.447C15.0286 24.9777 12.9408 26.9823 10.3947 26.9864C9.6338 26.98 8.88534 26.7939 8.21094 26.4434C8.648 27.0457 9.222 27.5367 9.88612 27.8764C10.5502 28.2161 11.2856 28.3949 12.0324 28.3981ZM28.596 9.04616V7.79726C27.0771 7.79778 25.5919 7.35197 24.3268 6.51581C25.4358 7.79804 26.9344 8.68627 28.596 9.04616Z" fill="white" fill-opacity="0.5"/>
<path d="M24.3258 6.51617C23.0797 5.10477 22.3927 3.29046 22.3933 1.41211H20.8865C21.0811 2.45063 21.4864 3.43882 22.0778 4.31637C22.6691 5.19391 23.434 5.94241 24.3258 6.51617ZM10.3828 17.5605C8.20829 17.5716 6.32044 19.0533 5.80401 21.1542C5.28754 23.2551 6.27501 25.436 8.19905 26.4438C7.15653 25.0122 7.00925 23.12 7.81781 21.546C8.62646 19.9719 10.2543 18.9818 12.0315 18.9831C12.5054 18.989 12.976 19.0622 13.4291 19.2004V13.4881C12.9664 13.4191 12.4994 13.3828 12.0315 13.3795H11.7804V17.7234C11.3249 17.6019 10.8541 17.5471 10.3828 17.5605Z" fill="white" fill-opacity="0.5"/>
<path d="M28.5973 9.04688V13.3907C25.7855 13.3853 23.0466 12.5001 20.7687 10.8604V22.274C20.7566 27.9692 16.1113 32.5798 10.3851 32.5798C8.2585 32.5836 6.18316 31.931 4.44531 30.712C7.34554 33.8144 11.8591 34.8356 15.8233 33.2864C19.7875 31.737 22.3946 27.9329 22.3955 23.6966V12.3156C24.6811 13.9446 27.4233 14.8183 30.2351 14.8134V9.22061C29.6846 9.21888 29.1358 9.16066 28.5973 9.04688Z" fill="white" fill-opacity="0.5"/>
<path d="M20.7704 22.2736V10.8601C23.0552 12.4903 25.798 13.3642 28.6099 13.3578V9.01391C26.9487 8.665 25.4465 7.78836 24.3298 6.51617C23.438 5.94241 22.6731 5.19391 22.0818 4.31637C21.4904 3.43882 21.0851 2.45063 20.8905 1.41211H16.7633V23.8917C16.6807 25.8973 15.3301 27.6307 13.3981 28.2109C11.4661 28.791 9.37669 28.0905 8.1921 26.4654C6.2681 25.4577 5.28063 23.2768 5.79706 21.1759C6.31353 19.075 8.20133 17.5933 10.3758 17.5822C10.8498 17.5865 11.3207 17.6596 11.7734 17.7994V13.4555C7.66973 13.5247 3.9947 15.9989 2.40544 19.7625C0.816142 23.5261 1.61278 27.8683 4.43612 30.8311C6.19111 32.0099 8.26946 32.6206 10.3868 32.5795C16.113 32.5795 20.7583 27.9689 20.7704 22.2736Z" fill="white"/>
<path d="M48.131 32.592H42.1632V13.2983H36.2067L36.1953 8.0095H54.5896L52.9008 13.2983H48.131V32.592ZM96.6613 32.592H90.7048V13.2983H84.7255L84.7141 8.0095H103.531L101.842 13.2983H96.6613V32.592ZM55.7078 15.8291H61.6072V32.592H55.7535L55.7078 15.8291ZM71.5803 24.4319L69.8344 26.1116V32.592H63.9464V7.94141H69.8344V19.3928L75.6767 13.7182H82.7058L75.323 20.8455L83.5959 32.592H77.1031L71.5803 24.4319ZM133.997 24.4319L132.309 26.1116V32.592H126.409L126.352 7.94141H132.309V19.3928L138.14 13.7182H145.169L137.786 20.8455L146.002 32.592H139.509L133.997 24.4319Z" fill="white"/>
<path d="M58.666 13.9114C60.3046 13.9114 61.6328 12.5903 61.6328 10.9606C61.6328 9.33089 60.3046 8.00977 58.666 8.00977C57.0275 8.00977 55.6992 9.33089 55.6992 10.9606C55.6992 12.5903 57.0275 13.9114 58.666 13.9114Z" fill="white"/>
<path d="M102.774 22.5592C102.776 17.3233 106.825 12.9692 112.074 12.5605H111.195C105.861 12.87 101.695 17.2623 101.695 22.5763C101.695 27.8903 105.861 32.2825 111.195 32.592H112.074C106.812 32.1823 102.758 27.8082 102.774 22.5592Z" fill="white" fill-opacity="0.5"/>
<path d="M114.367 12.5271H113.477C118.708 12.9568 122.733 17.305 122.733 22.5258C122.733 27.7465 118.708 32.0947 113.477 32.5245H114.367C119.938 32.5245 124.454 28.0327 124.454 22.4917C124.454 16.9508 119.938 12.459 114.367 12.459V12.5271Z" fill="white" fill-opacity="0.5"/>
<path d="M112.775 27.4383C110.065 27.4383 107.868 25.2534 107.868 22.5581C107.868 19.8629 110.065 17.678 112.775 17.678C115.485 17.678 117.681 19.8629 117.681 22.5581C117.675 25.2508 115.482 27.4321 112.775 27.4383ZM112.775 12.5254C107.204 12.5254 102.688 17.0172 102.688 22.5581C102.688 28.0991 107.204 32.5909 112.775 32.5909C118.346 32.5909 122.862 28.0991 122.862 22.5581C122.862 19.8973 121.799 17.3454 119.907 15.4639C118.016 13.5824 115.45 12.5254 112.775 12.5254Z" fill="white"/>
</g>
</svg>
