<svg width="139" height="40" viewBox="0 0 139 40" fill="none" xmlns="http://www.w3.org/2000/svg">
<g opacity="0.8">
<path d="M138.879 18.1947V15.7933H135.846V12.06L135.744 12.091L132.895 12.948L132.839 12.9647V15.7934H128.342V14.2176C128.342 13.4838 128.509 12.9223 128.838 12.5479C129.165 12.1779 129.632 11.9898 130.228 11.9898C130.656 11.9898 131.099 12.089 131.546 12.2846L131.658 12.3337V9.80473L131.605 9.7857C131.189 9.63856 130.622 9.56445 129.92 9.56445C129.036 9.56445 128.232 9.75374 127.531 10.1289C126.83 10.5045 126.278 11.0408 125.891 11.7227C125.506 12.4037 125.311 13.1903 125.311 14.0608V15.7933H123.199V18.1947H125.311V28.3114H128.342V18.1947H132.839V24.6237C132.839 27.2715 134.109 28.6132 136.614 28.6132C137.026 28.6132 137.459 28.5658 137.901 28.473C138.352 28.3776 138.659 28.2824 138.839 28.1806L138.879 28.1574V25.7338L138.756 25.814C138.591 25.9218 138.386 26.0099 138.146 26.0754C137.905 26.1421 137.703 26.1755 137.547 26.1755C136.96 26.1755 136.526 26.02 136.257 25.7132C135.984 25.4036 135.846 24.8621 135.846 24.1047V18.1947H138.879ZM116.428 26.1759C115.328 26.1759 114.46 25.8171 113.849 25.1105C113.234 24.4002 112.922 23.3876 112.922 22.101C112.922 20.7737 113.234 19.7348 113.849 19.012C114.461 18.2939 115.32 17.9295 116.404 17.9295C117.455 17.9295 118.292 18.2775 118.891 18.9645C119.493 19.6551 119.799 20.6857 119.799 22.0285C119.799 23.3879 119.512 24.432 118.945 25.1305C118.382 25.8237 117.535 26.1759 116.428 26.1759V26.1759ZM116.563 15.4918C114.464 15.4918 112.796 16.0966 111.607 17.2895C110.419 18.4826 109.817 20.1336 109.817 22.1971C109.817 24.157 110.405 25.7335 111.565 26.8821C112.724 28.031 114.303 28.613 116.256 28.613C118.291 28.613 119.925 27.9997 121.114 26.7903C122.302 25.5822 122.904 23.9467 122.904 21.9314C122.904 19.9408 122.339 18.3526 121.225 17.2117C120.109 16.0703 118.541 15.4918 116.563 15.4918V15.4918ZM104.928 15.4918C103.5 15.4918 102.319 15.8509 101.417 16.559C100.509 17.2714 100.048 18.2057 100.048 19.3363C100.048 19.9239 100.148 20.4459 100.343 20.8887C100.54 21.3329 100.845 21.7241 101.249 22.0523C101.651 22.3779 102.271 22.719 103.092 23.066C103.783 23.3453 104.297 23.5816 104.625 23.7679C104.944 23.9504 105.171 24.1339 105.299 24.3126C105.424 24.4875 105.487 24.7269 105.487 25.0222C105.487 25.8632 104.847 26.2725 103.528 26.2725C103.04 26.2725 102.482 26.1721 101.871 25.9742C101.265 25.7793 100.692 25.4939 100.174 25.128L100.048 25.0393V27.9092L100.094 27.9303C100.523 28.125 101.064 28.2892 101.701 28.4184C102.338 28.5477 102.916 28.6135 103.418 28.6135C104.968 28.6135 106.216 28.2526 107.126 27.5403C108.043 26.823 108.507 25.8667 108.507 24.697C108.507 23.8532 108.257 23.1296 107.764 22.5461C107.275 21.9672 106.425 21.4358 105.24 20.9661C104.297 20.5936 103.692 20.2844 103.442 20.047C103.202 19.8177 103.08 19.4934 103.08 19.0828C103.08 18.7187 103.231 18.4271 103.54 18.1909C103.852 17.9535 104.286 17.8328 104.83 17.8328C105.335 17.8328 105.852 17.9113 106.366 18.065C106.88 18.2188 107.331 18.4247 107.707 18.6766L107.831 18.7598V16.0374L107.784 16.0173C107.436 15.8709 106.978 15.7455 106.422 15.6438C105.868 15.5427 105.365 15.4918 104.928 15.4918V15.4918ZM92.1444 26.1759C91.0443 26.1759 90.1764 25.8171 89.5651 25.1105C88.9498 24.4002 88.6387 23.3879 88.6387 22.101C88.6387 20.7737 88.9502 19.7348 89.5658 19.012C90.1771 18.2939 91.0362 17.9295 92.1201 17.9295C93.171 17.9295 94.0078 18.2775 94.6074 18.9645C95.2099 19.6551 95.5156 20.6857 95.5156 22.0285C95.5156 23.3879 95.2279 24.432 94.661 25.1305C94.098 25.8237 93.2517 26.1759 92.1444 26.1759V26.1759ZM92.2796 15.4918C90.1796 15.4918 88.512 16.0966 87.3237 17.2895C86.1356 18.4826 85.5328 20.1336 85.5328 22.1971C85.5328 24.1578 86.1212 25.7335 87.2811 26.8821C88.4411 28.031 90.0195 28.613 91.9725 28.613C94.0073 28.613 95.642 27.9997 96.8304 26.7903C98.0184 25.5822 98.6207 23.9467 98.6207 21.9314C98.6207 19.9408 98.0557 18.3526 96.9407 17.2117C95.8252 16.0703 94.2569 15.4918 92.2796 15.4918V15.4918ZM80.9306 17.9612V15.7933H77.9358V28.3111H80.9306V21.9078C80.9306 20.819 81.1817 19.9245 81.6772 19.2488C82.1663 18.5812 82.8182 18.2429 83.614 18.2429C83.8838 18.2429 84.1866 18.2867 84.5145 18.3732C84.8391 18.4592 85.0742 18.5526 85.2129 18.6508L85.3388 18.7405V15.7719L85.2903 15.7514C85.0114 15.6349 84.6168 15.5762 84.1176 15.5762C83.3649 15.5762 82.6915 15.8139 82.1146 16.2821C81.6082 16.6935 81.2423 17.2577 80.9624 17.9612H80.9306ZM72.5726 15.4918C71.1986 15.4918 69.9731 15.7814 68.9307 16.3525C67.8862 16.9248 67.0784 17.7419 66.5288 18.7809C65.9816 19.8175 65.7037 21.0282 65.7037 22.3784C65.7037 23.5612 65.9731 24.6466 66.5055 25.6032C67.0382 26.5613 67.7921 27.311 68.7465 27.8309C69.6996 28.3501 70.8011 28.6134 72.0207 28.6134C73.4439 28.6134 74.6591 28.3336 75.6334 27.7819L75.6727 27.7597V25.062L75.5468 25.1523C75.1055 25.4684 74.6123 25.7207 74.0817 25.9025C73.5523 26.0841 73.0698 26.1759 72.6466 26.1759C71.4715 26.1759 70.5281 25.8144 69.8433 25.1016C69.1571 24.3879 68.8091 23.3858 68.8091 22.1247C68.8091 20.8557 69.172 19.8278 69.8871 19.0693C70.6001 18.3131 71.5452 17.9295 72.696 17.9295C73.6804 17.9295 74.6396 18.2572 75.5471 18.9044L75.6727 18.9941V16.1517L75.6321 16.1292C75.2906 15.9413 74.8249 15.7861 74.2466 15.6684C73.6708 15.5509 73.1077 15.4918 72.5726 15.4918V15.4918ZM63.6411 15.7934H60.6463V28.3111H63.6411V15.7934V15.7934ZM62.1743 10.4608C61.6814 10.4608 61.2515 10.6258 60.8983 10.9527C60.5437 11.2806 60.3638 11.6934 60.3638 12.1805C60.3638 12.66 60.5415 13.0653 60.8928 13.3844C61.2418 13.7026 61.6731 13.8639 62.1745 13.8639C62.6757 13.8639 63.1086 13.7026 63.4618 13.3849C63.8173 13.0653 63.9975 12.6601 63.9975 12.1805C63.9975 11.7104 63.8221 11.3018 63.4764 10.9659C63.131 10.6307 62.6928 10.4608 62.1743 10.4608ZM54.702 14.8699V28.3111H57.7584V10.844H53.5283L48.1515 23.8181L42.9336 10.844H38.5312V28.311H41.4034V14.8686H41.502L47.012 28.3111H49.1795L54.6034 14.8699H54.702V14.8699Z" fill="white"/>
<path d="M14.0886 18.8599H0V5.00781H14.0886V18.8599Z" fill="white"/>
<path d="M29.643 18.8599H15.5547V5.00781H29.643V18.8599Z" fill="white"/>
<path d="M14.0882 34.1586H0V20.3066H14.0882V34.1586Z" fill="white"/>
<path d="M29.643 34.1586H15.5547V20.3066H29.643V34.1586Z" fill="white"/>
</g>
</svg>
