<svg width="156" height="30" viewBox="0 0 156 30" fill="none" xmlns="http://www.w3.org/2000/svg">
<g opacity="0.8" clip-path="url(#clip0_61_662)">
<path fill-rule="evenodd" clip-rule="evenodd" d="M30.8242 11.429C30.8242 10.6866 31.0312 10.1519 31.444 9.8211C31.858 9.49026 32.4415 9.32617 33.192 9.32617C33.6565 9.32617 34.0834 9.3844 34.4716 9.5035C34.8585 9.62392 35.1172 9.70862 35.2479 9.76155V20.196C35.2479 21.9958 35.6593 23.3668 36.4887 24.3037C37.3168 25.2419 38.5835 25.713 40.2913 25.713C41.9979 25.713 43.2646 25.2419 44.0927 24.3037C44.9208 23.3668 45.3348 21.9958 45.3348 20.196V11.429C45.3348 10.6866 45.5405 10.1519 45.9546 9.8211C46.3686 9.49026 46.9366 9.32617 47.6611 9.32617C48.1541 9.32617 48.5927 9.3844 48.9796 9.5035C49.369 9.62392 49.6278 9.70862 49.7559 9.76155V21.1885C49.7559 22.5383 49.5295 23.7479 49.0779 24.8198C48.6238 25.8917 47.9794 26.7968 47.1384 27.5366C46.2987 28.2777 45.296 28.8401 44.1315 29.2238C42.9683 29.6063 41.6874 29.7995 40.2913 29.7995C38.894 29.7995 37.6144 29.6063 36.4512 29.2238C35.2854 28.8401 34.2905 28.2777 33.4624 27.5366C32.6343 26.7968 31.9887 25.8917 31.5229 24.8198C31.0584 23.7479 30.8242 22.5383 30.8242 21.1885V11.429Z" fill="white"/>
<path fill-rule="evenodd" clip-rule="evenodd" d="M53.25 5.79419C53.25 5.05179 53.4557 4.51849 53.8711 4.18633C54.2838 3.8555 54.8531 3.69141 55.5776 3.69141C56.0421 3.69141 56.4743 3.74963 56.8767 3.87006C57.2778 3.98916 57.5417 4.07517 57.6724 4.12678V9.32484H63.2981C64.152 9.32484 64.7524 9.50349 65.1017 9.85947C65.451 10.2181 65.6231 10.7382 65.6231 11.4276C65.6231 11.8789 65.561 12.2931 65.4316 12.6768C65.301 13.0606 65.1975 13.3319 65.1211 13.4907H57.6724V22.3398C57.6724 23.0267 57.7617 23.5891 57.9441 24.0244C58.1252 24.4611 58.3763 24.8118 58.6997 25.0752C59.0245 25.3412 59.3984 25.5264 59.8254 25.6336C60.251 25.7382 60.6987 25.7898 61.1619 25.7898C61.9137 25.7898 62.6123 25.672 63.258 25.4338C63.9036 25.1956 64.372 24.9706 64.6553 24.7602L66.4396 27.7748C66.2325 27.9336 65.9427 28.1334 65.5675 28.3703C65.191 28.6085 64.733 28.8334 64.1895 29.0439C63.6461 29.2569 63.038 29.4342 62.3665 29.5811C61.6937 29.7254 60.9575 29.7982 60.1566 29.7982C57.8794 29.7982 56.1599 29.1974 54.9967 27.9918C53.8309 26.7915 53.25 25.2102 53.25 23.2516V5.79419Z" fill="white"/>
<path fill-rule="evenodd" clip-rule="evenodd" d="M78.6578 25.7124C79.5364 25.7124 80.345 25.547 81.0825 25.2161C81.8187 24.8853 82.4527 24.4367 82.9832 23.8663C83.5137 23.2973 83.9212 22.6237 84.2059 21.8416C84.4892 21.0635 84.6316 20.2113 84.6316 19.2836C84.6316 18.3573 84.4892 17.4971 84.2059 16.7031C83.9212 15.9105 83.5137 15.2303 82.9832 14.6612C82.4527 14.0935 81.8187 13.6436 81.0825 13.3127C80.345 12.9819 79.5364 12.8152 78.6578 12.8152C77.7521 12.8152 76.9318 12.9819 76.1943 13.3127C75.4568 13.6436 74.8293 14.1001 74.3131 14.6798C73.7942 15.2633 73.3893 15.9515 73.0904 16.7442C72.7941 17.5382 72.6453 18.3851 72.6453 19.2836C72.6453 20.2351 72.7941 21.1085 73.0904 21.9012C73.3893 22.6965 73.8007 23.3701 74.3325 23.9246C74.8617 24.4804 75.4957 24.9171 76.2344 25.2347C76.9694 25.5536 77.778 25.7124 78.6578 25.7124ZM68.2617 2.10278C68.2617 1.3895 68.4674 0.860168 68.8815 0.516101C69.2942 0.172034 69.8777 0 70.6269 0C71.0927 0 71.5196 0.0595501 71.9065 0.17865C72.2947 0.299074 72.5521 0.383767 72.6841 0.436701V11.824C73.3297 10.9771 74.2225 10.2572 75.3598 9.66167C76.4984 9.06617 77.8039 8.76709 79.2776 8.76709C80.7008 8.76709 82.0141 9.02647 83.2161 9.54257C84.4181 10.0587 85.4674 10.7865 86.3576 11.7247C87.2516 12.6643 87.9503 13.7746 88.4523 15.0569C88.9582 16.3405 89.2092 17.7486 89.2092 19.2836C89.2092 20.7909 88.9504 22.195 88.4342 23.4892C87.9167 24.7861 87.1908 25.8977 86.2631 26.8227C85.3302 27.749 84.224 28.4768 82.9444 29.0049C81.6635 29.5342 80.2609 29.7975 78.7355 29.7975C77.2087 29.7975 75.8062 29.5607 74.5266 29.0843C73.2444 28.6079 72.142 27.8933 71.2091 26.9418C70.2775 25.989 69.5543 24.7993 69.0367 23.3701C68.5192 21.9409 68.2617 20.2629 68.2617 18.3322V2.10278Z" fill="white"/>
<path fill-rule="evenodd" clip-rule="evenodd" d="M91.8086 16.4277C91.8086 13.9941 92.5383 12.1096 94.0004 10.7744C95.4611 9.43782 97.486 8.76953 100.071 8.76953C101.701 8.76953 103.026 9.00244 104.048 9.46296C105.071 9.92745 105.582 10.6341 105.582 11.5882C105.582 12.0382 105.459 12.4735 105.213 12.8957C104.966 13.3192 104.767 13.5838 104.613 13.6897C104.171 13.478 103.629 13.2795 102.982 13.0942C102.335 12.9102 101.597 12.8163 100.77 12.8163C97.7461 12.8163 96.2323 14.4572 96.2323 17.7364V29.2442H91.8086V16.4277Z" fill="white"/>
<path fill-rule="evenodd" clip-rule="evenodd" d="M120.323 20.3553C120.065 20.3024 119.58 20.223 118.869 20.1171C118.156 20.0126 117.091 19.9583 115.668 19.9583C113.908 19.9583 112.63 20.2296 111.828 20.7722C111.025 21.3147 110.624 22.1683 110.624 23.3315C110.624 23.8079 110.707 24.2433 110.877 24.6416C111.045 25.0386 111.336 25.3747 111.749 25.654C112.163 25.9305 112.725 26.1436 113.437 26.2878C114.149 26.4334 115.035 26.5062 116.096 26.5062C117.284 26.5062 118.228 26.4599 118.927 26.3659C119.624 26.2759 120.091 26.2018 120.323 26.1489V20.3553ZM124.705 29.1648C124.448 29.2164 124.041 29.2759 123.485 29.3434C122.93 29.4083 122.275 29.4758 121.526 29.5406C120.776 29.6068 119.935 29.6663 119.003 29.7206C118.074 29.7709 117.104 29.8 116.096 29.8C114.078 29.8 112.429 29.62 111.148 29.2627C109.869 28.9067 108.859 28.4303 108.123 27.8348C107.387 27.2393 106.881 26.5525 106.609 25.7704C106.338 24.9923 106.203 24.1917 106.203 23.3699C106.203 22.2861 106.365 21.3346 106.688 20.5141C107.01 19.695 107.541 19.0055 108.277 18.4524C109.015 17.8966 109.979 17.4797 111.168 17.2005C112.358 16.9226 113.807 16.7836 115.514 16.7836C116.494 16.7836 117.427 16.8181 118.305 16.8842C119.184 16.9504 119.844 17.0099 120.284 17.0629C120.284 16.1365 120.134 15.369 119.839 14.7616C119.541 14.1529 119.134 13.6765 118.618 13.3337C118.099 12.9896 117.478 12.7514 116.755 12.6191C116.03 12.4868 115.228 12.4206 114.349 12.4206C112.876 12.4206 111.692 12.5926 110.799 12.9367C109.907 13.2808 109.32 13.5706 109.034 13.8101C108.879 13.6765 108.665 13.4263 108.394 13.0545C108.123 12.6853 107.987 12.2353 107.987 11.706C107.987 11.3368 108.084 10.9716 108.277 10.6143C108.473 10.2583 108.814 9.94068 109.306 9.66278C109.797 9.38488 110.457 9.16786 111.284 9.00773C112.112 8.84893 113.16 8.76953 114.424 8.76953C115.952 8.76953 117.342 8.92304 118.597 9.22608C119.853 9.53045 120.931 10.0135 121.835 10.6751C122.741 11.3368 123.445 12.2102 123.95 13.294C124.454 14.3778 124.705 15.6879 124.705 17.2217V29.1648Z" fill="white"/>
<path fill-rule="evenodd" clip-rule="evenodd" d="M128.66 11.4291C128.66 10.6867 128.868 10.1521 129.281 9.82127C129.695 9.49044 130.277 9.32635 131.028 9.32635C131.492 9.32635 131.92 9.38457 132.307 9.50367C132.694 9.6241 132.953 9.70879 133.083 9.76172V29.2439H128.66V11.4291ZM130.872 0.396484C131.623 0.396484 132.255 0.661151 132.773 1.19181C133.289 1.72114 133.548 2.36825 133.548 3.13446C133.548 3.90332 133.289 4.55043 132.773 5.07844C132.255 5.61042 131.623 5.87377 130.872 5.87377C130.123 5.87377 129.489 5.61042 128.97 5.07844C128.454 4.55043 128.195 3.90332 128.195 3.13446C128.195 2.36825 128.454 1.72114 128.97 1.19181C129.489 0.661151 130.123 0.396484 130.872 0.396484Z" fill="white"/>
<path fill-rule="evenodd" clip-rule="evenodd" d="M137.043 17.2197C137.043 15.8977 137.282 14.7133 137.76 13.6679C138.237 12.6225 138.898 11.7371 139.738 11.0106C140.579 10.2828 141.575 9.72832 142.727 9.34455C143.876 8.96078 145.137 8.76758 146.506 8.76758C147.879 8.76758 149.146 8.96078 150.31 9.34455C151.473 9.72832 152.476 10.2828 153.316 11.0106C154.155 11.7371 154.81 12.6225 155.276 13.6679C155.74 14.7133 155.975 15.8977 155.975 17.2197V29.2422H151.552V18.3697C151.552 16.5726 151.124 15.203 150.273 14.2647C149.417 13.3251 148.162 12.854 146.506 12.854C144.827 12.854 143.567 13.3251 142.727 14.2647C141.886 15.203 141.465 16.5726 141.465 18.3697V29.2422H137.043V17.2197Z" fill="white"/>
<path fill-rule="evenodd" clip-rule="evenodd" d="M20.8428 25.2438C20.0044 26.0854 19.0224 26.7431 17.8954 27.2221C16.7685 27.6972 15.5432 27.9354 14.2222 27.9354C12.8999 27.9354 11.6759 27.6972 10.5502 27.2221C9.42199 26.7431 8.43867 26.0854 7.60025 25.2438C6.76183 24.4048 6.10455 23.4123 5.631 22.2676C5.17298 21.1626 4.9375 19.9676 4.92068 18.6853H7.14999C7.17328 19.0797 7.25608 19.4489 7.3997 19.7956C7.57178 20.2124 7.81115 20.5724 8.11391 20.8767C8.41796 21.1824 8.77636 21.422 9.18522 21.5927C9.59408 21.7674 10.0392 21.8547 10.5192 21.8547C10.9992 21.8547 11.4417 21.7674 11.8519 21.5927C12.2607 21.422 12.6191 21.1824 12.9232 20.8767C13.2272 20.5724 13.4666 20.2124 13.6374 19.7956C13.7525 19.5217 13.8276 19.2305 13.8651 18.9262H14.5793C14.6168 19.2305 14.6919 19.5217 14.807 19.7956C14.9804 20.2124 15.2172 20.5724 15.5225 20.8767C15.8253 21.1824 16.1837 21.422 16.5925 21.5927C17.0014 21.7674 17.4465 21.8547 17.9252 21.8547C18.4065 21.8547 18.8503 21.7674 19.2592 21.5927C19.668 21.422 20.0264 21.1824 20.3305 20.8767C20.6345 20.5724 20.8739 20.2124 21.046 19.7956C21.1896 19.4489 21.2724 19.0797 21.297 18.6853H23.5211C23.5082 19.9676 23.2714 21.1626 22.8134 22.2676C22.3385 23.4123 21.6813 24.4048 20.8428 25.2438ZM12.5247 18.4458C12.5247 18.7343 12.4729 19.0016 12.372 19.249C12.2698 19.4939 12.1287 19.7069 11.9463 19.8895C11.7639 20.0722 11.553 20.2138 11.311 20.3157C11.0665 20.4189 10.8038 20.4705 10.5192 20.4705C10.2332 20.4705 9.96929 20.4189 9.72605 20.3157C9.4841 20.2138 9.27191 20.0722 9.09077 19.8895C8.90833 19.7069 8.7673 19.4939 8.66638 19.249C8.56417 19.0016 8.51241 18.7343 8.51241 18.4458C8.51241 18.1599 8.56417 17.8913 8.66638 17.6438C8.7673 17.3977 8.90833 17.1846 9.09077 17.002C9.27191 16.822 9.4841 16.6791 9.72605 16.5772C9.96929 16.474 10.2332 16.4224 10.5192 16.4224C10.8038 16.4224 11.0665 16.474 11.311 16.5772C11.553 16.6791 11.7639 16.822 11.9463 17.002C12.1287 17.1846 12.2698 17.3977 12.372 17.6438C12.4729 17.8913 12.5247 18.1599 12.5247 18.4458ZM19.932 18.4458C19.932 18.7343 19.8815 19.0016 19.778 19.249C19.6771 19.4939 19.5348 19.7069 19.3549 19.8895C19.1738 20.0722 18.9603 20.2138 18.717 20.3157C18.4751 20.4189 18.2111 20.4705 17.9252 20.4705C17.6406 20.4705 17.3766 20.4189 17.1347 20.3157C16.8901 20.2138 16.6779 20.0722 16.4981 19.8895C16.3169 19.7069 16.1759 19.4939 16.0724 19.249C15.9702 19.0016 15.9197 18.7343 15.9197 18.4458C15.9197 18.1599 15.9702 17.8913 16.0724 17.6438C16.1759 17.3977 16.3169 17.1846 16.4981 17.002C16.6779 16.822 16.8901 16.6791 17.1347 16.5772C17.3766 16.474 17.6406 16.4224 17.9252 16.4224C18.2111 16.4224 18.4751 16.474 18.717 16.5772C18.9603 16.6791 19.1738 16.822 19.3549 17.002C19.5348 17.1846 19.6771 17.3977 19.778 17.6438C19.8815 17.8913 19.932 18.1599 19.932 18.4458ZM5.74874 14.583C7.33113 14.0497 9.42976 13.3695 9.42976 13.3695C14.0462 11.8675 14.6647 10.0916 14.6647 10.0916C14.6647 10.0916 15.6364 11.8675 18.9875 13.0386C18.9875 13.0386 20.839 13.6619 22.5611 14.2984C22.6478 14.4731 22.737 14.6478 22.8134 14.8331C23.1161 15.5636 23.3219 16.3337 23.4306 17.1396H21.0615L21.046 17.0973C20.8739 16.6805 20.6345 16.3218 20.3305 16.0161C20.0264 15.7104 19.668 15.4709 19.2592 15.2976C18.8503 15.1255 18.4065 15.0395 17.9252 15.0395C17.4465 15.0395 17.0014 15.1255 16.5925 15.2976C16.1837 15.4709 15.8253 15.7104 15.5225 16.0161C15.2172 16.3218 14.9804 16.6805 14.807 17.0973C14.7527 17.2283 14.7074 17.362 14.6699 17.4983H13.7745C13.7383 17.362 13.693 17.2283 13.6374 17.0973C13.4666 16.6805 13.2272 16.3218 12.9232 16.0161C12.6191 15.7104 12.2607 15.4709 11.8519 15.2976C11.4417 15.1255 10.9992 15.0395 10.5192 15.0395C10.0392 15.0395 9.59408 15.1255 9.18522 15.2976C8.77636 15.4709 8.41796 15.7104 8.11391 16.0161C7.81115 16.3218 7.57178 16.6805 7.3997 17.0973C7.39323 17.1105 7.38935 17.1251 7.38288 17.1396H5.01513C5.12381 16.3337 5.32824 15.5636 5.631 14.8331C5.66723 14.7471 5.71122 14.6677 5.74874 14.583ZM27.3354 9.95791C26.6096 8.21243 25.6094 6.69854 24.3272 5.41623C23.0476 4.13127 21.548 3.12686 19.8285 2.40035C18.1076 1.67251 16.2393 1.30859 14.2222 1.30859C12.2051 1.30859 10.3367 1.67251 8.61592 2.40035C6.89639 3.12686 5.39552 4.13127 4.1159 5.41623C2.83628 6.69854 1.83354 8.21243 1.11027 9.95791C0.384423 11.7047 0.0234375 13.5971 0.0234375 15.6324C0.0234375 17.6703 0.384423 19.56 1.11027 21.3068C1.83354 23.0536 2.83628 24.5662 4.1159 25.8498C5.39552 27.1335 6.89639 28.1379 8.61592 28.8657C10.3367 29.5922 12.2051 29.9561 14.2222 29.9561C16.2393 29.9561 18.1076 29.5922 19.8285 28.8657C21.548 28.1379 23.0476 27.1335 24.3272 25.8498C25.6094 24.5662 26.6096 23.0536 27.3354 21.3068C28.0574 19.56 28.4197 17.6703 28.4197 15.6324C28.4197 13.5971 28.0574 11.7047 27.3354 9.95791Z" fill="white"/>
</g>
<defs>
<clipPath id="clip0_61_662">
<rect width="156" height="30" fill="white"/>
</clipPath>
</defs>
</svg>
