<svg width="122" height="34" viewBox="0 0 122 34" fill="none" xmlns="http://www.w3.org/2000/svg">
<g opacity="0.8" clip-path="url(#clip0_61_649)">
<path d="M0 8.27734H7.2582L11.4846 19.1433L15.7658 8.27734H22.8328L12.1914 34.0005H5.07958L7.99249 27.1843L0 8.27734Z" fill="white"/>
<path d="M30.1939 7.84375C24.7405 7.84375 21.293 12.7587 21.293 17.6532C21.293 23.1609 25.0727 27.5276 30.0904 27.5276C33.8335 27.5276 35.2448 25.2359 35.2448 25.2359V27.0211H41.5753V8.27643H35.2448V9.98048C35.2448 9.98048 33.6702 7.84375 30.1939 7.84375ZM31.5404 13.8675C34.0567 13.8675 35.3552 15.8684 35.3552 17.6738C35.3552 19.6178 33.964 21.5257 31.5404 21.5257C29.5318 21.5257 27.7166 19.8761 27.7166 17.7565C27.7166 15.607 29.1766 13.8675 31.5404 13.8675Z" fill="white"/>
<path d="M43.7578 27.0215V0H50.3792V10.0459C50.3792 10.0459 51.9519 7.84661 55.2458 7.84661C59.2749 7.84661 61.6355 10.8634 61.6355 15.1742V27.0215H55.0626V16.7971C55.0626 15.3383 54.3711 13.9289 52.8047 13.9289C51.2102 13.9289 50.3792 15.3596 50.3792 16.7971V27.0215H43.7578Z" fill="white"/>
<path d="M72.9248 7.8457C66.6796 7.8457 62.9609 12.6179 62.9609 17.7309C62.9609 23.5495 67.4635 27.5273 72.9485 27.5273C78.2648 27.5273 82.9168 23.73 82.9168 17.8285C82.9168 11.3712 78.0461 7.8457 72.9248 7.8457ZM72.9845 13.9224C75.1905 13.9224 76.7169 15.7689 76.7169 17.7378C76.7169 19.4173 75.2946 21.4886 72.9845 21.4886C70.8677 21.4886 69.2792 19.7823 69.2792 17.7195C69.2792 15.7323 70.5999 13.9224 72.9845 13.9224Z" fill="white"/>
<path d="M93.9444 7.8457C87.6992 7.8457 83.9805 12.6179 83.9805 17.7309C83.9805 23.5495 88.483 27.5273 93.968 27.5273C99.2844 27.5273 103.936 23.73 103.936 17.8285C103.936 11.3712 99.0656 7.8457 93.9444 7.8457ZM94.004 13.9224C96.21 13.9224 97.7364 15.7689 97.7364 17.7378C97.7364 19.4173 96.3141 21.4886 94.004 21.4886C91.8873 21.4886 90.2987 19.7823 90.2987 17.7195C90.2987 15.7323 91.6194 13.9224 94.004 13.9224Z" fill="white"/>
<path d="M109.162 27.419C111.591 27.419 113.559 25.4407 113.559 23.0005C113.559 20.5602 111.591 18.582 109.162 18.582C106.734 18.582 104.766 20.5602 104.766 23.0005C104.766 25.4407 106.734 27.419 109.162 27.419Z" fill="white"/>
<path d="M115.005 16.9594H107.09L114.115 0H122.001L115.005 16.9594Z" fill="white"/>
</g>
<defs>
<clipPath id="clip0_61_649">
<rect width="122" height="34" fill="white"/>
</clipPath>
</defs>
</svg>
