<?xml version="1.0" encoding="utf-8"?>
<!-- Generator: Adobe Illustrator 23.0.5, SVG Export Plug-In . SVG Version: 6.00 Build 0)  -->
<svg version="1.1" id="Layer_1" xmlns="http://www.w3.org/2000/svg" xmlns:xlink="http://www.w3.org/1999/xlink" x="0px" y="0px"
	 viewBox="0 0 60 60" style="enable-background:new 0 0 60 60;" xml:space="preserve">
<style type="text/css">
	.st0{fill:#505759;}
	.st1{fill:url(#SVGID_1_);}
	.st2{fill:url(#SVGID_2_);}
	.st3{fill:url(#SVGID_3_);}
	.st4{fill:url(#SVGID_4_);}
	.st5{fill:url(#SVGID_5_);}
	.st6{fill:url(#SVGID_6_);}
	.st7{fill:url(#SVGID_7_);}
	.st8{fill:url(#SVGID_8_);}
</style>
<g>
	<path class="st0" d="M5.8,22.5c0.2,0.3,0.3,0.8,0.3,1.4v0c0,0.6-0.1,1.1-0.3,1.4c-0.2,0.3-0.6,0.5-1.1,0.5l-2.7,0v2.4
		c0,0.1,0,0.2-0.1,0.2c-0.1,0-0.1,0-0.1,0H1.1c0,0-0.1,0-0.1,0c-0.1,0-0.1-0.1-0.1-0.2v-3.3c0-0.1,0-0.2,0.1-0.2c0.1,0,0.1,0,0.1,0
		h3.4c0.2,0,0.3-0.1,0.4-0.2C4.9,24.4,5,24.2,5,23.9s0-0.4-0.1-0.6c-0.1-0.1-0.2-0.2-0.4-0.2H1.1c0,0-0.1,0-0.1,0
		c-0.1,0-0.1-0.1-0.1-0.2v-0.6c0-0.1,0-0.2,0.1-0.2c0.1,0,0.1,0,0.1,0h3.6C5.2,22,5.5,22.2,5.8,22.5z"/>
	<path class="st0" d="M12.6,22c0,0,0.1,0,0.1,0c0.1,0,0.1,0.1,0.1,0.2v0.6c0,0.1,0,0.2-0.1,0.2c-0.1,0-0.1,0-0.1,0l-4.5,0
		c0,0-0.1,0-0.1,0c-0.1,0-0.1-0.1-0.1-0.2v-0.6c0-0.1,0-0.2,0.1-0.2c0.1,0,0.1,0,0.1,0H12.6z M12.6,27c0,0,0.1,0,0.1,0
		c0.1,0,0.1,0.1,0.1,0.2v0.9c0,0.1,0,0.2-0.1,0.2c-0.1,0-0.1,0-0.1,0H9.8c-0.4,0-0.6,0-0.9-0.1c-0.3-0.1-0.5-0.2-0.6-0.4
		c-0.2-0.2-0.3-0.5-0.3-0.8c0-0.1,0-0.3-0.1-0.4c0-0.2,0-0.3,0-0.5v0l0-1C7.9,25.1,8,25,8,25c0.1-0.2,0.3-0.3,0.5-0.3l4,0
		c0,0,0.1,0,0.1,0c0.1,0,0.1,0.1,0.1,0.2v0.6c0,0.1,0,0.2-0.1,0.2c-0.1,0-0.1,0-0.1,0H9.1c0,0,0,0,0,0.1c0,0.1,0,0.1,0,0.2
		c0,0.1,0,0.2,0,0.3c0,0,0,0,0,0.1s0,0,0,0.1c0,0.1,0.1,0.3,0.1,0.3C9.3,26.9,9.3,27,9.4,27c0.1,0,0.1,0,0.2,0c0.1,0,0.1,0,0.2,0
		H12.6z"/>
	<path class="st0" d="M20,28.1c0,0,0,0.1,0,0.2c0,0.1-0.1,0.2-0.2,0.2H19c-0.1,0-0.1,0-0.2,0c0,0,0,0,0,0c0,0,0,0,0-0.1l-1.4-2.5
		h-1.6v2.4c0,0.1,0,0.2-0.1,0.2c-0.1,0-0.1,0-0.1,0h-0.7c0,0-0.1,0-0.1,0c-0.1,0-0.1-0.1-0.1-0.2v-3.3c0-0.1,0-0.2,0.1-0.2
		c0.1,0,0.1,0,0.1,0h3.4c0.2,0,0.3-0.1,0.4-0.2c0.1-0.1,0.1-0.3,0.1-0.6s0-0.4-0.1-0.6c-0.1-0.1-0.2-0.2-0.4-0.2h-3.4
		c0,0-0.1,0-0.1,0c-0.1,0-0.1-0.1-0.1-0.2v-0.6c0-0.1,0-0.2,0.1-0.2c0.1,0,0.1,0,0.1,0h3.6c0.5,0,0.9,0.2,1.1,0.5
		c0.2,0.3,0.3,0.8,0.3,1.4c0,0.6-0.1,1.1-0.3,1.4c-0.2,0.3-0.5,0.4-0.9,0.5L20,28.1z M19.9,23.9L19.9,23.9L19.9,23.9L19.9,23.9z"/>
	<path class="st0" d="M26.5,22c0,0,0.1,0,0.1,0c0.1,0,0.1,0.1,0.1,0.2v0.6c0,0.1,0,0.2-0.1,0.2c-0.1,0-0.1,0-0.1,0h-4.5
		c0,0-0.1,0-0.1,0c-0.1,0-0.1-0.1-0.1-0.2v-0.6c0-0.1,0-0.2,0.1-0.2c0.1,0,0.1,0,0.1,0H26.5z M26.5,24.6c0,0,0.1,0,0.1,0
		c0.1,0,0.1,0.1,0.1,0.2v0.6c0,0.1,0,0.2-0.1,0.2c-0.1,0-0.1,0-0.1,0H23c0,0.1,0,0.3,0,0.4c0,0.1,0,0.2,0,0.4c0,0.1,0,0.3,0,0.4
		c0,0.4,0,0.7,0,1.2c0,0.1,0,0.2-0.1,0.2c-0.1,0-0.1,0-0.1,0h-0.7c0,0-0.1,0-0.1,0c-0.1,0-0.1-0.1-0.1-0.2l0-3c0,0,0-0.1,0-0.1
		c0,0,0-0.1,0-0.1c0.1-0.1,0.1-0.2,0.2-0.2c0.1-0.1,0.2-0.1,0.3-0.1L26.5,24.6z"/>
	<path class="st0" d="M33.2,22c0,0,0.1,0,0.1,0c0.1,0,0.1,0.1,0.1,0.2v0.6c0,0.1,0,0.2-0.1,0.2c-0.1,0-0.1,0-0.1,0l-4.5,0
		c0,0-0.1,0-0.1,0s-0.1-0.1-0.1-0.2v-0.6c0-0.1,0-0.2,0.1-0.2c0.1,0,0.1,0,0.1,0H33.2z M33.2,27c0,0,0.1,0,0.1,0
		c0.1,0,0.1,0.1,0.1,0.2v0.9c0,0.1,0,0.2-0.1,0.2c-0.1,0-0.1,0-0.1,0h-2.8c-0.4,0-0.6,0-0.9-0.1c-0.3-0.1-0.5-0.2-0.6-0.4
		c-0.2-0.2-0.3-0.5-0.3-0.8c0-0.1,0-0.3-0.1-0.4s0-0.3,0-0.5v0l0-1c0-0.1,0-0.1,0.1-0.2c0.1-0.2,0.3-0.3,0.5-0.3l4,0
		c0,0,0.1,0,0.1,0c0.1,0,0.1,0.1,0.1,0.2v0.6c0,0.1,0,0.2-0.1,0.2c-0.1,0-0.1,0-0.1,0h-3.5c0,0,0,0,0,0.1c0,0.1,0,0.1,0,0.2
		c0,0.1,0,0.2,0,0.3c0,0,0,0,0,0.1s0,0,0,0.1c0,0.1,0.1,0.3,0.1,0.3c0.1,0.1,0.1,0.1,0.2,0.2c0.1,0,0.1,0,0.2,0c0.1,0,0.1,0,0.2,0
		H33.2z"/>
	<path class="st0" d="M40.1,22.1c0.1,0,0.1,0.1,0.1,0.2v0.6c0,0.1,0,0.2-0.1,0.2c-0.1,0-0.1,0-0.1,0h-2.8c-0.2,0-0.3,0-0.4,0.1
		c-0.1,0-0.2,0.1-0.2,0.2c-0.1,0.1-0.1,0.2-0.1,0.3c0,0.1,0,0.2,0,0.3c0,0.1,0,0.2,0,0.3v1.8c0,0.1,0,0.2,0,0.3c0,0.1,0,0.2,0,0.3
		c0,0.2,0.1,0.3,0.1,0.3c0.1,0.1,0.1,0.1,0.2,0.2c0.1,0,0.2,0.1,0.4,0.1h2.8c0,0,0.1,0,0.1,0c0.1,0,0.1,0.1,0.1,0.2v0.6
		c0,0.1,0,0.2-0.1,0.2c-0.1,0-0.1,0-0.1,0h-2.8c-0.3,0-0.6,0-0.9-0.1c-0.2-0.1-0.4-0.2-0.6-0.4c-0.2-0.2-0.3-0.5-0.3-0.8
		c-0.1-0.3-0.1-0.7-0.1-1.1v-1.5c0-0.2,0-0.4,0-0.6s0-0.4,0.1-0.5c0.1-0.3,0.2-0.6,0.3-0.8c0.2-0.2,0.3-0.3,0.6-0.4
		c0.2-0.1,0.5-0.1,0.9-0.1h2.8C40,22,40,22.1,40.1,22.1z"/>
	<path class="st0" d="M47.4,22.1c0.1,0,0.1,0.1,0.1,0.2v0.6c0,0.1,0,0.1,0,0.2c0,0,0,0.1-0.1,0.1c0,0,0,0-0.1,0c0,0,0,0-0.1,0h-2v5
		c0,0.1,0,0.2-0.1,0.2c-0.1,0-0.1,0-0.1,0h-0.7c0,0-0.1,0-0.1,0c-0.1,0-0.1-0.1-0.1-0.2v-5h-2c0,0,0,0-0.1,0c0,0-0.1,0-0.1,0
		c0,0,0,0-0.1-0.1c0,0,0-0.1,0-0.2v-0.6c0-0.1,0-0.2,0.1-0.2c0.1,0,0.1,0,0.1,0h5.1C47.3,22,47.4,22.1,47.4,22.1z"/>
</g>
<g>
	<path class="st0" d="M19.7,31.4c0.1,0,0.1,0.1,0.1,0.2v5.9c0,0.1,0,0.2-0.1,0.2c-0.1,0-0.1,0-0.1,0h-0.7c0,0-0.1,0-0.1,0
		c-0.1,0-0.1-0.1-0.1-0.2v-2.4h-2.9v2.4c0,0.1,0,0.2-0.1,0.2c-0.1,0-0.1,0-0.1,0h-0.7c0,0-0.1,0-0.1,0c-0.1,0-0.1-0.1-0.1-0.2v-5.9
		c0-0.1,0-0.2,0.1-0.2c0.1,0,0.1,0,0.1,0h0.7c0,0,0.1,0,0.1,0c0.1,0,0.1,0.1,0.1,0.2v2.3h2.9v-2.3c0-0.1,0-0.2,0.1-0.2
		c0.1,0,0.1,0,0.1,0h0.7C19.6,31.4,19.7,31.4,19.7,31.4z"/>
	<path class="st0" d="M26.9,31.9c0.1,0.2,0.3,0.4,0.3,0.8c0,0.2,0.1,0.3,0.1,0.5c0,0.2,0,0.4,0,0.6v1.5c0,0.2,0,0.4,0,0.6
		c0,0.2,0,0.4-0.1,0.5c-0.1,0.3-0.2,0.6-0.3,0.8c-0.2,0.2-0.4,0.3-0.6,0.4c-0.2,0.1-0.5,0.1-0.9,0.1h-1.9c-0.3,0-0.6,0-0.9-0.1
		c-0.2-0.1-0.4-0.2-0.6-0.4c-0.2-0.2-0.3-0.5-0.3-0.8c0-0.2-0.1-0.3-0.1-0.5c0-0.2,0-0.4,0-0.6v-1.5c0-0.4,0-0.8,0.1-1.1
		c0.1-0.3,0.2-0.6,0.3-0.8c0.2-0.2,0.4-0.3,0.6-0.4c0.2-0.1,0.5-0.1,0.9-0.1h1.9c0.3,0,0.6,0,0.9,0.1C26.5,31.6,26.7,31.7,26.9,31.9
		z M26.2,33.7c0-0.1,0-0.2,0-0.3c0-0.1,0-0.2,0-0.3c0-0.1-0.1-0.3-0.1-0.3c-0.1-0.1-0.1-0.1-0.2-0.2c-0.1,0-0.1,0-0.2,0
		c-0.1,0-0.1,0-0.2,0h-1.8c-0.1,0-0.2,0-0.2,0c-0.1,0-0.1,0-0.2,0c-0.1,0-0.2,0.1-0.2,0.2c-0.1,0.1-0.1,0.2-0.1,0.3
		c0,0.1,0,0.2,0,0.3c0,0.1,0,0.2,0,0.3v1.8c0,0.1,0,0.2,0,0.3c0,0.1,0,0.2,0,0.3c0,0.1,0,0.1,0.1,0.2c0,0.1,0,0.1,0.1,0.1
		c0.1,0.1,0.1,0.1,0.2,0.2c0.1,0,0.2,0.1,0.4,0.1h1.8c0.2,0,0.3,0,0.4-0.1c0.1,0,0.2-0.1,0.2-0.2c0.1-0.1,0.1-0.2,0.1-0.3
		c0-0.1,0-0.2,0-0.3c0-0.1,0-0.2,0-0.3V33.7z"/>
	<path class="st0" d="M34.6,37.4c0,0,0,0.1,0,0.2c0,0.1-0.1,0.2-0.2,0.2h-0.8c-0.1,0-0.1,0-0.2,0c0,0,0,0,0,0c0,0,0,0,0-0.1
		l-1.4-2.5h-1.6v2.4c0,0.1,0,0.2-0.1,0.2c-0.1,0-0.1,0-0.1,0h-0.7c0,0-0.1,0-0.1,0c-0.1,0-0.1-0.1-0.1-0.2v-3.3c0-0.1,0-0.2,0.1-0.2
		c0.1,0,0.1,0,0.1,0h3.4c0.2,0,0.3-0.1,0.4-0.2c0.1-0.1,0.1-0.3,0.1-0.6c0-0.3,0-0.4-0.1-0.6c-0.1-0.1-0.2-0.2-0.4-0.2h-3.4
		c0,0-0.1,0-0.1,0c-0.1,0-0.1-0.1-0.1-0.2v-0.6c0-0.1,0-0.2,0.1-0.2c0.1,0,0.1,0,0.1,0h3.6c0.5,0,0.9,0.2,1.1,0.5
		c0.2,0.3,0.3,0.8,0.3,1.4c0,0.6-0.1,1.1-0.3,1.4c-0.2,0.3-0.5,0.4-0.9,0.5L34.6,37.4z M34.4,33.3L34.4,33.3L34.4,33.3L34.4,33.3z"
		/>
	<path class="st0" d="M37.4,31.4c0.1,0,0.1,0.1,0.1,0.2v5.9c0,0.1,0,0.2-0.1,0.2c-0.1,0-0.1,0-0.1,0h-0.7c0,0-0.1,0-0.1,0
		c-0.1,0-0.1-0.1-0.1-0.2v-5.9c0-0.1,0-0.2,0.1-0.2c0.1,0,0.1,0,0.1,0h0.7C37.3,31.4,37.4,31.4,37.4,31.4z"/>
	<path class="st0" d="M44,31.4c0.1,0,0.1,0.1,0.2,0.1c0.1,0.1,0.1,0.1,0.1,0.2c0,0.1,0.1,0.2,0.1,0.4V33c0,0.1,0,0.1,0,0.1
		c0,0,0,0.1,0,0.1c0,0,0,0.1,0,0.1c0,0,0,0.1,0,0.1c0,0.1-0.1,0.1-0.1,0.2c-0.1,0.1-0.1,0.1-0.2,0.1l-3.6,2.6c0,0,0,0,0,0v0.3
		c0,0,0,0,0,0h3.7c0,0,0.1,0,0.1,0c0.1,0,0.1,0.1,0.1,0.2v0.6c0,0.1,0,0.2-0.1,0.2c-0.1,0-0.1,0-0.1,0h-4.3c-0.2,0-0.4-0.1-0.5-0.2
		c-0.1-0.1-0.1-0.3-0.1-0.5v-0.8c0-0.1,0-0.1,0-0.1c0,0,0-0.1,0-0.1c0-0.1,0-0.2,0.1-0.2c0-0.1,0.1-0.1,0.1-0.2c0,0,0.1-0.1,0.2-0.1
		l3.6-2.6c0,0,0,0,0,0v-0.2c0,0,0,0,0,0h-3.7c0,0-0.1,0-0.1,0c-0.1,0-0.1-0.1-0.1-0.2v-0.6c0-0.1,0-0.2,0.1-0.2c0.1,0,0.1,0,0.1,0
		h4.3C43.9,31.4,44,31.4,44,31.4z"/>
	<path class="st0" d="M51.5,31.9c0.1,0.2,0.3,0.4,0.3,0.8c0,0.2,0.1,0.3,0.1,0.5c0,0.2,0,0.4,0,0.6v1.5c0,0.2,0,0.4,0,0.6
		c0,0.2,0,0.4-0.1,0.5c-0.1,0.3-0.2,0.6-0.3,0.8c-0.2,0.2-0.4,0.3-0.6,0.4c-0.2,0.1-0.5,0.1-0.9,0.1h-1.9c-0.3,0-0.6,0-0.9-0.1
		c-0.2-0.1-0.4-0.2-0.6-0.4c-0.2-0.2-0.3-0.5-0.3-0.8c0-0.2-0.1-0.3-0.1-0.5c0-0.2,0-0.4,0-0.6v-1.5c0-0.4,0-0.8,0.1-1.1
		c0.1-0.3,0.2-0.6,0.3-0.8c0.2-0.2,0.4-0.3,0.6-0.4c0.2-0.1,0.5-0.1,0.9-0.1H50c0.3,0,0.6,0,0.9,0.1C51.1,31.6,51.3,31.7,51.5,31.9z
		 M50.8,33.7c0-0.1,0-0.2,0-0.3c0-0.1,0-0.2,0-0.3c0-0.1-0.1-0.3-0.1-0.3c-0.1-0.1-0.1-0.1-0.2-0.2c-0.1,0-0.1,0-0.2,0
		c-0.1,0-0.1,0-0.2,0h-1.8c-0.1,0-0.2,0-0.2,0c-0.1,0-0.1,0-0.2,0c-0.1,0-0.2,0.1-0.2,0.2c-0.1,0.1-0.1,0.2-0.1,0.3
		c0,0.1,0,0.2,0,0.3c0,0.1,0,0.2,0,0.3v1.8c0,0.1,0,0.2,0,0.3c0,0.1,0,0.2,0,0.3c0,0.1,0,0.1,0.1,0.2c0,0.1,0,0.1,0.1,0.1
		c0.1,0.1,0.1,0.1,0.2,0.2c0.1,0,0.2,0.1,0.4,0.1H50c0.2,0,0.3,0,0.4-0.1c0.1,0,0.2-0.1,0.2-0.2c0.1-0.1,0.1-0.2,0.1-0.3
		c0-0.1,0-0.2,0-0.3c0-0.1,0-0.2,0-0.3V33.7z"/>
	<path class="st0" d="M59.3,31.4c0.1,0,0.1,0.1,0.1,0.2v5.1c0,0.4-0.1,0.6-0.2,0.8c-0.1,0.2-0.3,0.2-0.5,0.2h-0.6
		c-0.1,0-0.2,0-0.3,0c-0.1,0-0.2,0-0.2-0.1c-0.1,0-0.1-0.1-0.2-0.2c0,0-0.1-0.1-0.1-0.1c0,0-0.1-0.1-0.1-0.2l-2.5-4.4c0,0,0,0,0,0
		c0,0,0,0,0,0h0h0v0v4.7c0,0.1,0,0.2-0.1,0.2c-0.1,0-0.1,0-0.1,0h-0.7c0,0-0.1,0-0.1,0c-0.1,0-0.1-0.1-0.1-0.2v-5.1
		c0-0.4,0.1-0.6,0.2-0.8c0.1-0.1,0.3-0.2,0.5-0.2H55c0.1,0,0.1,0,0.1,0c0,0,0.1,0,0.1,0c0.1,0,0.2,0,0.2,0.1c0.1,0,0.1,0.1,0.2,0.2
		c0,0,0.1,0.1,0.1,0.1c0,0,0.1,0.1,0.1,0.2l2.5,4.4c0,0,0,0,0,0h0v0v-4.7c0-0.1,0-0.2,0.1-0.2c0.1,0,0.1,0,0.1,0h0.7
		C59.2,31.4,59.3,31.4,59.3,31.4z"/>
</g>
<g>
	
		<linearGradient id="SVGID_1_" gradientUnits="userSpaceOnUse" x1="1006.3207" y1="71.3055" x2="1004.4495" y2="69.9868" gradientTransform="matrix(0.7071 -0.7071 -0.7071 -0.7071 -606.6234 789.4331)">
		<stop  offset="0" style="stop-color:#791256"/>
		<stop  offset="7.626313e-02" style="stop-color:#831358"/>
		<stop  offset="1" style="stop-color:#FF246D"/>
	</linearGradient>
	<path class="st1" d="M55.2,29.3c0,0.1-0.1,0.1-0.1,0.2c0,0,0,0-0.1,0.1c-0.6,0.6-1.8,0.2-1.8-0.7v-1c0,0,0.1,0,0.8,0
		c0.7,0,2.1,0.3,1.3,1.4c0,0,0,0,0,0L55.2,29.3z"/>
	
		<linearGradient id="SVGID_2_" gradientUnits="userSpaceOnUse" x1="1005.6746" y1="72.3334" x2="1003.6104" y2="74.4132" gradientTransform="matrix(0.7071 -0.7071 -0.7071 -0.7071 -606.6234 789.4331)">
		<stop  offset="0" style="stop-color:#FF246D"/>
		<stop  offset="0.9237" style="stop-color:#831358"/>
		<stop  offset="1" style="stop-color:#791256"/>
	</linearGradient>
	<path class="st2" d="M55.3,29.1c0.8-1.2-0.6-1.4-1.3-1.4c-0.7,0-0.8,0-0.8,0h-1c-0.9,0-1.4-1.1-0.7-1.7c0,0,0,0,0,0
		c1-1,2.6-1,3.6,0C55.9,26.8,56,28.2,55.3,29.1z"/>
	
		<linearGradient id="SVGID_3_" gradientUnits="userSpaceOnUse" x1="1005.0292" y1="74.4853" x2="1007.827" y2="71.4381" gradientTransform="matrix(0.7071 -0.7071 -0.7071 -0.7071 -606.6234 789.4331)">
		<stop  offset="0" style="stop-color:#791256"/>
		<stop  offset="7.626313e-02" style="stop-color:#831358"/>
		<stop  offset="1" style="stop-color:#FF246D"/>
	</linearGradient>
	<path class="st3" d="M55.7,27.1C55.7,27.1,55.7,27.1,55.7,27.1c-1.1-1.2-3.7-0.9-4.4,0c-0.1-0.4-0.1-0.8,0.2-1.1c0,0,0,0,0,0
		c1-1,2.6-1,3.6,0C55.4,26.3,55.6,26.7,55.7,27.1z"/>
</g>
<g>
	
		<linearGradient id="SVGID_4_" gradientUnits="userSpaceOnUse" x1="88.2928" y1="150.034" x2="84.7714" y2="146.3949" gradientTransform="matrix(0.7071 -0.7071 0.7071 0.7071 -112.2681 -17.5293)">
		<stop  offset="0" style="stop-color:#791256"/>
		<stop  offset="1" style="stop-color:#BF1B62"/>
	</linearGradient>
	<path class="st4" d="M58.3,30.4c0.6,0,1-0.5,1-1V24v-2h-2h-5.3c-0.6,0-1,0.5-1,1l0,0c0,0.6,0.5,1,1,1h2.6c1.5,0,2.7,1.2,2.7,2.7
		v2.6C57.3,29.9,57.7,30.4,58.3,30.4L58.3,30.4z"/>
	
		<linearGradient id="SVGID_5_" gradientUnits="userSpaceOnUse" x1="87.6768" y1="149.7844" x2="83.8778" y2="153.6122" gradientTransform="matrix(0.7071 -0.7071 0.7071 0.7071 -112.2681 -17.5293)">
		<stop  offset="0" style="stop-color:#FF246D"/>
		<stop  offset="0.9237" style="stop-color:#831358"/>
		<stop  offset="1" style="stop-color:#791256"/>
	</linearGradient>
	<path class="st5" d="M57.2,26.4C57.2,26.4,57.2,26.5,57.2,26.4c0,0.1,0,0.1,0,0.2c0,0.1,0,0.1,0,0.2v2.6c0,0.6,0.5,1,1,1
		c0.6,0,1-0.5,1-1l0-5.3v-2h-2h-5.3C54,22,57.2,23.4,57.2,26.4z"/>
</g>
<linearGradient id="SVGID_6_" gradientUnits="userSpaceOnUse" x1="0.5714" y1="34.8146" x2="13.0622" y2="34.8146">
	<stop  offset="0" style="stop-color:#FF246D"/>
	<stop  offset="0.9237" style="stop-color:#831358"/>
	<stop  offset="1" style="stop-color:#791256"/>
</linearGradient>
<rect x="0.6" y="34" class="st6" width="12.5" height="1.7"/>
<linearGradient id="SVGID_7_" gradientUnits="userSpaceOnUse" x1="0.5714" y1="32.4515" x2="13.0622" y2="32.4515">
	<stop  offset="0" style="stop-color:#FF246D"/>
	<stop  offset="0.9237" style="stop-color:#831358"/>
	<stop  offset="1" style="stop-color:#791256"/>
</linearGradient>
<rect x="0.6" y="31.6" class="st7" width="12.5" height="1.7"/>
<linearGradient id="SVGID_8_" gradientUnits="userSpaceOnUse" x1="0.5714" y1="37.1777" x2="13.0622" y2="37.1777">
	<stop  offset="0" style="stop-color:#FF246D"/>
	<stop  offset="0.9237" style="stop-color:#831358"/>
	<stop  offset="1" style="stop-color:#791256"/>
</linearGradient>
<rect x="0.6" y="36.3" class="st8" width="12.5" height="1.7"/>
</svg>
