<?xml version="1.0" standalone="no"?>
<!DOCTYPE svg PUBLIC "-//W3C//DTD SVG 20010904//EN"
 "http://www.w3.org/TR/2001/REC-SVG-20010904/DTD/svg10.dtd">
<svg version="1.0" xmlns="http://www.w3.org/2000/svg"
 width="2461.000000pt" height="2346.000000pt" viewBox="0 0 2461.000000 2346.000000"
 preserveAspectRatio="xMidYMid meet">

<g transform="translate(0.000000,2346.000000) scale(0.100000,-0.100000)"
fill="#000000" stroke="none">
<path d="M0 11730 l0 -11730 12305 0 12305 0 0 11730 0 11730 -12305 0 -12305
0 0 -11730z m7670 3505 c-3 -5 -17 -10 -32 -9 -26 1 -28 -2 -28 -42 0 -32 4
-44 18 -47 9 -3 -436 -5 -990 -6 l-1008 -1 0 60 0 60 1023 -2 c677 -2 1020 -6
1017 -13z m3676 -2407 c15 -50 20 -49 -694 -46 l-662 3 0 -367 0 -368 438 -2
437 -3 3 -24 c2 -13 -2 -28 -10 -32 -20 -13 -895 -11 -919 1 -18 10 -19 26
-19 423 0 308 3 416 12 425 9 9 180 12 709 12 l698 0 7 -22z m1217 -11 c97
-34 166 -78 236 -150 114 -117 160 -223 168 -387 6 -125 -9 -197 -64 -310 -49
-101 -152 -204 -251 -252 l-72 -35 200 -241 c110 -132 200 -243 200 -246 0 -3
-17 -6 -38 -6 -36 0 -41 5 -232 236 l-195 236 -44 -6 c-24 -3 -228 -6 -452 -6
l-409 0 0 -231 0 -230 -27 3 -28 3 0 255 0 255 447 5 c245 3 449 8 452 11 9 9
-838 1030 -873 1054 -29 19 -40 53 -24 69 4 4 215 6 468 4 l460 -3 78 -28z
m2035 9 c9 -46 9 -46 -714 -46 -607 0 -684 2 -698 16 -12 12 -13 20 -6 35 11
19 27 19 713 17 685 -3 702 -3 705 -22z m1627 4 c4 -12 1 -28 -6 -36 -11 -14
-91 -15 -681 -12 l-668 3 0 -367 0 -368 435 0 c419 0 435 -1 445 -19 7 -15 6
-23 -6 -35 -14 -14 -70 -16 -464 -16 -394 0 -450 2 -464 16 -14 13 -16 65 -16
415 0 257 4 407 10 420 10 18 29 19 710 19 695 0 699 0 705 -20z m935 -19
c104 -33 191 -81 279 -151 57 -47 69 -75 40 -93 -12 -7 -30 2 -79 41 -146 118
-299 172 -485 172 -280 0 -515 -131 -658 -367 -131 -216 -146 -506 -37 -724
106 -210 270 -349 487 -411 102 -29 304 -31 403 -4 109 30 231 98 329 184 18
17 28 19 42 11 30 -16 22 -42 -23 -80 -115 -95 -220 -148 -356 -180 -73 -18
-108 -20 -217 -16 -110 4 -144 9 -225 35 -238 78 -433 260 -520 484 -172 443
62 946 506 1092 171 56 355 58 514 7z m1857 23 c3 -9 2 -24 -4 -33 -9 -14 -77
-16 -708 -16 -640 0 -699 1 -708 17 -8 12 -7 21 2 32 12 14 87 16 713 16 638
0 699 -1 705 -16z m-11596 -544 c185 0 216 -2 216 -15 0 -8 -6 -15 -13 -15 -8
0 -14 -16 -16 -42 l-3 -43 -927 -3 -928 -2 0 -855 0 -855 1123 -1 c1053 0
1230 -3 1184 -22 -11 -4 -22 -5 -26 -3 -4 3 -8 -16 -10 -42 -3 -58 -11 -69
-11 -16 0 21 -4 45 -9 52 -4 7 -6 -12 -3 -43 l4 -55 -1126 0 -1126 0 0 -205 0
-205 -70 0 -70 0 0 1185 0 1185 643 3 c353 2 712 2 797 0 85 -1 252 -3 371 -3z
m6704 -260 c16 -50 14 -50 -451 -50 l-434 0 -2 -392 -3 -393 -27 -3 c-18 -2
-28 1 -28 10 -2 357 1 831 5 838 4 6 180 10 470 10 458 0 464 0 470 -20z
m4213 -417 c2 -399 2 -413 -17 -423 -15 -7 -23 -6 -35 6 -14 13 -16 65 -16
409 0 216 3 401 6 410 4 10 16 15 33 13 l26 -3 3 -412z m-6993 -383 c3 -11 3
-24 0 -30 -4 -7 -247 -10 -710 -10 -463 0 -706 3 -710 10 -3 6 -3 19 0 30 6
20 16 20 710 20 694 0 704 0 710 -20z m4880 -1 c4 -12 3 -25 -3 -31 -12 -12
-1403 -11 -1415 1 -5 5 -6 18 -2 30 l6 21 704 0 704 0 6 -21z m-5070 -365 c13
-5 14 -8 3 -15 -10 -7 -11 -9 0 -9 7 0 10 -5 7 -10 -4 -6 -9 -8 -13 -6 -4 2
-5 -16 -3 -40 3 -41 1 -44 -21 -44 -99 0 -214 -84 -264 -192 -25 -55 -29 -75
-29 -158 0 -86 3 -101 32 -162 17 -36 50 -84 73 -107 46 -44 129 -80 191 -83
27 -1 36 -5 29 -12 -5 -5 -10 -34 -10 -64 l0 -54 -62 7 c-143 17 -260 91 -340
215 -89 139 -92 365 -5 512 34 59 122 140 187 173 74 37 189 62 225 49z m2931
-10 c-3 -8 -2 -13 3 -10 4 3 9 -18 10 -48 l1 -52 -61 -12 c-117 -22 -202 -100
-239 -221 -62 -199 30 -406 203 -456 29 -8 64 -16 79 -18 15 -1 31 -7 35 -12
4 -4 3 -5 -3 -2 -8 5 -13 -11 -16 -48 -3 -30 -7 -58 -11 -61 -3 -3 -36 -1 -73
5 -302 47 -478 392 -345 676 56 121 180 224 312 259 75 20 113 20 105 0z m792
-20 c27 -20 44 -44 173 -248 63 -99 67 -111 54 -126 -14 -15 -14 -18 0 -30 10
-8 12 -17 6 -24 -6 -7 -6 -18 -2 -25 5 -8 5 -26 1 -42 -5 -15 -4 -29 1 -31 4
-2 5 -9 0 -16 -5 -8 -44 43 -119 155 l-112 168 0 -347 0 -348 -75 0 -75 0 0
463 c0 255 3 467 8 471 13 14 112 0 140 -20z m-2739 7 c9 -6 10 -11 2 -15 -6
-4 -11 -27 -11 -52 l0 -44 -90 0 -90 0 0 -155 0 -155 89 0 90 0 3 -87 c2 -49
0 -92 -4 -97 -4 -5 0 -15 10 -22 15 -12 15 -12 -5 -7 -12 3 -25 13 -28 24 -10
29 -64 69 -95 69 -61 0 -60 5 -60 -196 l0 -184 -75 0 -75 0 0 459 c0 358 3
460 13 464 21 9 311 7 326 -2z m561 -456 l0 -465 -35 0 -35 0 0 465 0 465 35
0 35 0 0 -465z m530 405 l0 -60 -150 0 -150 0 0 60 0 60 150 0 150 0 0 -60z
m15 -309 c-2 -9 -4 -22 -4 -29 -1 -7 -7 -10 -13 -7 -7 4 -4 -1 6 -9 11 -9 15
-16 9 -16 -6 0 -13 -20 -14 -44 -2 -24 -1 -42 4 -39 11 7 8 -22 -4 -34 -8 -8
-7 -13 2 -18 8 -6 10 -4 4 5 -5 9 -4 11 4 6 6 -4 8 -13 4 -19 -4 -7 -8 -17 -9
-22 -1 -6 -29 -53 -63 -105 l-61 -95 60 -3 60 -3 0 -64 0 -65 -156 0 -156 0 7
43 c13 77 41 132 160 318 65 101 125 196 134 211 16 27 32 20 26 -11z m-5132
-38 c-7 -2 -19 -2 -25 0 -7 3 -2 5 12 5 14 0 19 -2 13 -5z m-66 -85 c-2 -13
-4 -3 -4 22 0 25 2 35 4 23 2 -13 2 -33 0 -45z"/>
<path d="M11680 12774 c0 -11 853 -1034 863 -1034 5 0 41 17 81 37 172 91 286
279 286 473 0 233 -172 457 -395 515 -48 12 -131 15 -447 15 -213 0 -388 -3
-388 -6z"/>
</g>
</svg>
