<?xml version="1.0" encoding="utf-8"?>
<!-- Generator: Adobe Illustrator 23.0.5, SVG Export Plug-In . SVG Version: 6.00 Build 0)  -->
<svg version="1.1" id="Layer_1" xmlns="http://www.w3.org/2000/svg" xmlns:xlink="http://www.w3.org/1999/xlink" x="0px" y="0px"
	 viewBox="0 0 138.9 138.9" style="enable-background:new 0 0 138.9 138.9;" xml:space="preserve">
<style type="text/css">
	.st0{fill:#FFFFFF;}
</style>
<g>
	<path class="st0" d="M56.5,50.5c2.2,8.3,4.9,16.5,7.4,24.7H49.1C51.5,67.1,54.1,58.8,56.5,50.5z"/>
	<path class="st0" d="M135.5,17.2c-3-5.9-7.8-10.7-13.7-13.7C115,0,106.2,0,88.6,0H50.3C32.7,0,23.9,0,17.2,3.4
		c-5.9,3-10.7,7.8-13.7,13.7C0,23.9,0,32.7,0,50.3v38.4c0,17.6,0,26.4,3.4,33.1c3,5.9,7.8,10.7,13.7,13.7c6.7,3.4,15.5,3.4,33.1,3.4
		h38.4c17.6,0,26.4,0,33.1-3.4c5.9-3,10.7-7.8,13.7-13.7c3.4-6.7,3.4-15.5,3.4-33.1V50.3C138.9,32.7,138.9,23.9,135.5,17.2z
		 M85.1,102.1H73c-0.4,0-0.8-0.2-0.9-0.7l-4.8-14.1H45.8l-4.4,14c-0.1,0.5-0.6,0.9-1.1,0.9H29.4c-0.6,0-0.8-0.4-0.7-1.1l18.6-55
		c0.2-0.6,0.4-1.2,0.6-2c0.2-1.3,0.4-2.6,0.4-3.9c-0.1-0.4,0.3-0.7,0.7-0.7h14.8c0.4,0,0.7,0.2,0.7,0.5l21.1,61.2
		C85.8,101.8,85.7,102.1,85.1,102.1z M104.8,101.1c0,0.6-0.2,1-0.7,1H92.6c-0.6,0-0.8-0.3-0.8-1V55.5c0-0.6,0.2-0.9,0.7-0.9H104
		c0.5,0,0.7,0.3,0.7,0.9V101.1z M105.1,45c-0.3,0.9-0.9,1.8-1.5,2.5c-0.7,0.7-1.5,1.3-2.5,1.6c-0.9,0.4-1.9,0.5-2.9,0.5
		c-1,0-1.9-0.1-2.8-0.5c-0.9-0.4-1.7-0.9-2.3-1.6c-0.7-0.7-1.2-1.6-1.5-2.5c-0.3-0.9-0.5-1.9-0.4-2.9c0-1,0.1-2,0.5-2.9
		c0.4-0.9,0.9-1.7,1.6-2.4c0.7-0.7,1.5-1.2,2.4-1.6c0.9-0.4,1.8-0.5,2.8-0.5c2.2,0,4,0.7,5.3,2.1c0.6,0.7,1.1,1.5,1.5,2.5
		c0.3,0.9,0.5,1.9,0.4,2.8C105.6,43.1,105.5,44.1,105.1,45z"/>
</g>
</svg>
