<?xml version="1.0" encoding="utf-8"?>
<!-- Generator: Adobe Illustrator 23.0.5, SVG Export Plug-In . SVG Version: 6.00 Build 0)  -->
<svg version="1.1" id="Layer_1" xmlns="http://www.w3.org/2000/svg" xmlns:xlink="http://www.w3.org/1999/xlink" x="0px" y="0px"
	 viewBox="0 0 138.9 194.5" style="enable-background:new 0 0 138.9 194.5;" xml:space="preserve">
<style type="text/css">
	.st0{fill:#FFFFFF;}
</style>
<g id="c133de6af664cd4f011a55de6b001a2b">
	<path class="st0" d="M49.7,17.6V26H28.2V0h21.4v9.2H37.4v8.4H49.7z M71.7,9.2h8.6V0H58.8c0,0,0,4.6,0,9.2c2.9,2.9,4.4,4.2,8.5,8.4
		c-2.4,0-8.5,0-8.5,0V26h21.4v-8.4L71.7,9.2z M102.1,9.2h8.6V0H89.2c0,0,0,4.6,0,9.2c2.9,2.9,4.4,4.2,8.5,8.4c-2.4,0-8.5,0-8.5,0V26
		h21.4v-8.4L102.1,9.2z M138.9,38.3l-13,141l-56.4,15.2L13,179.4L0,38.3H138.9z M112.6,67H69.4h-44l2.1,17h41.9h2.4l-2.4,1L29,101.8
		l1.3,16.6l39,0.1l20.9,0.1L89,140.9l-19.6,5.5v0l-0.2,0l-18.9-4.8l-1.1-13.8h-0.1H31.6h-0.1l2.3,26.6L69.4,165v0l0.1,0l35.4-10.3
		l4.6-52.8H69.4h-0.1l0.1,0L110.9,84L112.6,67z"/>
</g>
</svg>
