<?xml version="1.0" encoding="utf-8"?>
<!-- Generator: Adobe Illustrator 23.0.5, SVG Export Plug-In . SVG Version: 6.00 Build 0)  -->
<svg version="1.1" id="Layer_1" xmlns="http://www.w3.org/2000/svg" xmlns:xlink="http://www.w3.org/1999/xlink" x="0px" y="0px"
	 viewBox="0 0 138.9 208.3" style="enable-background:new 0 0 138.9 208.3;" xml:space="preserve">
<style type="text/css">
	.st0{opacity:0.6;fill:#DBDBDB;enable-background:new    ;}
	.st1{opacity:0.4;fill:#CECECE;enable-background:new    ;}
	.st2{fill:#FFFFFF;}
	.st3{opacity:0.2;fill:#9F9FA0;enable-background:new    ;}
	.st4{opacity:0.8;fill:#EFEFEF;enable-background:new    ;}
</style>
<g>
	<path class="st0" d="M69.4,0H34.7C15.5,0,0,15.5,0,34.7s15.5,34.7,34.7,34.7h34.7V0z"/>
	<path class="st1" d="M69.4,69.4H34.7C15.5,69.4,0,85,0,104.2c0,19.2,15.5,34.7,34.7,34.7h34.7V69.4z"/>
	<path class="st2" d="M138.9,104.2c0,19.2-15.5,34.7-34.7,34.7c-19.2,0-34.7-15.5-34.7-34.7c0-19.2,15.5-34.7,34.7-34.7
		C123.3,69.4,138.9,85,138.9,104.2z"/>
	<path class="st3" d="M34.7,138.9h34.7v34.7c0,19.2-15.5,34.7-34.7,34.7C15.5,208.3,0,192.8,0,173.6C0,154.4,15.5,138.9,34.7,138.9z
		"/>
	<path class="st4" d="M69.4,0h34.7c19.2,0,34.7,15.5,34.7,34.7s-15.5,34.7-34.7,34.7H69.4V0z"/>
</g>
</svg>
