<?xml version="1.0" encoding="utf-8"?>
<!-- Generator: Adobe Illustrator 23.0.5, SVG Export Plug-In . SVG Version: 6.00 Build 0)  -->
<svg version="1.1" id="Layer_1" xmlns="http://www.w3.org/2000/svg" xmlns:xlink="http://www.w3.org/1999/xlink" x="0px" y="0px"
	 viewBox="0 0 138.9 196" style="enable-background:new 0 0 138.9 196;" xml:space="preserve">
<style type="text/css">
	.st0{fill:#FFFFFF;}
	.st1{fill:#E2E2E2;}
	.st2{fill:#EBEBEB;}
</style>
<g>
	<path class="st0" d="M0,38.5l12.6,141.8L69.4,196l56.9-15.8l12.7-141.7H0z M112.9,67.5l-0.4,4.7l-0.8,8.8l-0.3,3.9H69.4V67.5H112.9
		z M26.3,72.2l-0.4-4.7h43.5v17.4H44.8l1.6,17.8h22.9v17.4H30.5L26.3,72.2z M33.7,156.1l-2.4-27.3h17.5l1.2,13.9l19.4,5.2l0,0v18.1
		l0.1,0v-18.1l19.3-5.2l2-22.5H69.4v-17.4h40.4l-0.4,4.7l-4.1,45.8l-0.3,2.9l-35.6,9.9v0l-0.1,0L33.7,156.1z"/>
	<polygon class="st1" points="88.8,142.6 69.4,147.8 69.4,120.1 90.8,120.1 	"/>
	<polygon class="st1" points="126.2,50.1 115.4,171.2 69.4,184 69.4,165.9 105,156.1 105.3,153.1 109.4,107.4 109.8,102.7 
		69.4,102.7 69.4,84.9 111.4,84.9 111.7,81 112.5,72.2 112.9,67.5 69.4,67.5 69.4,50.1 	"/>
	<path class="st2" d="M69.4,147.9v18.1l0.1,0L69.4,147.9L69.4,147.9z M69.4,102.7v17.4h0.1L69.4,102.7L69.4,102.7z M69.4,67.5v17.4
		h0.1L69.4,67.5L69.4,67.5z"/>
	<path class="st0" d="M12.9,0h8.8v8.7h8.1V0h8.8v26.4h-8.8v-8.9h-8.1v8.9h-8.8L12.9,0L12.9,0z M50.3,8.8h-7.8V0h24.4v8.8h-7.8v17.7
		h-8.8L50.3,8.8L50.3,8.8L50.3,8.8z M70.8,0H80l5.7,9.3L91.3,0h9.2v26.4h-8.8V13.3l-6.1,9.4h-0.2l-6.1-9.4v13.1h-8.6V0z M104.9,0
		h8.8v17.7h12.4v8.7h-21.3L104.9,0L104.9,0z"/>
</g>
</svg>
