<?xml version="1.0" encoding="utf-8"?>
<!-- Generator: Adobe Illustrator 23.0.5, SVG Export Plug-In . SVG Version: 6.00 Build 0)  -->
<svg version="1.1" id="Layer_1" xmlns="http://www.w3.org/2000/svg" xmlns:xlink="http://www.w3.org/1999/xlink" x="0px" y="0px"
	 viewBox="0 0 138.9 138.9" style="enable-background:new 0 0 138.9 138.9;" xml:space="preserve">
<style type="text/css">
	.st0{fill:#FFFFFF;}
</style>
<path class="st0" d="M118,0H20.8C9.3,0,0,9.3,0,20.8V118c0,11.5,9.3,20.8,20.8,20.8H118c11.5,0,20.8-9.3,20.8-20.8V20.8
	C138.9,9.3,129.6,0,118,0z M70.3,99.5c0,13.6-7.9,19.5-19.5,19.5c-10.6,0-16.5-5.4-19.5-11.9l10.6-5.7c2.2,3.5,3.8,6.8,8.4,6.8
	c4.3,0,7.1-1.6,7.1-8.1v-45h13V99.5z M100.9,119.9c-12.2,0-20.1-5.7-23.9-13.3l10.8-6.2c2.7,4.6,6.5,7.9,12.7,7.9c5.4,0,9-2.7,9-6.5
	c0-4.3-3.5-6-9.5-8.7l-3.3-1.4c-9.5-4.1-15.7-9-15.7-19.5c0-9.8,7.3-17.4,19-17.4c8.4,0,14.4,3,18.4,10.6l-10,6.5
	c-2.2-4.1-4.6-5.7-8.4-5.7s-6.2,2.4-6.2,5.7c0,3.8,2.4,5.4,8.1,7.9l3.3,1.4c11.1,4.9,17.4,9.5,17.4,20.6
	C122.6,113.4,113.4,119.9,100.9,119.9z"/>
</svg>
