<?xml version="1.0" encoding="utf-8"?>
<!-- Generator: Adobe Illustrator 23.0.5, SVG Export Plug-In . SVG Version: 6.00 Build 0)  -->
<svg version="1.1" id="Layer_1" xmlns="http://www.w3.org/2000/svg" xmlns:xlink="http://www.w3.org/1999/xlink" x="0px" y="0px"
	 viewBox="0 0 138.9 138.9" style="enable-background:new 0 0 138.9 138.9;" xml:space="preserve">
<g>
	<path d="M115.7,0H23.1C10.4,0,0,10.4,0,23.1v92.6c0,12.7,10.4,23.1,23.1,23.1h92.6c12.7,0,23.1-10.4,23.1-23.1V23.1
		C138.9,10.4,128.5,0,115.7,0z M66.5,70.7c-4.8,4.8-12.4,7.1-21,7.1c-2.3,0-4.3-0.1-5.9-0.4v25h-12V36.9c4.3-0.8,10.3-1.4,18.5-1.4
		c8.9,0,15.3,1.9,19.6,5.4c3.9,3.2,6.5,8.5,6.5,14.7C72.2,61.9,70.3,67.1,66.5,70.7z M91.7,103.3c-5.8,0-11-1.4-14.6-3.3l2.4-8.8
		c2.8,1.7,8,3.4,12.3,3.4c5.3,0,7.7-2.2,7.7-5.3c0-3.2-2-4.9-7.9-7c-9.3-3.2-13.3-8.4-13.2-14c0-8.5,7-15.1,18.1-15.1
		c5.3,0,9.9,1.4,12.7,2.9l-2.4,8.6c-2.1-1.2-5.9-2.8-10.1-2.8c-4.3,0-6.7,2.1-6.7,5c0,3.1,2.3,4.5,8.4,6.7
		c8.7,3.1,12.7,7.6,12.8,14.7C111.2,97,104.4,103.3,91.7,103.3z M60.1,56.1c0,7.8-5.5,12.2-14.6,12.2c-2.5,0-4.4-0.1-5.9-0.5V45.4
		c1.3-0.3,3.6-0.6,7-0.6C55,44.8,60.1,48.7,60.1,56.1z"/>
</g>
</svg>
