<?xml version="1.0" encoding="utf-8"?>
<!-- Generator: Adobe Illustrator 23.0.5, SVG Export Plug-In . SVG Version: 6.00 Build 0)  -->
<svg version="1.1" id="Layer_1" xmlns="http://www.w3.org/2000/svg" xmlns:xlink="http://www.w3.org/1999/xlink" x="0px" y="0px"
	 viewBox="0 0 138.9 73.1" style="enable-background:new 0 0 138.9 73.1;" xml:space="preserve">
<style type="text/css">
	.st0{fill:#FFFFFF;}
</style>
<g>
	<path class="st0" d="M46.6,27.8c1,1.1,1.2,3,0.7,5.8c-0.6,2.8-1.6,4.9-3.2,6.1c-1.6,1.2-4,1.8-7.2,1.8h-4.9l3-15.3h5.5
		C43.6,26.2,45.6,26.7,46.6,27.8z"/>
	<path class="st0" d="M69.4,0C31.1,0,0,16.4,0,36.5s31.1,36.5,69.4,36.5s69.4-16.4,69.4-36.5S107.8,0,69.4,0z M50.6,43.1
		c-1.6,1.5-3.4,2.6-5.3,3.2s-4.4,0.9-7.4,0.9H31L29.1,57h-8l7.1-36.6h15.3c4.6,0,8,1.2,10.1,3.6c2.1,2.4,2.8,5.8,1.9,10.1
		c-0.3,1.8-0.9,3.4-1.8,4.9C53,40.5,51.9,41.9,50.6,43.1z M73.9,47.3L77,31.1c0.4-1.8,0.2-3.1-0.4-3.8c-0.6-0.7-1.9-1-4-1h-6.3
		l-4.1,21h-7.9l7.1-36.6h7.9l-1.9,9.7h7c4.4,0,7.5,0.8,9.2,2.3c1.7,1.5,2.2,4.1,1.5,7.5l-3.3,17H73.9z M117.8,34.1
		c-0.3,1.8-0.9,3.4-1.8,4.9c-0.8,1.5-1.9,2.8-3.2,4.1c-1.6,1.5-3.4,2.6-5.3,3.2c-1.9,0.6-4.4,0.9-7.4,0.9h-6.8L91.3,57h-8l7.1-36.6
		h15.3c4.6,0,8,1.2,10.1,3.6C118,26.4,118.7,29.8,117.8,34.1z M102.8,26.2h-5.5l-3,15.3h4.9c3.2,0,5.6-0.6,7.2-1.8
		c1.6-1.2,2.6-3.2,3.2-6.1c0.5-2.7,0.3-4.6-0.7-5.8C107.9,26.7,105.8,26.2,102.8,26.2z"/>
	<path class="st0" d="M47.3,33.6c-0.6,2.8-1.6,4.9-3.2,6.1c-1.6,1.2-4,1.8-7.2,1.8h-4.9l3-15.3h5.5c3,0,5,0.6,6.1,1.7
		S47.9,30.9,47.3,33.6z"/>
	<path class="st0" d="M109.6,33.6c-0.6,2.8-1.6,4.9-3.2,6.1c-1.6,1.2-4,1.8-7.2,1.8h-4.9l3-15.3h5.5c3,0,5,0.6,6.1,1.7
		C109.9,28.9,110.1,30.9,109.6,33.6z"/>
</g>
</svg>
