<?xml version="1.0" encoding="utf-8"?>
<!-- Generator: Adobe Illustrator 23.0.5, SVG Export Plug-In . SVG Version: 6.00 Build 0)  -->
<svg version="1.1" id="Capa_1" xmlns="http://www.w3.org/2000/svg" xmlns:xlink="http://www.w3.org/1999/xlink" x="0px" y="0px"
	 viewBox="0 0 138.9 97.1" style="enable-background:new 0 0 138.9 97.1;" xml:space="preserve">
<style type="text/css">
	.st0{fill:#FFFFFF;}
</style>
<g>
	<g>
		<path class="st0" d="M136.7,20.9c1.2,0,2.2-1,2.2-2.2v-8.5c0-5.6-4.5-10.1-10.1-10.1H10.1C4.6,0,0,4.5,0,10.1V87
			c0,5.6,4.6,10.1,10.1,10.1h118.6c5.6,0,10.1-4.6,10.1-10.1V25.8c0-1.2-1-2.2-2.2-2.2c-1.2,0-2.2,1-2.2,2.2V87
			c0,3.2-2.6,5.8-5.8,5.8H10.1c-3.2,0-5.8-2.6-5.8-5.8V10.1C4.4,7,7,4.4,10.1,4.4h118.6c3.2,0,5.8,2.6,5.8,5.8v8.5
			C134.5,19.9,135.5,20.9,136.7,20.9z"/>
	</g>
</g>
<g>
	<g>
		<path class="st0" d="M58.6,43.8c-3,0-4.5,4.5-4.5,7.3c0,2.1,1.1,3.6,2.8,3.6h0c2.8,0,4.5-4.3,4.5-7.4
			C61.4,45.6,60.7,43.8,58.6,43.8z"/>
	</g>
</g>
<g>
	<g>
		<path class="st0" d="M77.3,44.2c-2,0-3.8,2.2-4.4,5.8l-0.7,4c0.6,0.5,1.3,0.9,2.4,0.9c2.8,0,5-4.1,5-7.7
			C79.5,45.8,78.9,44.2,77.3,44.2z"/>
	</g>
</g>
<g>
	<g>
		<path class="st0" d="M124.3,36C124.3,36,124.3,36,124.3,36C124.3,36,124.3,36,124.3,36L124.3,36h-5.5c-1.3,0-2.5,0.5-3.3,1.5
			c-0.8-0.9-2-1.5-3.3-1.5h-0.5l0.6-3c0.4-2-0.6-4.1-2.5-4.9c-1.2-0.5-2.8-0.8-4.6-0.8c-2.9,0-5.7,0.9-7.8,2.6
			c-1.3-1.5-3.2-2.4-5.5-2.4c-4.3,0-7.6,3.4-7.6,7.6c0,0.7,0.1,1.4,0.3,2.1c-1.6-1.1-3.5-1.7-5.6-1.7c-1.3,0-2.5,0.2-3.7,0.6
			c-0.5-0.2-1.1-0.4-1.8-0.4h0h-4.7c-1.3,0-2.4,0.5-3.2,1.4c-1.9-1.2-4.1-1.8-6.6-1.8c-3.5,0-6.7,1.2-9.3,3.3c0-0.1-0.1-0.1-0.1-0.2
			c-1.6-1.7-3.9-2.7-6.4-2.7l0.5-2.5c0.1-0.3,0.1-0.6,0.1-0.9c0-2.4-2-4.4-4.4-4.4h0h-5.2c-2.1,0-3.9,1.5-4.3,3.6l-0.8,4.2
			c-1.1-0.2-2.3-0.4-3.5-0.4c-7.1,0-12.2,4.5-12.2,10.7c0,1,0.2,2.5,1,4c-0.8,0.5-1.4,1.3-1.7,2.2L11.6,56c-0.6,1.8,0,3.8,1.5,4.9
			c1.9,1.4,4.8,2.2,8,2.3c0,0,0,0,0,0l0.1,0c2,0,3.8-0.3,5.5-0.9c0.8,0.6,1.7,0.9,2.7,0.9h5.2c1.1,0,2-0.4,2.8-1
			c0.8,0.7,1.8,1,2.8,1h5.2c1.5,0,2.9-0.8,3.7-2c2,1.3,4.4,2,7,2h0c1.6,0,3.2-0.2,4.6-0.7l-0.5,2.7c-0.2,1.3,0.1,2.6,0.9,3.6
			s2.1,1.6,3.4,1.6h5.2c2.1,0,3.9-1.5,4.3-3.6l0.6-3.4c2.5,0,4.8-0.7,6.9-1.9c0.8,0.9,2,1.5,3.3,1.5h5.2c0.6,0,1.2-0.1,1.8-0.4
			c0.5,0.2,1.1,0.4,1.8,0.4H99c0.3,0,0.6,0,0.9-0.1c0,0.2,0.1,0.5,0.1,0.7l1.2,4.6c0.5,2,2.3,3.3,4.2,3.3c0.2,0,0.5,0,0.7-0.1
			c2-0.3,5.3-1.6,8.1-4.3c2.7-2.6,5-6.2,7.7-11.7l6.3-13c0.3-0.6,0.5-1.3,0.5-2C128.7,37.9,126.8,36,124.3,36z M24.7,58.3
			C24.7,58.3,24.7,58.3,24.7,58.3c-0.2,0-0.3,0.1-0.4,0.1c0,0,0,0-0.1,0c-0.1,0-0.2,0.1-0.4,0.1c0,0-0.1,0-0.1,0
			c-0.1,0-0.3,0.1-0.4,0.1c0,0,0,0,0,0c-0.2,0-0.3,0-0.5,0.1c0,0,0,0-0.1,0c-0.1,0-0.3,0-0.4,0c-0.1,0-0.1,0-0.2,0
			c-0.1,0-0.2,0-0.3,0c-0.1,0-0.1,0-0.2,0c-0.1,0-0.2,0-0.3,0c0,0-0.1,0-0.1,0c0,0-0.1,0-0.1,0c-2.2,0-4.4-0.6-5.4-1.4l1.3-3.8
			c1,0.5,2.9,1.3,4.6,1.3c1.5,0,2.2-0.7,2.2-1.6c0-0.9-0.6-1.5-2.2-2.4c-2-1-3.7-2.6-3.7-4.9c0-3.8,3.2-6.3,7.8-6.3
			c0.3,0,0.5,0,0.8,0c0,0,0,0,0,0c0.7,0,1.4,0.1,2,0.3c0,0,0,0,0,0c0.8,0.2,1.4,0.4,1.8,0.6L29,44.5c-0.3-0.2-0.8-0.3-1.3-0.5
			c-0.1,0-0.3-0.1-0.5-0.1c0,0,0,0-0.1,0c-0.1,0-0.3-0.1-0.4-0.1c0,0-0.1,0-0.1,0c-0.1,0-0.3,0-0.4,0c0,0-0.1,0-0.1,0
			c-0.2,0-0.4,0-0.6,0c-1.4,0-2.3,0.6-2.3,1.6c0,0.7,0.7,1.4,2.1,2.1c0.1,0.1,0.3,0.1,0.4,0.2c0,0,0,0,0,0c0.1,0.1,0.2,0.1,0.4,0.2
			c0,0,0,0,0,0c1.7,1,3.2,2.4,3.2,4.6C29.3,55.4,27.5,57.5,24.7,58.3z M47.5,48.4l-1.9,10.5h-5.2l1.9-10c0.1-0.7,0.2-1.5,0.2-2.2
			c0-1.2-0.5-2.1-1.8-2.1c-1.9,0-3.7,2.3-4.4,6l-1.6,8.4h-3.1h-2.1l3.9-21.3l1-5.3h5.2l-2,10.6h0.1c1.5-1.7,3.3-2.8,5.7-2.8
			c0.2,0,0.4,0,0.6,0c0.1,0,0.1,0,0.2,0c0.1,0,0.3,0,0.4,0.1c0.1,0,0.1,0,0.2,0c0.1,0,0.2,0.1,0.4,0.1c0,0,0.1,0,0.1,0
			c0.1,0,0.3,0.1,0.4,0.2c0,0,0,0,0,0c1.4,0.7,2.3,2.3,2.3,4.5C47.8,45.9,47.7,47.3,47.5,48.4z M92.2,31.8c0.1,0,0.3,0,0.4,0
			c0,0,0.1,0,0.1,0c0.1,0,0.2,0,0.3,0.1c0,0,0,0,0,0c0.1,0,0.2,0.1,0.3,0.1c0,0,0,0,0.1,0c0.1,0,0.2,0.1,0.3,0.2c0,0,0,0,0,0
			c0.1,0.1,0.2,0.1,0.3,0.2c0,0,0,0,0,0c0.3,0.2,0.5,0.6,0.7,0.9l0,0c0.2,0.4,0.2,0.8,0.2,1.2c0,2.1-1.5,3.3-3.3,3.3h0
			c-0.2,0-0.3,0-0.5,0c0,0,0,0,0,0c-0.1,0-0.2,0-0.2,0c0,0,0,0,0,0c-0.1,0-0.1,0-0.2-0.1c0,0,0,0,0,0c-0.1,0-0.1-0.1-0.2-0.1
			c0,0,0,0,0,0c-0.3-0.2-0.6-0.4-0.9-0.7c0,0,0,0,0,0c0,0-0.1-0.1-0.1-0.1c0,0,0,0-0.1-0.1c0,0-0.1-0.1-0.1-0.1c0,0,0-0.1-0.1-0.1
			c0,0,0-0.1-0.1-0.1c0,0,0-0.1-0.1-0.1c0,0,0-0.1,0-0.1c0,0,0-0.1,0-0.1c0,0,0-0.1,0-0.1c0,0,0-0.1,0-0.2c0,0,0-0.1,0-0.1
			c0-0.1,0-0.1,0-0.2c0,0,0-0.1,0-0.1c0-0.1,0-0.2,0-0.3C89,33.1,90.5,31.8,92.2,31.8z M61.8,57.2L61.8,57.2
			C61.8,57.2,61.8,57.2,61.8,57.2c-0.2,0.1-0.4,0.2-0.6,0.3c0,0-0.1,0-0.1,0.1c-0.2,0.1-0.3,0.2-0.5,0.3c0,0-0.1,0-0.1,0
			c-0.2,0.1-0.4,0.2-0.6,0.3c0,0-0.1,0-0.1,0c-0.2,0.1-0.4,0.1-0.5,0.2c-0.1,0-0.1,0-0.2,0c-0.2,0.1-0.4,0.1-0.6,0.1
			c0,0-0.1,0-0.1,0c-0.2,0-0.4,0.1-0.7,0.1c-0.1,0-0.1,0-0.2,0c-0.2,0-0.3,0-0.5,0.1c-0.1,0-0.1,0-0.2,0c-0.2,0-0.5,0-0.7,0h0
			c-0.1,0-0.3,0-0.4,0c0,0-0.1,0-0.1,0c-0.1,0-0.2,0-0.3,0c-0.1,0-0.1,0-0.2,0c-0.1,0-0.2,0-0.3,0c-0.1,0-0.1,0-0.2,0
			c-0.1,0-0.2,0-0.3,0c-0.1,0-0.1,0-0.2,0c-0.1,0-0.2,0-0.2-0.1c0,0-0.1,0-0.1,0c-0.1,0-0.2,0-0.2-0.1c0,0-0.1,0-0.1,0
			c-0.1,0-0.2-0.1-0.3-0.1c0,0-0.1,0-0.1,0c-0.1,0-0.2-0.1-0.3-0.1c0,0-0.1,0-0.1,0c-0.1,0-0.2-0.1-0.3-0.1c0,0,0,0-0.1,0
			c-0.1-0.1-0.2-0.1-0.3-0.2c0,0,0,0,0,0c-0.7-0.4-1.3-0.9-1.8-1.4c0,0,0,0,0,0c-1.1-1.3-1.8-3.1-1.8-5.1c0-3.4,1.2-6.4,3.3-8.5l0,0
			c0.1-0.1,0.1-0.1,0.2-0.2c0.1-0.1,0.1-0.1,0.2-0.2c0.1-0.1,0.1-0.1,0.2-0.2c0.1-0.1,0.1-0.1,0.2-0.2c0.1-0.1,0.1-0.1,0.2-0.2
			c0.1-0.1,0.1-0.1,0.2-0.2c0.1-0.1,0.1-0.1,0.2-0.2c0.1,0,0.1-0.1,0.2-0.1c0.1,0,0.1-0.1,0.2-0.1c0.1,0,0.1-0.1,0.2-0.1
			c0.1,0,0.1-0.1,0.2-0.1c0.1,0,0.1-0.1,0.2-0.1c0.1,0,0.1-0.1,0.2-0.1c0.1,0,0.2-0.1,0.2-0.1c0.1,0,0.2-0.1,0.2-0.1
			c0.1,0,0.2-0.1,0.2-0.1c0.1,0,0.2-0.1,0.2-0.1c0.1,0,0.2-0.1,0.3-0.1c0.1,0,0.2-0.1,0.2-0.1c0.1,0,0.2-0.1,0.3-0.1
			c0.1,0,0.2,0,0.2-0.1c0.1,0,0.2,0,0.3-0.1c0.1,0,0.2,0,0.2-0.1c0.1,0,0.2,0,0.3-0.1c0.1,0,0.2,0,0.2,0c0.1,0,0.2,0,0.3,0
			c0.1,0,0.1,0,0.2,0c0.1,0,0.2,0,0.4,0c0.1,0,0.1,0,0.2,0c0.2,0,0.4,0,0.6,0c0.1,0,0.3,0,0.4,0c0,0,0.1,0,0.1,0c0.1,0,0.2,0,0.3,0
			c0.1,0,0.1,0,0.2,0c0.1,0,0.2,0,0.2,0c0.1,0,0.1,0,0.2,0c0.1,0,0.1,0,0.2,0c0.1,0,0.1,0,0.2,0c0.1,0,0.1,0,0.2,0
			c0.1,0,0.1,0,0.2,0c0.1,0,0.1,0,0.2,0c0.1,0,0.1,0,0.2,0.1c0,0,0.1,0,0.1,0c0.1,0,0.1,0,0.2,0.1c0,0,0.1,0,0.1,0
			c0.1,0,0.1,0.1,0.2,0.1c0,0,0.1,0,0.1,0c0.1,0,0.2,0.1,0.2,0.1c0,0,0,0,0.1,0c0.6,0.3,1.1,0.7,1.6,1.1c0,0,0,0,0,0
			c1.5,1.4,2.3,3.4,2.3,5.7C66.9,51.7,64.9,55.3,61.8,57.2z M79.6,57.6C79.6,57.6,79.6,57.6,79.6,57.6c-0.2,0.1-0.3,0.2-0.4,0.2
			c0,0-0.1,0-0.1,0c-0.3,0.2-0.6,0.3-1,0.5c-0.1,0-0.1,0-0.2,0.1c-0.1,0-0.2,0.1-0.3,0.1c-0.1,0-0.1,0-0.2,0.1
			c-0.1,0-0.2,0.1-0.2,0.1c-0.1,0-0.2,0.1-0.3,0.1c-0.1,0-0.1,0-0.2,0c-0.2,0-0.3,0.1-0.5,0.1c-0.1,0-0.1,0-0.2,0
			c-0.1,0-0.2,0-0.3,0.1c-0.1,0-0.1,0-0.2,0c-0.1,0-0.2,0-0.4,0c-0.1,0-0.1,0-0.2,0c-0.2,0-0.3,0-0.5,0c-1.4,0-2.7-0.4-3.3-0.7h-0.1
			L69.9,66h-5.2l3.5-18.6c0.4-2.2,0.8-5.3,1-7.2h4.7l-0.3,2.8h0.1c1.5-2,3.6-3.1,5.7-3.1c0.1,0,0.2,0,0.4,0c0,0,0.1,0,0.1,0
			c0.1,0,0.2,0,0.3,0c0,0,0.1,0,0.1,0c0.1,0,0.2,0,0.2,0c0,0,0.1,0,0.1,0c0.1,0,0.2,0,0.2,0c0,0,0.1,0,0.1,0c0.1,0,0.2,0,0.2,0.1
			c0,0,0,0,0.1,0c0.1,0,0.2,0,0.2,0.1c0,0,0,0,0.1,0c0.1,0,0.2,0.1,0.2,0.1c0,0,0,0,0,0c0.1,0,0.2,0.1,0.2,0.1c0,0,0,0,0,0
			c0.1,0,0.2,0.1,0.2,0.1c0,0,0,0,0,0c0.1,0,0.2,0.1,0.2,0.1c0,0,0,0,0,0c0.1,0.1,0.2,0.1,0.2,0.2c0,0,0,0,0,0
			c0.1,0.1,0.2,0.1,0.2,0.2c0,0,0,0,0,0c1.5,1.3,2.2,3.4,2.2,5.7C85,51.3,83,55.5,79.6,57.6z M90.3,58.5h-0.9h-4.2H85l3.2-17.4
			c0,0,0,0,0,0l0.2-0.9h2h3.2L90.3,58.5z M101.6,44.4L101.6,44.4L99,58.5h-4.3h-0.9l2.6-14.2h-2.3l0.7-4.1h2.3l0.1-0.9
			c0.4-2,1.1-4,2.5-5.5c0,0,0,0,0.1-0.1c0.1-0.2,0.3-0.3,0.5-0.4c1.5-1.2,3.3-1.7,5.1-1.7c1.2,0,2.2,0.2,2.8,0.4l-0.8,3.9l-0.1,0.3
			c-0.3-0.1-0.7-0.2-1.2-0.3h0c-0.2,0-0.3,0-0.5,0c-1.7,0-2.8,1.5-3.1,3.4l-0.1,0.9h0.1h3.4l-0.8,4.1h-1.9L101.6,44.4L101.6,44.4z
			 M104.7,51.8l1,4.8c-0.3,0.3-0.6,0.6-1,0.9c0,0,0,0,0,0c-0.2,0.2-0.6,0.4-1.2,0.6L104.7,51.8z M118,53.5
			c-2.4,4.9-4.5,8.2-6.8,10.5c-2.1,2-4.5,2.9-5.7,3.1l-1.2-4.6c0.8-0.3,2-0.7,3-1.5c1.2-0.9,2.2-1.9,2.9-3.2
			c0.1-0.3,0.1-0.5,0.1-0.9l-3.5-16.6h3.4h2.1l1.1,8c0.3,1.9,0.4,3.2,0.6,4.4h0.1c0.4-1.1,0.8-2.3,1.6-4.3l3.2-8h5.5L118,53.5z"/>
	</g>
</g>
</svg>
