<?xml version="1.0" encoding="utf-8"?>
<!-- Generator: Adobe Illustrator 23.0.5, SVG Export Plug-In . SVG Version: 6.00 Build 0)  -->
<svg version="1.1" id="Layer_1" xmlns="http://www.w3.org/2000/svg" xmlns:xlink="http://www.w3.org/1999/xlink" x="0px" y="0px"
	 viewBox="0 0 138.9 31.5" style="enable-background:new 0 0 138.9 31.5;" xml:space="preserve">
<style type="text/css">
	.st0{fill:#FFFFFF;}
</style>
<g>
	<path class="st0" d="M80.5,12.4h-5.5V13c1.7,0,2,0.4,2,2.5v3.9c0,2.2-0.3,2.6-2,2.6c-1.3-0.2-2.2-0.9-3.4-2.2l-1.4-1.5
		c1.9-0.3,2.9-1.5,2.9-2.9c0-1.7-1.4-3-4.1-3h-5.4V13c1.7,0,2,0.4,2,2.5v3.9c0,2.2-0.3,2.6-2,2.6v0.6h6.1V22c-1.7,0-2-0.4-2-2.6
		v-1.1h0.5l3.4,4.2h8.9c4.4,0,6.3-2.3,6.3-5.1C86.8,14.7,84.9,12.4,80.5,12.4L80.5,12.4L80.5,12.4z M67.8,17.4v-4.1H69
		c1.4,0,2,0.9,2,2c0,1.1-0.6,2-2,2L67.8,17.4L67.8,17.4L67.8,17.4z M80.6,21.6h-0.2c-1.1,0-1.3-0.3-1.3-1.7v-6.6h1.5
		c3.2,0,3.8,2.3,3.8,4.1C84.4,19.3,83.8,21.6,80.6,21.6L80.6,21.6L80.6,21.6z M46.6,18.5l2.1-6.2c0.6-1.8,0.3-2.3-1.6-2.3V9.3h5.7
		V10c-1.9,0-2.4,0.5-3.1,2.7l-3.5,10.4h-0.4l-3.1-9.6l-3.2,9.6h-0.4l-3.4-10.4c-0.7-2.2-1.2-2.7-3-2.7V9.3h6.8V10
		c-1.8,0-2.3,0.4-1.6,2.3l2,6.2L43,9.3h0.6L46.6,18.5L46.6,18.5z M57,23c-3.4,0-6.1-2.5-6.1-5.5c0-3,2.7-5.5,6.1-5.5
		c3.4,0,6.1,2.5,6.1,5.5C63.1,20.5,60.4,23,57,23L57,23L57,23z M57,13c-2.8,0-3.8,2.5-3.8,4.5c0,2,1,4.5,3.8,4.5
		c2.8,0,3.8-2.5,3.8-4.5C60.8,15.5,59.9,13,57,13L57,13L57,13z"/>
	<path class="st0" d="M94.4,22v0.6h-7V22c2,0,2.4-0.5,2.4-3.6v-4.9c0-3.1-0.4-3.5-2.4-3.5V9.3h6.3c3.1,0,4.9,1.6,4.9,3.8
		c0,2.1-1.7,3.8-4.9,3.8h-1.7v1.5C91.9,21.4,92.3,22,94.4,22L94.4,22L94.4,22z M93.7,10.4h-1.7v5.3h1.7c1.7,0,2.5-1.2,2.5-2.6
		C96.2,11.7,95.4,10.4,93.7,10.4L93.7,10.4L93.7,10.4z M119.5,19.7l-0.2,0.5c-0.3,1-0.6,1.4-2.8,1.4h-0.4c-1.6,0-1.9-0.4-1.9-2.5
		v-1.4c2.4,0,2.6,0.2,2.6,1.8h0.6v-4.6h-0.6c0,1.6-0.2,1.8-2.6,1.8v-3.4h1.7c2.2,0,2.5,0.4,2.8,1.4l0.2,0.6h0.5l-0.2-2.9h-9V13
		c1.7,0,2,0.4,2,2.5v3.9c0,2-0.2,2.5-1.6,2.6c-1.3-0.2-2.2-0.9-3.4-2.2l-1.4-1.5c1.9-0.3,2.9-1.5,2.9-2.9c0-1.7-1.4-3-4.1-3h-5.4V13
		c1.7,0,2,0.4,2,2.5v3.9c0,2.2-0.3,2.6-2,2.6v0.6h6.1V22c-1.7,0-2-0.4-2-2.6v-1.1h0.5l3.4,4.2h12.6l0.2-2.9L119.5,19.7L119.5,19.7
		L119.5,19.7z M103.4,17.4v-4.1h1.3c1.4,0,2,0.9,2,2c0,1.1-0.6,2-2,2L103.4,17.4L103.4,17.4L103.4,17.4z M125.7,23
		c-1.2,0-2.3-0.6-2.7-1c-0.2,0.2-0.4,0.6-0.5,1h-0.6v-4.2h0.6c0.2,2,1.6,3.2,3.5,3.2c1,0,1.8-0.5,1.8-1.5c0-0.8-0.7-1.4-2-2
		l-1.7-0.8c-1.2-0.6-2.1-1.6-2.1-2.9c0-1.5,1.4-2.7,3.3-2.7c1,0,1.9,0.4,2.4,0.8c0.2-0.1,0.3-0.5,0.4-0.8h0.6v3.6h-0.6
		c-0.2-1.4-1-2.6-2.6-2.6c-0.9,0-1.6,0.5-1.6,1.3c0,0.8,0.6,1.2,2.1,1.9l1.7,0.8c1.5,0.7,2,1.8,2,2.7C129.5,21.6,127.8,23,125.7,23
		L125.7,23L125.7,23z M135.2,23c-1.2,0-2.3-0.6-2.7-1c-0.2,0.2-0.4,0.6-0.5,1h-0.6v-4.2h0.6c0.2,2,1.6,3.2,3.5,3.2
		c1,0,1.8-0.5,1.8-1.5c0-0.8-0.7-1.4-2-2l-1.7-0.8c-1.2-0.6-2.1-1.6-2.1-2.9c0-1.5,1.4-2.7,3.3-2.7c1,0,1.9,0.4,2.4,0.8
		c0.2-0.1,0.3-0.5,0.4-0.8h0.6v3.6h-0.6c-0.2-1.4-1-2.6-2.6-2.6c-0.9,0-1.6,0.5-1.6,1.3c0,0.8,0.6,1.2,2.1,1.9l1.7,0.8
		c1.5,0.7,2,1.8,2,2.7C138.9,21.6,137.2,23,135.2,23L135.2,23L135.2,23z"/>
	<g>
		<path class="st0" d="M2.2,15.8c0,5.3,3.1,10,7.6,12.2L3.4,10.3C2.7,11.9,2.2,13.8,2.2,15.8L2.2,15.8L2.2,15.8z M24.9,15.1
			c0-1.7-0.6-2.8-1.1-3.7c-0.7-1.1-1.3-2.1-1.3-3.2c0-1.2,0.9-2.4,2.3-2.4c0.1,0,0.1,0,0.2,0c-2.4-2.2-5.6-3.5-9.1-3.5
			C11,2.2,6.9,4.7,4.5,8.3c0.3,0,0.6,0,0.9,0c1.4,0,3.6-0.2,3.6-0.2c0.7,0,0.8,1,0.1,1.1c0,0-0.7,0.1-1.5,0.1l4.9,14.6l3-8.9
			l-2.1-5.8c-0.7,0-1.4-0.1-1.4-0.1c-0.7,0-0.6-1.2,0.1-1.1c0,0,2.2,0.2,3.6,0.2c1.4,0,3.6-0.2,3.6-0.2c0.7,0,0.8,1,0.1,1.1
			c0,0-0.7,0.1-1.5,0.1l4.9,14.5l1.3-4.5C24.4,17.6,24.9,16.2,24.9,15.1L24.9,15.1L24.9,15.1z M16,16.9l-4.1,11.8
			c1.2,0.4,2.5,0.6,3.8,0.6c1.6,0,3.1-0.3,4.5-0.8c0-0.1-0.1-0.1-0.1-0.2L16,16.9L16,16.9z M27.6,9.3c0.1,0.4,0.1,0.9,0.1,1.4
			c0,1.4-0.3,2.9-1,4.8l-4.1,11.9c4-2.3,6.7-6.7,6.7-11.7C29.3,13.4,28.7,11.2,27.6,9.3L27.6,9.3L27.6,9.3z M15.8,0
			C7.1,0,0,7.1,0,15.8c0,8.7,7.1,15.8,15.8,15.8c8.7,0,15.8-7.1,15.8-15.8C31.5,7.1,24.4,0,15.8,0L15.8,0L15.8,0z M15.8,30.8
			c-8.3,0-15-6.7-15-15c0-8.3,6.7-15,15-15c8.3,0,15,6.7,15,15C30.8,24,24,30.8,15.8,30.8L15.8,30.8L15.8,30.8z"/>
	</g>
</g>
</svg>
