<svg width="120" height="34" viewBox="0 0 120 34" fill="none" xmlns="http://www.w3.org/2000/svg">
<rect y="13.5996" width="6.81656" height="6.79999" fill="#039855"/>
<rect x="20.4492" y="20.4004" width="6.81657" height="6.79999" transform="rotate(180 20.4492 20.4004)" fill="#027A48"/>
<path d="M6.81641 13.5998L13.633 6.7998V13.5998L6.81641 20.3998V13.5998Z" fill="#A6F4C5"/>
<path d="M13.6328 20.4002L6.81625 27.2002L6.81625 20.4002L13.6328 13.6002L13.6328 20.4002Z" fill="#6CE9A6"/>
<path d="M0 13.6L13.6331 0V6.79999L6.81656 13.6H0Z" fill="#32D583"/>
<path d="M20.4492 20.4L6.81609 34L6.81609 27.2L13.6327 20.4L20.4492 20.4Z" fill="#12B76A"/>
<path d="M35.2959 24.2821C34.2223 24.2821 33.1818 24.1301 32.1745 23.826C31.1804 23.5219 30.3918 23.1186 29.8086 22.6161L30.7033 20.613C31.2732 21.0625 31.9691 21.4327 32.7908 21.7236C33.6259 22.0013 34.4609 22.1401 35.2959 22.1401C36.3298 22.1401 37.0985 21.9749 37.6022 21.6443C38.1191 21.3137 38.3776 20.8774 38.3776 20.3353C38.3776 19.9386 38.2318 19.6147 37.9402 19.3635C37.6618 19.099 37.304 18.8941 36.8666 18.7486C36.4292 18.6032 35.8327 18.4379 35.0772 18.2528C34.0169 18.0016 33.1553 17.7504 32.4926 17.4991C31.8431 17.2479 31.2798 16.8579 30.8027 16.329C30.3388 15.7869 30.1068 15.0596 30.1068 14.1473C30.1068 13.3804 30.3123 12.6862 30.7231 12.0648C31.1473 11.4301 31.7769 10.9277 32.6119 10.5575C33.4602 10.1872 34.494 10.0021 35.7134 10.0021C36.5617 10.0021 37.3968 10.1079 38.2185 10.3195C39.0403 10.531 39.7494 10.8351 40.3459 11.2318L39.5307 13.235C38.921 12.878 38.2848 12.6069 37.6221 12.4218C36.9594 12.2367 36.3165 12.1441 35.6936 12.1441C34.673 12.1441 33.9108 12.316 33.4072 12.6598C32.9168 13.0036 32.6716 13.4597 32.6716 14.0283C32.6716 14.425 32.8107 14.7489 33.0891 15.0001C33.3807 15.2514 33.7452 15.4497 34.1826 15.5951C34.62 15.7406 35.2164 15.9059 35.9719 16.091C37.0058 16.329 37.854 16.5802 38.5168 16.8446C39.1795 17.0959 39.7428 17.4859 40.2067 18.0148C40.6839 18.5437 40.9224 19.2577 40.9224 20.1568C40.9224 20.9237 40.7104 21.6179 40.2862 22.2393C39.8753 22.8607 39.2458 23.3566 38.3975 23.7268C37.5492 24.097 36.5153 24.2821 35.2959 24.2821Z" fill="#101828"/>
<path d="M43.2467 13.4928H45.7319V24.0838H43.2467V13.4928ZM44.4993 11.7475C44.0486 11.7475 43.6709 11.6086 43.366 11.331C43.0612 11.0401 42.9087 10.6831 42.9087 10.26C42.9087 9.83685 43.0612 9.48646 43.366 9.20879C43.6709 8.91791 44.0486 8.77246 44.4993 8.77246C44.9499 8.77246 45.3277 8.91129 45.6325 9.18896C45.9374 9.45341 46.0898 9.79057 46.0898 10.2005C46.0898 10.6368 45.9374 11.007 45.6325 11.3111C45.3409 11.602 44.9632 11.7475 44.4993 11.7475Z" fill="#101828"/>
<path d="M52.2742 24.2226C51.4127 24.2226 50.571 24.1102 49.7493 23.8855C48.9275 23.6607 48.2714 23.3764 47.781 23.0326L48.7353 21.1485C49.2125 21.4658 49.7824 21.7236 50.4451 21.922C51.1211 22.1071 51.7838 22.1996 52.4333 22.1996C53.9178 22.1996 54.66 21.8096 54.66 21.0295C54.66 20.6592 54.4678 20.4014 54.0835 20.256C53.7123 20.1105 53.1093 19.9717 52.2742 19.8395C51.3994 19.7072 50.6837 19.5552 50.127 19.3833C49.5836 19.2114 49.1064 18.9139 48.6955 18.4908C48.2979 18.0545 48.0991 17.4529 48.0991 16.686C48.0991 15.6811 48.5166 14.8811 49.3516 14.2861C50.1999 13.6779 51.3398 13.3738 52.7713 13.3738C53.5003 13.3738 54.2293 13.4597 54.9583 13.6316C55.6873 13.7903 56.2837 14.0085 56.7476 14.2861L55.7933 16.1703C54.892 15.6414 53.878 15.377 52.7514 15.377C52.0224 15.377 51.4657 15.4894 51.0813 15.7141C50.7102 15.9257 50.5247 16.21 50.5247 16.567C50.5247 16.9636 50.7235 17.2479 51.1211 17.4198C51.532 17.5785 52.1616 17.7305 53.0099 17.876C53.8581 18.0082 54.554 18.1602 55.0974 18.3321C55.6409 18.504 56.1048 18.7949 56.4892 19.2048C56.8868 19.6147 57.0856 20.1965 57.0856 20.9501C57.0856 21.9418 56.6548 22.7351 55.7933 23.3301C54.9318 23.9251 53.7587 24.2226 52.2742 24.2226Z" fill="#101828"/>
<path d="M68.9725 13.4928L64.0021 24.9366C63.5382 26.087 62.9749 26.8935 62.3121 27.3563C61.6494 27.8323 60.8475 28.0703 59.9065 28.0703C59.3763 28.0703 58.8527 27.9844 58.3358 27.8125C57.8189 27.6406 57.3947 27.4026 57.0634 27.0985L58.0575 25.2738C58.2961 25.4986 58.5744 25.6771 58.8925 25.8093C59.2239 25.9415 59.5552 26.0076 59.8866 26.0076C60.324 26.0076 60.6819 25.8952 60.9602 25.6705C61.2518 25.4457 61.5169 25.0689 61.7555 24.54L61.9344 24.1235L57.302 13.4928H59.8866L63.2267 21.327L66.5867 13.4928H68.9725Z" fill="#101828"/>
<path d="M76.4107 13.3738C77.4446 13.3738 78.3657 13.5986 79.1743 14.0481C79.996 14.4977 80.6389 15.1324 81.1028 15.9521C81.5667 16.7719 81.7987 17.7173 81.7987 18.7883C81.7987 19.8593 81.5667 20.8113 81.1028 21.6443C80.6389 22.4641 79.996 23.0987 79.1743 23.5483C78.3657 23.9979 77.4446 24.2226 76.4107 24.2226C74.9792 24.2226 73.846 23.7466 73.011 22.7946V27.9315H70.5258V13.4928H72.8917V14.8811C73.3026 14.3787 73.8062 14.0018 74.4027 13.7506C75.0124 13.4994 75.6817 13.3738 76.4107 13.3738ZM76.1324 22.1005C77.0469 22.1005 77.7958 21.7964 78.379 21.1881C78.9755 20.5799 79.2737 19.78 79.2737 18.7883C79.2737 17.7966 78.9755 16.9967 78.379 16.3885C77.7958 15.7802 77.0469 15.4761 76.1324 15.4761C75.5359 15.4761 74.9991 15.615 74.522 15.8926C74.0448 16.1571 73.6671 16.5405 73.3887 17.043C73.1104 17.5454 72.9712 18.1272 72.9712 18.7883C72.9712 19.4494 73.1104 20.0312 73.3887 20.5336C73.6671 21.0361 74.0448 21.4261 74.522 21.7038C74.9991 21.9682 75.5359 22.1005 76.1324 22.1005Z" fill="#101828"/>
<path d="M90.1797 13.3738C91.5184 13.3738 92.592 13.7638 93.4005 14.544C94.209 15.3241 94.6133 16.481 94.6133 18.0148V24.0838H92.1281V18.3321C92.1281 17.4066 91.9094 16.7124 91.472 16.2496C91.0346 15.7736 90.4117 15.5356 89.6031 15.5356C88.6886 15.5356 87.9662 15.8133 87.436 16.3686C86.9059 16.9107 86.6408 17.6975 86.6408 18.7288V24.0838H84.1556V9.36746H86.6408V14.7225C87.0516 14.2861 87.5553 13.9556 88.1518 13.7308C88.7615 13.4928 89.4374 13.3738 90.1797 13.3738Z" fill="#101828"/>
<path d="M108.045 13.4928V24.0838H105.679V22.7351C105.281 23.2111 104.784 23.5814 104.188 23.8458C103.591 24.097 102.948 24.2226 102.259 24.2226C100.841 24.2226 99.721 23.8326 98.8992 23.0525C98.0907 22.2591 97.6864 21.089 97.6864 19.542V13.4928H100.172V19.2048C100.172 20.1568 100.384 20.8708 100.808 21.3468C101.245 21.8096 101.862 22.041 102.657 22.041C103.545 22.041 104.247 21.7699 104.764 21.2278C105.294 20.6725 105.56 19.8791 105.56 18.8478V13.4928H108.045Z" fill="#101828"/>
<path d="M114.579 24.2226C113.718 24.2226 112.876 24.1102 112.054 23.8855C111.232 23.6607 110.576 23.3764 110.086 23.0326L111.04 21.1485C111.517 21.4658 112.087 21.7236 112.75 21.922C113.426 22.1071 114.089 22.1996 114.738 22.1996C116.223 22.1996 116.965 21.8096 116.965 21.0295C116.965 20.6592 116.773 20.4014 116.388 20.256C116.017 20.1105 115.414 19.9717 114.579 19.8395C113.704 19.7072 112.989 19.5552 112.432 19.3833C111.888 19.2114 111.411 18.9139 111 18.4908C110.603 18.0545 110.404 17.4529 110.404 16.686C110.404 15.6811 110.822 14.8811 111.657 14.2861C112.505 13.6779 113.645 13.3738 115.076 13.3738C115.805 13.3738 116.534 13.4597 117.263 13.6316C117.992 13.7903 118.589 14.0085 119.053 14.2861L118.098 16.1703C117.197 15.6414 116.183 15.377 115.056 15.377C114.327 15.377 113.771 15.4894 113.386 15.7141C113.015 15.9257 112.83 16.21 112.83 16.567C112.83 16.9636 113.028 17.2479 113.426 17.4198C113.837 17.5785 114.466 17.7305 115.315 17.876C116.163 18.0082 116.859 18.1602 117.402 18.3321C117.946 18.504 118.41 18.7949 118.794 19.2048C119.192 19.6147 119.391 20.1965 119.391 20.9501C119.391 21.9418 118.96 22.7351 118.098 23.3301C117.237 23.9251 116.064 24.2226 114.579 24.2226Z" fill="#101828"/>
</svg>
